<?xml version="1.0" encoding="UTF-8"?>
<!DOCTYPE svg PUBLIC "-//W3C//DTD SVG 1.1//EN" "http://www.w3.org/Graphics/SVG/1.1/DTD/svg11.dtd">
<svg xmlns="http://www.w3.org/2000/svg" version="1.1" width="512px" height="512px" style="shape-rendering:geometricPrecision; text-rendering:geometricPrecision; image-rendering:optimizeQuality; fill-rule:evenodd; clip-rule:evenodd" xmlns:xlink="http://www.w3.org/1999/xlink">
<g><path style="opacity:1" fill="#fefffe" d="M 38.5,14.5 C 126.25,14.3689 213.917,15.2022 301.5,17C 323.695,38.8614 345.529,61.0281 367,83.5C 367.667,142.167 367.667,200.833 367,259.5C 366.5,261.333 365.333,262.5 363.5,263C 356.923,265.13 352.756,262.964 351,256.5C 350.5,202.834 350.333,149.168 350.5,95.5C 335.163,95.6666 319.83,95.4999 304.5,95C 296.333,92.1667 290.833,86.6667 288,78.5C 287.5,62.8369 287.333,47.1702 287.5,31.5C 204.833,31.3333 122.166,31.5 39.5,32C 36.7244,32.0657 34.5577,33.2324 33,35.5C 32.3333,181.833 32.3333,328.167 33,474.5C 33.5,476.333 34.6667,477.5 36.5,478C 139.833,478.667 243.167,478.667 346.5,478C 348.333,477.5 349.5,476.333 350,474.5C 350.333,459.833 350.667,445.167 351,430.5C 351.542,425.47 354.375,423.136 359.5,423.5C 362.971,423.151 365.471,424.484 367,427.5C 367.667,444.5 367.667,461.5 367,478.5C 364.167,486.667 358.667,492.167 350.5,495C 244.5,495.667 138.5,495.667 32.5,495C 24.3333,492.167 18.8333,486.667 16,478.5C 15.3333,329.833 15.3333,181.167 16,32.5C 19.8662,21.7862 27.3662,15.7862 38.5,14.5 Z M 304.5,45.5 C 315.965,56.4646 327.298,67.6313 338.5,79C 329.5,79.6667 320.5,79.6667 311.5,79C 308.506,78.5943 306.339,77.0943 305,74.5C 304.5,64.8391 304.334,55.1724 304.5,45.5 Z"/></g>
<g><path style="opacity:1" fill="#fefffe" d="M 122.5,79.5 C 165.835,79.3333 209.168,79.5 252.5,80C 257.833,85 257.833,90 252.5,95C 209.167,95.6667 165.833,95.6667 122.5,95C 117.248,89.8393 117.248,84.6727 122.5,79.5 Z"/></g>
<g><path style="opacity:1" fill="#fefffe" d="M 67.5,127.5 C 129.168,127.333 190.834,127.5 252.5,128C 257.833,133 257.833,138 252.5,143C 190.5,143.667 128.5,143.667 66.5,143C 61.0433,137.368 61.3766,132.201 67.5,127.5 Z"/></g>
<g><path style="opacity:1" fill="#fefffe" d="M 274.5,127.5 C 288.504,127.333 302.504,127.5 316.5,128C 321.833,133 321.833,138 316.5,143C 302.5,143.667 288.5,143.667 274.5,143C 269.248,137.839 269.248,132.673 274.5,127.5 Z"/></g>
<g><path style="opacity:1" fill="#fefffe" d="M 67.5,175.5 C 150.501,175.333 233.501,175.5 316.5,176C 321.833,181 321.833,186 316.5,191C 233.167,191.667 149.833,191.667 66.5,191C 61.0433,185.368 61.3766,180.201 67.5,175.5 Z"/></g>
<g><path style="opacity:1" fill="#fefffe" d="M 450.5,207.5 C 477.564,205.077 492.897,217.244 496.5,244C 495.697,253.074 492.53,261.241 487,268.5C 433.167,322.333 379.333,376.167 325.5,430C 306.63,436.067 287.63,441.734 268.5,447C 257.667,449.5 253.5,445.333 256,434.5C 261.266,415.37 266.933,396.37 273,377.5C 326.833,323.667 380.667,269.833 434.5,216C 439.483,212.344 444.816,209.511 450.5,207.5 Z M 457.5,223.5 C 475.015,225.879 481.515,235.546 477,252.5C 474.353,256.314 471.187,259.647 467.5,262.5C 458.167,253.833 449.167,244.833 440.5,235.5C 444.606,229.026 450.273,225.026 457.5,223.5 Z M 426.5,248.5 C 430.304,250.131 432.804,252.798 434,256.5C 389.5,301 345,345.5 300.5,390C 297.564,389.107 295.064,387.274 293,384.5C 292.333,383.833 292.333,383.167 293,382.5C 337.701,337.965 382.201,293.299 426.5,248.5 Z M 446.5,268.5 C 450.304,270.131 452.804,272.798 454,276.5C 409.5,321 365,365.5 320.5,410C 317.564,409.107 315.064,407.274 313,404.5C 312.333,403.833 312.333,403.167 313,402.5C 357.701,357.965 402.201,313.299 446.5,268.5 Z M 283.5,400.5 C 289.965,406.464 296.298,412.631 302.5,419C 294.006,422.123 285.339,424.623 276.5,426.5C 278.833,417.834 281.166,409.167 283.5,400.5 Z"/></g>
<g><path style="opacity:1" fill="#fefffe" d="M 67.5,223.5 C 81.1707,223.333 94.8374,223.5 108.5,224C 113.824,229.046 113.824,234.046 108.5,239C 94.8333,239.667 81.1667,239.667 67.5,239C 64.484,237.471 63.1506,234.971 63.5,231.5C 63.5402,228.142 64.8736,225.476 67.5,223.5 Z"/></g>
<g><path style="opacity:1" fill="#fefffe" d="M 131.5,223.5 C 193.168,223.333 254.834,223.5 316.5,224C 319.516,225.529 320.849,228.029 320.5,231.5C 320.849,234.971 319.516,237.471 316.5,239C 254.833,239.667 193.167,239.667 131.5,239C 128.484,237.471 127.151,234.971 127.5,231.5C 127.282,227.934 128.616,225.268 131.5,223.5 Z"/></g>
<g><path style="opacity:1" fill="#fefffe" d="M 66.5,271.5 C 149.834,271.333 233.167,271.5 316.5,272C 321.833,277 321.833,282 316.5,287C 233.167,287.667 149.833,287.667 66.5,287C 61.2475,281.839 61.2475,276.673 66.5,271.5 Z"/></g>
<g><path style="opacity:1" fill="#fefffe" d="M 66.5,319.5 C 117.834,319.333 169.168,319.5 220.5,320C 225.833,325 225.833,330 220.5,335C 169.167,335.667 117.833,335.667 66.5,335C 61.2475,329.839 61.2475,324.673 66.5,319.5 Z"/></g>
<g><path style="opacity:1" fill="#fefffe" d="M 242.5,319.5 C 256.504,319.333 270.504,319.5 284.5,320C 289.833,325 289.833,330 284.5,335C 270.5,335.667 256.5,335.667 242.5,335C 237.248,329.839 237.248,324.673 242.5,319.5 Z"/></g>
<g><path style="opacity:1" fill="#fefffe" d="M 67.5,367.5 C 123.834,367.333 180.168,367.5 236.5,368C 241.833,373 241.833,378 236.5,383C 179.833,383.667 123.167,383.667 66.5,383C 61.0433,377.368 61.3766,372.201 67.5,367.5 Z"/></g>
<g><path style="opacity:1" fill="#fefffe" d="M 67.5,415.5 C 81.1707,415.333 94.8374,415.5 108.5,416C 113.833,421 113.833,426 108.5,431C 94.5,431.667 80.5,431.667 66.5,431C 61.0433,425.368 61.3766,420.201 67.5,415.5 Z"/></g>
<g><path style="opacity:1" fill="#fefffe" d="M 131.5,415.5 C 161.169,415.333 190.835,415.5 220.5,416C 225.833,421 225.833,426 220.5,431C 190.5,431.667 160.5,431.667 130.5,431C 125.043,425.368 125.377,420.201 131.5,415.5 Z"/></g>
</svg>
