<svg xmlns="http://www.w3.org/2000/svg" width="512" height="512" viewBox="0 0 512 512" version="1.1"><path d="M 251.229 0.669 C 247.751 2.069, 247 6.571, 247 26.016 C 247 37.797, 247.415 45.906, 248.080 47.150 C 248.675 48.261, 250.700 49.812, 252.580 50.598 C 255.544 51.836, 256.456 51.836, 259.420 50.598 C 261.300 49.812, 263.325 48.261, 263.920 47.150 C 264.585 45.906, 265 37.797, 265 26.016 C 265 2.213, 264.156 -0.133, 255.668 0.079 C 253.926 0.122, 251.928 0.388, 251.229 0.669 M 151.455 28.455 C 147.173 32.736, 148.025 35.968, 158.078 53.588 C 163.071 62.340, 168.070 70.288, 169.189 71.250 C 171.401 73.155, 177.066 73.570, 179.929 72.038 C 182.400 70.716, 184.361 65.576, 183.581 62.467 C 182.538 58.309, 166.996 31.749, 163.852 28.750 C 160.055 25.129, 154.903 25.006, 151.455 28.455 M 348.148 28.750 C 345.004 31.749, 329.462 58.309, 328.419 62.467 C 327.639 65.576, 329.600 70.716, 332.071 72.038 C 334.934 73.570, 340.599 73.155, 342.811 71.250 C 343.930 70.287, 348.929 62.340, 353.922 53.588 C 363.975 35.968, 364.827 32.736, 360.545 28.455 C 357.097 25.006, 351.945 25.129, 348.148 28.750 M 241 68.563 C 239.625 68.797, 235.350 69.489, 231.500 70.100 C 214.955 72.729, 192.655 81.981, 177.500 92.505 C 167.881 99.185, 149.396 117.871, 143.108 127.272 C 117.789 165.123, 112.320 210.473, 127.958 252.887 C 135.177 272.465, 144.916 287.153, 161.519 303.500 C 177.881 319.611, 178.164 320.221, 178.946 341 C 179.430 353.864, 179.960 358.304, 181.350 361.150 C 183.578 365.712, 189.231 371.439, 193.077 373.032 C 195.928 374.213, 196 374.422, 196 381.496 C 196 388.826, 197.860 396.083, 200.482 398.981 C 201.734 400.364, 201.544 401.292, 198.956 406.421 C 196.698 410.898, 196.010 413.606, 196.044 417.891 C 196.091 423.932, 197.870 430.094, 200.361 432.846 C 201.774 434.407, 201.648 435.085, 198.956 440.421 C 190.217 457.746, 201.912 477.899, 220.750 477.978 C 224.664 477.994, 226.502 477.498, 227.975 476.025 C 230.914 473.086, 231.518 469.309, 229.669 465.432 C 228.342 462.650, 227.123 461.801, 222.543 460.469 C 213.995 457.985, 211.307 451.881, 216.578 446.924 C 219.103 444.550, 219.559 444.494, 238.828 444.231 C 250.500 444.071, 259.370 443.518, 260.640 442.871 C 265.307 440.492, 266.295 433.618, 262.589 429.306 L 260.178 426.500 238.998 426 C 218.229 425.510, 217.781 425.454, 215.909 423.139 C 213.751 420.471, 213.466 416.278, 215.282 413.913 C 217.943 410.447, 220.698 410, 239.387 410 C 259.116 410, 262.019 409.448, 263.890 405.343 C 265.747 401.266, 265.184 398.030, 262.077 394.923 L 259.154 392 240.011 392 C 215.946 392, 214.092 391.233, 214.032 381.250 L 214 376 236.577 376 L 259.154 376 262.077 373.077 C 265.184 369.970, 265.747 366.734, 263.890 362.657 C 261.922 358.340, 259.515 358, 230.887 358 C 203.432 358, 201.069 357.716, 198.282 354.087 C 197.484 353.047, 197.053 348.338, 197.032 340.434 C 196.967 315.899, 194.701 310.689, 175.969 292 C 154.789 270.870, 145.070 253.712, 139.430 227.500 C 137.096 216.654, 137.082 193.459, 139.403 182.500 C 146.949 146.859, 168.149 117.968, 199.382 100.757 C 245.527 75.330, 301.994 83.671, 339.500 121.454 C 376.291 158.518, 385.122 212.707, 361.828 258.462 C 355.439 271.011, 349.686 278.469, 335.570 292.500 C 317.352 310.608, 315.028 315.944, 314.968 339.799 C 314.923 357.847, 314.740 358, 293.212 358 C 278.761 358, 278.209 358.077, 275.646 360.452 C 273.765 362.195, 273 363.907, 273 366.370 C 273 374.145, 276.073 376, 288.950 376 L 298 376 297.968 381.250 C 297.919 389.346, 294.845 392, 285.516 392 C 279.554 392, 274.646 393.875, 273.621 396.545 C 272.140 400.405, 273.004 405.099, 275.646 407.548 C 277.883 409.621, 279.283 410, 284.712 410 C 291.247 410, 294.537 411.072, 296.718 413.913 C 298.736 416.542, 298.208 420.883, 295.545 423.545 C 293.487 425.604, 292.127 426, 287.111 426 C 276.978 426, 273.090 428.524, 273.032 435.139 C 272.977 441.463, 275.499 443.358, 284.889 444.048 C 291.526 444.536, 293.445 445.069, 295.496 446.996 C 298.755 450.058, 298.775 454.315, 295.545 457.545 L 293.091 460 270.195 460 C 256.813 460, 246.049 460.435, 244.293 461.048 C 238.646 463.016, 236.878 471.112, 241.111 475.618 C 243.306 477.955, 243.689 478, 261.174 478 C 271.390 478, 279 478.394, 279 478.922 C 279 479.430, 277.534 481.792, 275.743 484.172 C 268.821 493.370, 255.994 496.542, 245.500 491.649 C 242.750 490.367, 239.858 488.542, 239.073 487.593 C 237.190 485.317, 232.620 483, 230.014 483 C 226.953 483, 223.280 485.747, 222.238 488.816 C 220.018 495.353, 225.396 502.116, 237.583 508.115 C 244.192 511.369, 244.905 511.500, 256 511.500 C 266.977 511.500, 267.859 511.343, 274.021 508.292 C 285.914 502.405, 292.489 495.096, 296.436 483.377 C 298.337 477.731, 299.033 476.817, 303.031 474.707 C 308.382 471.882, 313.520 465.489, 315.084 459.708 C 316.739 453.591, 315.668 444.890, 312.581 439.366 C 310.164 435.042, 310.089 434.559, 311.579 432.912 C 314.127 430.098, 315.908 423.982, 315.956 417.891 C 315.990 413.606, 315.302 410.898, 313.044 406.421 C 310.456 401.292, 310.266 400.364, 311.518 398.981 C 314.140 396.083, 316 388.826, 316 381.496 C 316 374.422, 316.072 374.213, 318.923 373.032 C 320.530 372.366, 323.425 370.242, 325.356 368.310 C 331.529 362.138, 332.368 359.243, 333.127 341.500 C 333.503 332.700, 334.153 324.375, 334.570 323 C 335.932 318.512, 338.262 315.668, 350.546 303.500 C 364.431 289.747, 372.019 279.417, 378.988 264.783 C 389.010 243.737, 392.417 228.537, 392.390 205 C 392.378 194.461, 391.821 186.693, 390.650 180.730 C 379.645 124.693, 338.076 82.493, 282 70.433 C 274.855 68.896, 246.611 67.608, 241 68.563 M 80.080 99.750 C 77.185 102.117, 76.265 108.230, 78.331 111.382 C 79.994 113.921, 109.577 131.370, 114.142 132.506 C 119.827 133.919, 125.720 127.709, 124.283 121.818 C 123.340 117.951, 121.407 116.468, 105.047 107.058 C 88.279 97.413, 84.347 96.263, 80.080 99.750 M 407.098 106.950 C 398.626 111.851, 390.878 116.679, 389.880 117.680 C 387.898 119.667, 387.232 124.204, 388.400 127.761 C 389.182 130.144, 393.686 133, 396.662 133 C 399.269 133, 431.706 114.258, 433.479 111.727 C 435.395 108.992, 435.415 105.702, 433.537 102.072 C 430.122 95.468, 425.457 96.329, 407.098 106.950 M 206.195 171.017 C 195.932 173.157, 186.612 180.502, 182.108 190 C 179.866 194.728, 179.500 196.834, 179.500 205 C 179.500 216.294, 181.634 221.720, 188.957 229.043 C 196.749 236.835, 201.327 238.446, 216.750 238.827 L 230 239.155 230 287.522 L 230 335.888 232.394 338.672 C 235.542 342.332, 241.853 342.592, 245.245 339.200 L 247.500 336.946 247.777 287.973 L 248.055 239 256 239 L 263.945 239 264.223 287.973 L 264.500 336.946 266.755 339.200 C 270.147 342.592, 276.458 342.332, 279.606 338.672 L 282 335.888 282 287.522 L 282 239.155 295.250 238.827 C 310.673 238.446, 315.251 236.835, 323.043 229.043 C 330.366 221.720, 332.500 216.294, 332.500 205 C 332.500 196.834, 332.134 194.728, 329.892 190 C 323.667 176.874, 308.952 168.776, 294.500 170.523 C 287.561 171.363, 277.927 176.231, 273.493 181.140 C 266.735 188.620, 264.656 194.783, 264.178 208.750 L 263.759 221 256 221 L 248.241 221 247.822 208.750 C 247.344 194.783, 245.265 188.620, 238.507 181.140 C 231.240 173.096, 217.246 168.712, 206.195 171.017 M 208.500 189.064 C 204.833 190.143, 200.569 193.999, 198.398 198.198 C 196.329 202.199, 196.980 210.157, 199.672 213.763 C 204.076 219.661, 206.258 220.474, 218.660 220.838 L 230.182 221.177 229.841 210.257 C 229.521 200.017, 229.321 199.102, 226.616 195.560 C 223.681 191.715, 217.118 187.989, 213.500 188.112 C 212.400 188.150, 210.150 188.578, 208.500 189.064 M 292.384 189.866 C 290.120 190.920, 286.970 193.482, 285.384 195.560 C 282.679 199.102, 282.479 200.017, 282.159 210.257 L 281.818 221.177 293.340 220.838 C 303.088 220.552, 305.285 220.183, 307.619 218.438 C 312.148 215.052, 314.252 211.437, 314.758 206.171 C 315.929 193.980, 303.306 184.781, 292.384 189.866 M 53.455 198.455 C 50.005 201.904, 50.062 207.769, 53.578 211.076 C 56.104 213.451, 56.558 213.505, 75.828 213.766 C 97.281 214.057, 99.449 213.633, 101.822 208.685 C 103.464 205.259, 102.551 200.591, 99.722 197.956 C 97.778 196.144, 96.084 196, 76.766 196 C 55.955 196, 55.904 196.005, 53.455 198.455 M 412.278 197.956 C 409.449 200.591, 408.536 205.259, 410.178 208.685 C 412.551 213.633, 414.719 214.057, 436.172 213.766 C 455.442 213.505, 455.896 213.451, 458.422 211.076 C 461.938 207.769, 461.995 201.904, 458.545 198.455 C 456.096 196.005, 456.045 196, 435.234 196 C 415.916 196, 414.222 196.144, 412.278 197.956 M 97 285.989 C 80.260 295.655, 77 298.450, 77 303.133 C 77 307.104, 81.779 312, 85.655 312 C 87.375 312, 95.008 308.252, 105.355 302.326 C 119.653 294.137, 122.462 292.139, 123.641 289.317 C 125.372 285.174, 124.539 281.569, 121.253 278.984 C 116.804 275.485, 113.580 276.416, 97 285.989 M 390.354 279.372 C 387.385 281.926, 386.749 286.794, 388.868 290.754 C 390.391 293.598, 422.850 312, 426.345 312 C 430.177 312, 435 307.103, 435 303.212 C 435 298.420, 431.910 295.757, 415.185 286.137 C 397.843 276.163, 394.989 275.385, 390.354 279.372" stroke="none" fill="#fffcfc" fill-rule="evenodd"/><path d="" stroke="none" fill="#fcfcfc" fill-rule="evenodd"/></svg>