<?xml version="1.0" encoding="UTF-8" standalone="no"?>
<svg
   version="1.0"
   width="512.000000pt"
   height="512.000000pt"
   viewBox="0 0 512.000000 512.000000"
   preserveAspectRatio="xMidYMid meet"
   id="svg20"
   sodipodi:docname="app-development.svg"
   inkscape:version="1.1 (c68e22c387, 2021-05-23)"
   xmlns:inkscape="http://www.inkscape.org/namespaces/inkscape"
   xmlns:sodipodi="http://sodipodi.sourceforge.net/DTD/sodipodi-0.dtd"
   xmlns="http://www.w3.org/2000/svg"
   xmlns:svg="http://www.w3.org/2000/svg">
  <defs
     id="defs24" />
  <sodipodi:namedview
     id="namedview22"
     pagecolor="#505050"
     bordercolor="#eeeeee"
     borderopacity="1"
     inkscape:pageshadow="0"
     inkscape:pageopacity="0"
     inkscape:pagecheckerboard="0"
     inkscape:document-units="pt"
     showgrid="false"
     inkscape:zoom="1.3168945"
     inkscape:cx="340.95365"
     inkscape:cy="341.33333"
     inkscape:window-width="1858"
     inkscape:window-height="1177"
     inkscape:window-x="1974"
     inkscape:window-y="-8"
     inkscape:window-maximized="1"
     inkscape:current-layer="svg20" />
  <g
     transform="translate(0.000000,512.000000) scale(0.100000,-0.100000)"
     fill="#000000"
     stroke="none"
     id="g18">
    <path
       d="M893 4952 c-73 -26 -136 -81 -170 -150 l-28 -57 -3 -1731 c-2 -1682 -2 -1732 17 -1755 26 -32 86 -32 112 0 18 22 19 72 19 1507 l0 1484 1235 0 1235 0 0 -195 c0 -207 5 -235 47 -254 34 -16 47 -14 77 10 l26 20 0 448 c0 503 0 504 -72 586 -22 25 -64 58 -92 73 l-51 27 -1150 2 c-1085 2 -1153 2 -1202 -15z m2338 -152 c71 -37 79 -62 79 -242 l0 -158 -1235 0 -1235 0 0 151 c0 177 12 213 84 249 40 20 58 20 1154 20 1100 0 1113 0 1153 -20z"
       id="path2" />
    <path
       d="M2038 4675 c-37 -20 -47 -69 -20 -104 l19 -26 226 -3 c216 -2 228 -1 247 18 30 30 27 83 -6 109 -25 20 -39 21 -233 21 -160 -1 -212 -4 -233 -15z"
       id="path4" />
    <path
       d="M2217 4052 c-19 -21 -467 -1143 -467 -1170 0 -51 70 -87 114 -58 18 11 76 148 250 584 124 313 226 581 226 595 0 57 -85 91 -123 49z"
       id="path6" />
    <path
       d="M1535 3830 c-11 -4 -98 -86 -192 -182 -145 -146 -173 -179 -173 -204 0 -24 29 -59 178 -212 191 -197 202 -204 256 -161 19 15 26 29 26 57 0 33 -12 48 -140 176 l-139 141 139 141 c127 127 140 144 140 176 0 52 -49 87 -95 68z"
       id="path8" />
    <path
       d="M2563 3830 c-27 -11 -43 -40 -43 -76 0 -22 29 -56 140 -169 l141 -141 -141 -146 c-152 -159 -162 -177 -115 -223 49 -50 63 -41 257 153 159 159 178 181 178 211 0 29 -19 53 -162 203 -145 152 -199 199 -225 197 -4 0 -18 -4 -30 -9z"
       id="path10" />
    <path
       d="M3171 3251 c-10 -10 -21 -39 -24 -67 -3 -27 -9 -74 -12 -105 l-7 -55 -63 -28 -63 -27 -88 60 c-52 37 -98 61 -113 61 -20 0 -55 -29 -152 -127 -70 -71 -129 -136 -132 -146 -9 -26 5 -55 67 -132 31 -38 56 -74 56 -80 0 -7 -35 -102 -46 -123 0 -1 -46 -10 -102 -20 -148 -27 -142 -16 -142 -242 0 -228 -7 -217 142 -236 57 -7 103 -13 104 -13 1 -1 13 -30 28 -65 l27 -64 -56 -78 c-58 -82 -71 -110 -61 -141 3 -11 62 -74 129 -141 152 -150 149 -149 269 -57 l85 65 59 -26 c32 -14 62 -30 65 -36 4 -5 12 -51 19 -101 17 -113 35 -137 105 -137 l45 0 0 -85 0 -85 -1288 0 -1289 0 -21 -23 c-22 -23 -22 -29 -22 -310 0 -262 2 -291 20 -340 27 -73 79 -130 148 -164 l57 -28 1160 0 1160 0 53 24 c31 14 70 43 96 72 75 84 76 89 76 541 l0 398 59 0 c90 0 100 12 117 145 8 60 15 109 17 110 55 25 121 46 132 42 7 -3 44 -28 82 -55 37 -27 78 -53 90 -56 36 -11 74 17 192 140 137 145 136 144 47 258 l-65 83 26 65 25 64 100 16 c151 25 148 19 148 239 0 225 5 217 -145 238 l-107 16 -25 63 -25 63 61 91 c50 73 61 97 56 117 -8 33 -240 268 -272 276 -30 7 -52 -5 -135 -71 -37 -30 -71 -54 -76 -54 -5 0 -35 11 -68 24 l-59 24 -17 102 c-10 62 -24 110 -34 121 -16 17 -34 19 -206 19 -170 0 -190 -2 -207 -19z m308 -208 c20 -128 26 -136 116 -164 22 -6 66 -25 97 -40 32 -16 69 -29 82 -29 15 0 54 24 102 61 l77 61 60 -60 61 -61 -57 -83 c-31 -46 -57 -91 -57 -101 0 -10 13 -43 29 -75 16 -31 37 -83 47 -116 10 -32 27 -64 39 -72 11 -7 62 -18 113 -25 l92 -12 0 -87 0 -87 -91 -13 c-50 -7 -99 -20 -110 -29 -11 -9 -33 -53 -48 -99 -16 -45 -36 -93 -45 -107 -29 -45 -21 -81 39 -157 30 -38 55 -73 55 -77 0 -4 -27 -33 -59 -65 l-59 -59 -78 57 c-43 31 -88 56 -101 56 -12 0 -53 -15 -90 -34 -37 -19 -87 -39 -110 -45 -63 -17 -80 -45 -88 -151 l-7 -90 -88 0 -88 0 -6 28 c-3 15 -10 56 -17 92 -6 35 -15 72 -19 81 -5 9 -43 28 -83 42 -41 15 -98 38 -127 51 -63 29 -77 26 -158 -40 -31 -26 -63 -49 -70 -52 -14 -5 -122 95 -122 113 0 6 20 39 45 73 71 98 72 101 26 201 -21 47 -44 103 -50 123 -7 20 -19 42 -26 48 -8 7 -57 17 -107 24 l-93 11 -3 87 -3 86 28 6 c15 3 57 10 93 16 36 7 73 19 82 27 9 8 27 45 39 82 12 36 32 85 45 108 37 64 32 88 -36 173 l-60 75 61 61 61 62 75 -54 c41 -29 84 -56 94 -59 12 -4 42 5 77 23 31 16 87 39 125 51 37 13 71 31 77 40 7 14 30 160 30 193 0 5 40 8 89 8 l88 0 12 -77z m-169 -2407 c0 -225 -1 -234 -22 -266 -13 -18 -39 -41 -58 -51 -33 -18 -84 -19 -1149 -19 -1094 0 -1115 0 -1156 20 -26 13 -49 34 -63 59 -21 37 -22 51 -22 265 l0 226 1235 0 1235 0 0 -234z"
       id="path12" />
    <path
       d="M3273 2615 c-107 -33 -214 -131 -254 -233 -18 -45 -23 -77 -24 -152 0 -87 3 -101 32 -162 122 -258 448 -313 648 -110 207 210 111 573 -174 656 -65 19 -170 20 -228 1z m245 -172 c56 -34 107 -112 117 -178 9 -64 -17 -146 -62 -196 -35 -39 -80 -69 -103 -69 -6 0 -10 55 -10 159 l0 160 -26 20 c-36 28 -60 26 -95 -8 l-29 -29 0 -151 c0 -83 -3 -151 -7 -151 -3 0 -25 11 -48 24 -132 78 -152 280 -38 388 79 75 208 89 301 31z"
       id="path14" />
    <path
       d="M1682 607 c-40 -43 -19 -107 40 -122 13 -3 182 -5 376 -3 l354 3 19 24 c25 30 24 76 -1 101 -19 19 -33 20 -393 20 l-374 0 -21 -23z"
       id="path16" />
  </g>
  <path
     style="fill:#ffffff;fill-rule:evenodd;stroke-width:1.43502"
     d="m 96.039425,515.43072 -2.512517,-2.24494 -0.681533,-21.19059 c -0.38864,-12.0838 -0.471289,-111.75 -0.192315,-231.91338 L 93.142277,49.359022 96.295246,43.283886 C 102.51676,31.296279 113.3046,23.176219 125.03196,21.653612 128.4024,21.216015 190.37882,20.920074 281.6171,20.905908 l 151.0068,-0.02345 4.41102,2.351051 c 10.48705,5.589537 19.40627,15.049153 21.63016,22.940651 1.85964,6.599001 2.56596,28.740861 2.61068,81.83949 l 0.0368,43.72445 -3.35143,2.40681 c -4.06607,2.92004 -7.50401,3.1267 -11.15399,0.67049 -4.42873,-2.98025 -4.70356,-4.79175 -5.06484,-33.38418 l -0.32383,-25.62848 H 276.81325 112.20801 l -0.476,193.82722 c -0.2618,106.60497 -0.77939,196.16926 -1.15019,199.03176 -0.85993,6.63842 -2.29092,8.2063 -7.91553,8.67274 -3.725491,0.30895 -4.351813,0.12901 -6.626865,-1.90374 z M 441.36715,75.366704 c -0.39285,-22.489307 -0.79181,-24.986737 -4.59987,-28.794801 -4.1248,-4.1248 -7.6417,-5.327656 -17.76018,-6.07438 -5.25301,-0.387661 -70.55831,-0.586009 -149.61864,-0.454428 -156.50791,0.260479 -144.44594,-0.178541 -151.07865,5.49881 -5.30677,4.542403 -5.76731,6.814081 -6.1233,30.20448 l -0.30916,20.31294 h 164.92564 164.92563 z"
     id="path952"
     transform="scale(0.75)" />
  <path
     style="fill:#ffffff;fill-rule:evenodd;stroke-width:1.43502"
     d="m 204.69514,274.70782 c -1.43592,-0.70718 -5.84755,-4.37281 -9.80363,-8.14585 -11.56794,-11.03272 -34.91485,-35.98139 -36.99846,-39.53681 -1.78498,-3.04583 -1.84278,-3.44494 -0.8448,-5.83342 1.78986,-4.28375 39.19524,-42.86359 46.56049,-48.02241 3.25128,-2.27729 7.48386,-1.71544 10.60735,1.40805 2.14639,2.14639 2.58136,3.13895 2.579,5.88506 -0.002,2.02902 -0.62707,4.32845 -1.62109,5.96099 -0.89003,1.46178 -9.08987,10.19778 -18.22185,19.41335 -9.13199,9.21557 -16.60361,17.05176 -16.60361,17.41375 0,0.362 7.11947,7.85736 15.82106,16.65636 18.83558,19.04645 20.63762,21.33561 20.60417,26.17367 -0.0276,3.99809 -0.74085,5.16977 -4.84022,7.95168 -3.44352,2.33683 -3.79806,2.36993 -7.23841,0.67558 z"
     id="path991"
     transform="scale(0.75)" />
  <path
     style="fill:#ffffff;fill-rule:evenodd;stroke-width:1.43502"
     d="m 284.20627,76.507103 -12.70437,-0.227782 -1.91335,-2.815749 c -3.47673,-5.116464 -2.2972,-11.352449 2.62616,-13.884163 2.64935,-1.362355 28.65972,-2.471207 44.39678,-1.892684 14.16972,0.520904 17.13504,1.302735 19.06008,5.025347 1.74216,3.368977 1.42626,8.590175 -0.66699,11.023718 -2.84104,3.302912 -7.36957,3.549966 -50.79831,2.771313 z"
     id="path1030"
     transform="scale(0.75)" />
  <path
     style="fill:#ffffff;fill-rule:evenodd;stroke-width:1.43502"
     d="m 239.02422,306.03621 c -3.07274,-1.3358 -5.70755,-5.39821 -5.21596,-8.04207 1.39144,-7.48346 59.60462,-152.57685 62.50426,-155.78871 2.66327,-2.95002 9.7189,-2.32598 12.95964,1.14623 2.50048,2.67907 2.70386,5.10397 0.87811,10.46941 -3.10988,9.13915 -22.89006,60.22041 -34.53115,89.17485 -20.97761,52.17678 -24.81304,60.85242 -27.83959,62.9723 -2.0868,1.46165 -5.48872,1.48807 -8.75531,0.068 z"
     id="path1069"
     transform="scale(0.75)" />
  <path
     style="fill:#ffffff;fill-rule:evenodd;stroke-width:1.43502"
     d="m 340.56719,273.27395 c -7.41778,-6.70152 -6.57632,-8.2546 18.89986,-34.88317 7.56616,-7.9084 13.75729,-14.69373 13.75807,-15.0785 7.6e-4,-0.38478 -7.78765,-8.58589 -17.30763,-18.2247 -9.79288,-9.91512 -17.88098,-18.74897 -18.62616,-20.34355 -2.84724,-6.09272 2.00251,-13.50784 8.83459,-13.50784 1.07483,0 3.67268,1.37091 5.96014,3.14522 7.18778,5.57534 40.08519,39.82588 43.27235,45.05222 1.83896,3.01554 1.7751,6.23438 -0.18874,9.51409 -2.07535,3.46592 -40.39303,41.71778 -44.34431,44.26814 -5.16796,3.33565 -6.62119,3.34388 -10.25817,0.0581 z"
     id="path1108"
     transform="scale(0.75)" />
  <path
     style="fill:#ffffff;fill-rule:evenodd;stroke-width:1.43502"
     d="m 115.50264,658.53992 c -10.76813,-5.76598 -17.700032,-13.6623 -21.102098,-24.03798 -1.549886,-4.72687 -1.653582,-6.73446 -1.96207,-37.98612 -0.390914,-39.6019 -0.160786,-43.17935 3.009913,-46.79057 l 2.286993,-2.60475 H 269.65226 441.56915 v -11.77011 -11.77012 h -5.35324 c -10.00434,0 -11.84614,-2.42388 -14.8357,-19.5243 -1.07979,-6.17643 -2.36099,-11.71417 -2.84711,-12.3061 -0.93999,-1.14459 -14.45411,-7.65643 -15.8895,-7.65643 -0.46764,0 -4.6985,2.91942 -9.40189,6.48761 -4.7034,3.56818 -10.12727,7.36825 -12.05306,8.44459 -6.88211,3.84648 -10.20665,1.80012 -29.92192,-18.41792 -8.92849,-9.15616 -12.9919,-13.86552 -13.343,-15.46408 -0.70349,-3.20294 1.84268,-8.35183 9.38722,-18.98298 3.3947,-4.78353 6.17218,-8.93598 6.17218,-9.22766 0,-0.44721 -6.76506,-16.71452 -7.13417,-17.15489 -0.0688,-0.0821 -5.75314,-0.86737 -12.6319,-1.74513 -14.35679,-1.83199 -17.40044,-2.9433 -18.72871,-6.83832 -0.61525,-1.80418 -0.9201,-9.67715 -0.9492,-24.51382 -0.0465,-23.70309 0.25222,-25.78848 4.05019,-28.27701 1.06799,-0.69977 7.65141,-2.39706 14.62982,-3.77175 9.06826,-1.78636 12.96255,-2.87487 13.65034,-3.81548 1.23071,-1.68309 5.59546,-13.70706 5.59317,-15.40802 -7.6e-4,-0.70905 -3.38273,-5.7901 -7.51508,-11.2912 -4.13234,-5.5011 -7.9232,-11.24386 -8.42413,-12.76168 -0.83512,-2.53047 -0.73838,-3.02018 1.16489,-5.89622 2.92763,-4.42393 30.58244,-32.04355 33.60737,-33.56459 2.40821,-1.21093 2.66007,-1.18863 6.51706,0.57716 2.20663,1.01023 8.15984,4.61562 13.22937,8.01199 5.06952,3.39637 9.56226,6.17521 9.98386,6.17521 0.4216,0 4.33562,-1.56306 8.69782,-3.47347 9.11203,-3.99057 7.93981,-1.76817 9.98355,-18.92772 1.38516,-11.63011 2.65296,-14.81061 6.41516,-16.09358 2.87496,-0.98041 45.83598,-1.27265 49.35855,-0.33577 3.06731,0.81581 5.05205,6.02598 7.38475,19.38585 l 2.10728,12.06885 8.35298,3.2236 c 9.86733,3.80803 8.23169,4.24253 21.0917,-5.60294 9.30888,-7.12677 12.85596,-8.92466 15.60281,-7.90854 2.73438,1.01151 15.80193,12.99106 24.6156,22.5661 10.432,11.33319 12.22334,13.94039 11.51555,16.76041 -0.29109,1.15983 -3.918,7.22193 -8.05979,13.47134 l -7.53052,11.36255 3.20076,8.07535 c 1.76042,4.44144 3.40526,8.30481 3.65522,8.58524 0.24995,0.28044 6.18422,1.38536 13.18726,2.4554 20.5813,3.14472 19.80469,2.05826 20.16681,28.2128 0.35437,25.59476 -0.50129,29.6604 -6.7906,32.26552 -1.21938,0.50509 -7.57417,1.81511 -14.12176,2.91116 l -11.9047,1.99282 -3.23307,7.97081 c -1.77819,4.38395 -3.24905,8.43525 -3.26856,9.00289 -0.0195,0.56764 3.08885,5.00991 6.90749,9.87171 8.55725,10.89486 10.27899,14.37429 9.08498,18.35956 -1.03963,3.46995 -8.76612,12.37081 -21.42964,24.68675 -9.07289,8.82386 -13.17571,11.73474 -16.53983,11.73474 -0.87389,0 -6.71058,-3.45633 -12.97042,-7.68073 -10.58659,-7.14427 -11.57158,-7.64507 -14.10271,-7.17022 -3.22443,0.60491 -14.61485,4.87032 -15.09939,5.65433 -0.18555,0.30023 -1.05114,5.62994 -1.92353,11.8438 -1.81183,12.90527 -2.12288,14.413 -3.56352,17.27323 -1.69362,3.36251 -4.62959,4.37918 -12.64637,4.37918 h -7.146 l -0.43888,51.06712 c -0.26408,30.7278 -0.76797,53.17482 -1.26515,56.35908 -1.23626,7.91778 -3.76148,12.66663 -10.08246,18.96074 -4.06142,4.04418 -7.18096,6.31932 -11.86313,8.65203 l -6.35267,3.16496 -155.01181,-0.017 -155.01181,-0.017 z m 312.48334,-17.10853 c 4.29598,-1.44552 8.7294,-5.06794 11.06447,-9.04046 l 2.13902,-3.63898 0.23571,-31.3237 0.23571,-31.32369 H 276.7941 111.92729 l 0.22916,30.94401 c 0.22255,30.05166 0.27652,31.03161 1.87119,33.98146 3.90936,7.23162 9.28534,10.31728 19.24044,11.04342 3.96766,0.28941 71.28513,0.47102 149.59436,0.40357 109.46579,-0.0943 143.01456,-0.336 145.12354,-1.04563 z m 37.41151,-139.3031 c 0.19631,-1.35736 0.71348,-6.32374 1.14926,-11.0364 0.86837,-9.39064 2.59276,-14.4742 5.57195,-16.42623 1.00971,-0.6616 4.20252,-2.01076 7.09513,-2.99816 2.89261,-0.9874 9.14682,-3.57443 13.89826,-5.74894 4.75143,-2.17452 9.5416,-3.97933 10.64484,-4.0107 2.75809,-0.0784 5.87572,1.62245 15.95404,8.70399 l 8.66018,6.08507 7.85595,-7.95161 c 4.32077,-4.37339 7.85596,-8.30387 7.85596,-8.73441 0,-0.43053 -2.60712,-4.32892 -5.7936,-8.66307 -6.3287,-8.60809 -8.59198,-12.8257 -8.61761,-16.05889 -0.009,-1.15705 1.35017,-4.99436 3.02077,-8.52735 1.6706,-3.533 3.03745,-6.60374 3.03745,-6.82386 0,-1.40803 5.81405,-14.86144 7.25716,-16.7927 2.08671,-2.79255 6.32388,-4.13535 19.13068,-6.06268 l 8.54282,-1.28563 v -11.94633 -11.94633 l -5.50537,-0.53131 c -10.75712,-1.03813 -20.50322,-3.30686 -22.41394,-5.21757 -0.97666,-0.97666 -3.42938,-6.0214 -5.4505,-11.21055 -2.02112,-5.18914 -4.94038,-12.2751 -6.48726,-15.74658 -3.40771,-7.64754 -3.63396,-6.83445 5.9101,-21.23958 l 6.7748,-10.2254 -7.85233,-7.87914 c -4.31878,-4.33353 -8.20015,-7.87724 -8.62526,-7.87491 -0.42511,0.002 -3.16492,1.9254 -6.08846,4.27349 -9.29517,7.46557 -15.41668,11.21477 -18.18291,11.13636 -1.37678,-0.039 -6.39167,-1.76424 -11.14422,-3.83381 -4.75254,-2.06958 -11.28196,-4.69951 -14.50983,-5.84429 -9.53329,-3.38105 -10.31875,-4.75938 -13.37551,-23.47125 l -1.25843,-7.70337 -11.59609,0.0791 c -6.37785,0.0435 -11.73192,0.21492 -11.89793,0.38094 -0.16601,0.16601 -0.68486,3.20583 -1.15299,6.75516 -0.46813,3.54933 -1.3846,9.43662 -2.03659,13.08288 -1.40182,7.83969 -1.55722,7.97983 -14.04251,12.66297 -4.33019,1.62422 -10.44288,4.13973 -13.58376,5.59003 -8.73977,4.03557 -9.51181,4.08262 -14.80215,0.90218 -2.50036,-1.50317 -7.39702,-4.80209 -10.88146,-7.33093 -3.48444,-2.52884 -6.77378,-4.64005 -7.30965,-4.69159 -0.53587,-0.0515 -4.45816,3.57259 -8.71621,8.05361 -6.94827,7.31212 -7.63905,8.28932 -6.73855,9.53257 0.55184,0.7619 3.26706,4.27158 6.03383,7.7993 9.381,11.96112 9.93029,14.42748 5.33119,23.93782 -1.60994,3.32916 -4.22306,9.58087 -5.80692,13.89269 -1.58387,4.31182 -3.67393,8.7835 -4.6446,9.93707 -2.00319,2.38066 -6.55982,3.84984 -17.75516,5.72476 -11.30211,1.8928 -10.16148,0.26919 -9.52945,13.56443 0.30058,6.32317 0.60283,11.54511 0.67165,11.60431 0.0688,0.0592 5.10732,0.82557 11.19666,1.70307 6.08935,0.8775 12.11066,1.9577 13.38072,2.40044 2.64385,0.92165 3.05601,1.6517 8.98325,15.91196 6.58836,15.85079 7.37961,18.28317 6.90296,21.22036 -0.25063,1.54452 -3.13145,6.64658 -6.96171,12.32952 -4.6616,6.91641 -6.401,10.11418 -6.06953,11.15852 0.58257,1.83553 11.94169,12.75429 14.46452,13.90377 1.71271,0.78036 2.59916,0.30201 10.42456,-5.62538 9.72903,-7.3693 11.10579,-8.18442 13.82375,-8.18442 1.98288,0 29.44263,10.54603 33.26054,12.77384 2.49849,1.45791 2.97334,2.84657 5.49928,16.08193 1.07604,5.63826 2.14,10.84939 2.36434,11.58027 0.36537,1.19036 1.62593,1.32889 12.09242,1.32889 h 11.68454 z"
     id="path1147"
     transform="scale(0.75)" />
  <path
     style="fill:#ffffff;fill-rule:evenodd;stroke-width:1.43502"
     d="m 441.18947,436.6338 c -17.74509,-3.96407 -31.11379,-15.34636 -38.79755,-33.03276 -1.93965,-4.46468 -2.17272,-5.94387 -2.44152,-15.49551 -0.36196,-12.86181 0.48914,-17.75197 4.56929,-26.25371 2.56121,-5.33676 4.27429,-7.61136 10.00825,-13.28884 12.10595,-11.9867 21.19798,-15.93711 36.53324,-15.87336 10.44772,0.0434 16.14162,1.26628 24.27556,5.21356 10.20315,4.95145 18.10692,12.89632 23.43142,23.55325 4.05861,8.12328 5.34958,13.85829 5.38447,23.91991 0.0524,15.11624 -4.27109,25.34843 -15.43427,36.52733 -5.45884,5.46652 -7.70051,7.1049 -13.73727,10.04022 -11.27021,5.48002 -22.97974,7.10517 -33.79162,4.68991 z m 0.28984,-42.56052 0.0898,-18.26042 2.84761,-2.7221 c 5.44987,-5.20966 7.94692,-5.58291 13.23023,-1.9776 l 3.57973,2.4428 0.23277,21.0354 c 0.12802,11.56948 0.46065,21.26273 0.73917,21.54058 0.92867,0.92637 7.03914,-2.38615 10.99349,-5.95962 13.0326,-11.77735 15.34334,-29.06372 5.81965,-43.53611 -9.46604,-14.38477 -27.27217,-18.75433 -43.28033,-10.62082 -22.54217,11.45333 -22.38047,46.60402 0.26725,58.09735 l 4.43139,2.24885 0.47968,-2.01394 c 0.26382,-1.10767 0.5201,-10.23114 0.56952,-20.27437 z"
     id="path1186"
     transform="scale(0.75)" />
  <path
     style="fill:#ffffff;fill-rule:evenodd;stroke-width:1.43502"
     d="m 236.16166,617.84949 c -8.90441,-0.52019 -10.73924,-1.19558 -12.8207,-4.71921 -2.05075,-3.47164 -1.58758,-7.67737 1.24043,-11.26371 l 2.46792,-3.12971 48.59919,0.30934 c 26.72955,0.17013 49.57199,0.56257 50.76097,0.87208 5.21198,1.35676 6.58103,9.74367 2.47028,15.13313 l -2.05159,2.68978 -17.99621,0.001 c -9.89791,7e-4 -28.41845,0.13486 -41.15676,0.29811 -12.7383,0.16324 -26.91939,0.0772 -31.51353,-0.19118 z"
     id="path1225"
     transform="scale(0.75)" />
</svg>
