<svg xmlns="http://www.w3.org/2000/svg" width="512" height="512" viewBox="0 0 512 512" version="1.1"><path d="M 251.326 8.084 C 243.377 9.581, 236.561 15, 233.551 22.218 C 231.429 27.306, 231.587 37.496, 233.866 42.500 C 235.818 46.787, 242.431 53.367, 245.889 54.465 C 247.813 55.075, 248 55.868, 248 63.415 L 248 71.696 237.389 72.345 C 200.047 74.630, 157.208 90.988, 125 115.260 C 112.584 124.617, 92.266 144.986, 83.154 157.214 C 54.142 196.141, 39.659 239.987, 39.789 288.500 C 39.883 323.436, 46.586 352.185, 61.939 383.500 C 75.413 410.981, 91.931 432.457, 114.377 451.673 C 154.561 486.076, 203.071 504, 256 504 C 303.376 504, 347.001 489.749, 384.512 462.019 C 397.079 452.729, 406.274 444.381, 407.758 440.914 C 410.344 434.873, 404.539 427.895, 398.242 429.475 C 396.957 429.798, 391.990 433.457, 387.203 437.607 C 347.562 471.972, 296.084 489.356, 244.176 485.906 C 156.955 480.109, 84.072 418.125, 63.957 332.636 C 50.244 274.359, 64.848 210.869, 102.766 163.921 C 111.100 153.602, 130.858 134.783, 140.908 127.591 C 193.153 90.205, 259.148 80.044, 319.500 100.095 C 392.359 124.300, 444.581 188.412, 454.050 265.278 C 456.005 281.149, 454.776 311.669, 451.574 326.781 C 445.560 355.170, 437.996 372.833, 419.076 402.674 C 416.030 407.479, 415.880 408.105, 416.978 411.432 C 418.339 415.558, 420.479 417, 425.243 417 C 429.806 417, 430.880 415.990, 437.998 405 C 454.780 379.089, 466.204 348.033, 470.551 316.500 C 472.651 301.269, 472.105 265.330, 469.564 251.500 C 461.441 207.291, 442.268 169.325, 412.109 137.726 C 376.470 100.386, 323.735 75.351, 274.353 72.330 L 264 71.696 264 63.415 C 264 55.868, 264.187 55.075, 266.111 54.465 C 269.569 53.367, 276.182 46.787, 278.134 42.500 C 279.300 39.942, 279.956 36.158, 279.956 32 C 279.956 23.993, 277.762 18.807, 272.287 13.871 C 266.581 8.727, 259.012 6.637, 251.326 8.084 M 251 27 C 246.672 31.328, 249.868 39, 256 39 C 259.849 39, 263 35.849, 263 32 C 263 28.151, 259.849 25, 256 25 C 254.333 25, 252.111 25.889, 251 27 M 228.500 113.532 C 177.861 121.712, 132.863 151.661, 105.813 195.188 C 95.521 211.750, 87.272 232.445, 82.970 252.500 C 79.917 266.731, 79.113 298.067, 81.401 313.644 C 88.038 358.824, 112.663 400.676, 148.994 428.523 C 164.766 440.612, 187.384 451.975, 206.500 457.413 C 238.369 466.479, 275.474 466.331, 306.805 457.013 C 371.921 437.648, 420.668 381.255, 430.572 313.832 C 432.888 298.062, 432.103 266.822, 429.030 252.500 C 415.671 190.228, 371.328 140.377, 311.598 120.479 C 292.790 114.213, 283.905 112.843, 259.500 112.440 C 243.520 112.177, 235.037 112.476, 228.500 113.532 M 230 131.026 C 196.561 136.965, 169.698 150.624, 145.640 173.920 C 120.111 198.642, 105.054 227.320, 98.950 262.849 C 97.877 269.092, 97 275.504, 97 277.099 C 97 279.899, 97.167 280, 101.826 280 C 107.827 280, 111 282.816, 111 288.140 C 111 293.260, 107.708 296, 101.556 296 L 96.742 296 97.430 303.250 C 100.382 334.349, 113.360 365.332, 133.897 390.309 C 139.433 397.041, 139.503 397.086, 140.079 394.309 C 140.399 392.764, 151.781 375.444, 165.372 355.820 C 192.069 317.273, 192.166 317.169, 198.980 319.992 C 203.916 322.036, 205.314 329.580, 201.575 334 C 200.878 334.825, 196.327 341.318, 191.463 348.429 L 182.619 361.358 195.559 352.444 C 230.393 328.451, 235.521 324.832, 235.797 324.057 C 235.960 323.597, 234.541 322.261, 232.643 321.088 C 228.265 318.382, 222.410 311.928, 220.278 307.456 C 219.086 304.956, 217.976 304, 216.269 304 C 214.971 304, 212.805 302.895, 211.455 301.545 C 208.007 298.098, 208.208 293.470, 212.032 288.271 C 213.699 286.004, 215.774 281.753, 216.643 278.824 C 221.412 262.752, 230.276 253.795, 246.213 248.945 C 250.673 247.587, 263.559 239.166, 304.960 210.556 C 334.128 190.399, 359.400 173.315, 361.120 172.592 L 364.246 171.277 357.873 165.964 C 344.114 154.493, 325.200 143.677, 308.460 137.706 C 299.508 134.512, 280.647 130.316, 271.250 129.427 L 264 128.742 264 133.798 C 264 138.070, 263.591 139.177, 261.365 140.927 C 255.074 145.876, 248 142.043, 248 133.686 L 248 129 244.250 129.081 C 242.188 129.125, 235.775 130.001, 230 131.026 M 371.811 181.556 C 371.534 183.281, 355.887 206.815, 334.035 238.372 C 302.060 284.551, 296.449 293.188, 294.750 298.852 C 290.341 313.548, 281.517 322.350, 266.751 326.780 C 261.062 328.487, 252.622 333.995, 206.189 366.304 C 172.250 389.920, 151.177 403.966, 149.379 404.172 C 146.628 404.488, 146.803 404.729, 154.010 410.574 C 179.560 431.295, 210.587 444.348, 239.750 446.645 L 248 447.295 248 442.758 C 248 436.405, 250.483 433.545, 256 433.545 C 261.517 433.545, 264 436.405, 264 442.759 L 264 447.296 271.825 446.693 C 324.867 442.603, 377.164 405.685, 400.349 355.967 C 408.090 339.366, 413.457 319.857, 414.693 303.825 L 415.296 296 410.759 296 C 404.405 296, 401.545 293.517, 401.545 288 C 401.545 282.483, 404.405 280, 410.759 280 L 415.296 280 414.695 272.197 C 412.371 242.064, 398.022 208.810, 376.392 183.432 L 372.284 178.612 371.811 181.556 M 301.170 234.267 C 278.993 249.482, 275.129 252.487, 276.670 253.321 C 280.923 255.623, 286.035 260.337, 288.794 264.503 L 291.750 268.966 309.946 242.887 C 319.953 228.543, 327.997 216.672, 327.821 216.506 C 327.644 216.340, 315.652 224.333, 301.170 234.267 M 252 265.036 C 241.118 266.922, 232.857 276.634, 232.857 287.544 C 232.857 300.865, 243.135 311.143, 256.456 311.143 C 268.675 311.143, 279.143 300.713, 279.143 288.539 C 279.143 273.834, 266.151 262.584, 252 265.036" stroke="none" fill="#fffcfc" fill-rule="evenodd"/><path d="" stroke="none" fill="#fcfcfc" fill-rule="evenodd"/></svg>