<?xml version="1.0" encoding="UTF-8" standalone="no"?>
<svg
   version="1.0"
   width="512.000000pt"
   height="512.000000pt"
   viewBox="0 0 512.000000 512.000000"
   preserveAspectRatio="xMidYMid meet"
   id="svg14"
   sodipodi:docname="hardware.svg"
   inkscape:version="1.1 (c68e22c387, 2021-05-23)"
   xmlns:inkscape="http://www.inkscape.org/namespaces/inkscape"
   xmlns:sodipodi="http://sodipodi.sourceforge.net/DTD/sodipodi-0.dtd"
   xmlns="http://www.w3.org/2000/svg"
   xmlns:svg="http://www.w3.org/2000/svg">
  <defs
     id="defs18" />
  <sodipodi:namedview
     id="namedview16"
     pagecolor="#505050"
     bordercolor="#eeeeee"
     borderopacity="1"
     inkscape:pageshadow="0"
     inkscape:pageopacity="0"
     inkscape:pagecheckerboard="0"
     inkscape:document-units="pt"
     showgrid="false"
     inkscape:zoom="1.3168945"
     inkscape:cx="340.95365"
     inkscape:cy="341.33333"
     inkscape:window-width="1858"
     inkscape:window-height="1177"
     inkscape:window-x="1974"
     inkscape:window-y="-8"
     inkscape:window-maximized="1"
     inkscape:current-layer="svg14" />
  <g
     transform="translate(0.000000,512.000000) scale(0.100000,-0.100000)"
     fill="#000000"
     stroke="none"
     id="g12">
    <path
       d="M1717 5105 c-299 -57 -553 -225 -715 -473 -88 -135 -149 -296 -167 -444 l-7 -55 -106 -6 c-60 -3 -140 -15 -182 -27 -250 -71 -448 -274 -517 -530 -26 -97 -24 -258 5 -330 46 -115 144 -208 259 -246 53 -17 92 -19 463 -19 l405 0 0 80 0 80 -405 5 c-285 4 -413 9 -432 17 -44 20 -110 85 -129 128 -24 51 -25 165 -3 249 49 191 219 359 414 411 95 25 250 17 371 -21 14 -4 17 13 22 128 7 164 32 273 92 393 124 251 363 436 634 491 103 20 323 15 416 -11 99 -27 253 -108 343 -180 l83 -67 32 26 c140 115 266 186 392 221 93 26 312 31 416 10 307 -62 572 -291 674 -583 34 -97 55 -227 55 -339 0 -85 2 -94 18 -89 122 38 277 46 372 21 146 -39 299 -160 367 -290 63 -120 82 -286 44 -370 -19 -43 -85 -108 -129 -128 -19 -8 -147 -13 -432 -17 l-405 -5 0 -80 0 -80 405 0 c371 0 410 2 463 19 115 38 213 131 259 246 29 72 31 233 5 330 -69 256 -267 459 -517 530 -42 12 -122 24 -182 27 l-106 6 -7 53 c-3 30 -17 93 -30 141 -99 369 -394 659 -772 760 -87 23 -117 26 -263 26 -146 0 -176 -3 -263 -26 -109 -29 -264 -99 -338 -152 -27 -19 -54 -35 -59 -35 -5 0 -32 16 -59 35 -75 54 -230 123 -338 151 -126 33 -329 41 -446 19z"
       id="path2" />
    <path
       d="M2150 4295 l0 -165 -183 0 c-173 0 -187 -1 -227 -23 -68 -36 -90 -86 -90 -209 l0 -98 -165 0 -165 0 0 -85 0 -85 165 0 165 0 0 -80 0 -80 -165 0 -165 0 0 -85 0 -85 165 0 165 0 0 -80 0 -80 -165 0 -165 0 0 -85 0 -85 165 0 165 0 0 -94 c0 -52 5 -107 11 -123 15 -42 68 -92 109 -103 19 -5 113 -10 208 -10 l172 0 0 -165 0 -165 80 0 80 0 0 165 0 165 85 0 85 0 0 -165 0 -165 80 0 80 0 0 165 0 165 85 0 85 0 0 -165 0 -165 80 0 80 0 0 165 0 165 173 0 c94 0 188 5 207 10 45 12 97 65 110 111 6 18 10 73 10 121 l0 88 165 0 165 0 0 85 0 85 -165 0 -165 0 0 80 0 80 165 0 165 0 0 85 0 85 -165 0 -165 0 0 80 0 80 165 0 165 0 0 85 0 85 -165 0 -165 0 0 98 c0 123 -22 173 -90 209 -40 22 -54 23 -227 23 l-183 0 0 165 0 165 -80 0 -80 0 0 -165 0 -165 -85 0 -85 0 0 165 0 165 -80 0 -80 0 0 -165 0 -165 -85 0 -85 0 0 165 0 165 -80 0 -80 0 0 -165z m1150 -910 l0 -575 -740 0 -740 0 0 575 0 575 740 0 740 0 0 -575z"
       id="path4" />
    <path
       d="M1980 3385 l0 -415 580 0 580 0 0 415 0 415 -580 0 -580 0 0 -415z m990 0 l0 -245 -410 0 -410 0 0 245 0 245 410 0 410 0 0 -245z"
       id="path6" />
    <path
       d="M670 2135 c-59 -18 -123 -73 -149 -128 -15 -31 -21 -63 -21 -114 l0 -71 -157 -4 c-152 -3 -160 -4 -211 -32 -59 -33 -96 -76 -117 -137 -21 -59 -21 -1094 -1 -1152 20 -55 61 -103 114 -134 45 -27 53 -28 210 -31 l162 -4 0 -69 c0 -114 45 -188 145 -235 l50 -24 1859 0 c1396 0 1868 3 1898 12 51 15 126 82 149 133 12 27 19 64 19 112 l0 71 163 4 c156 3 164 4 209 31 53 31 94 79 114 134 20 58 20 1093 -1 1152 -21 61 -58 104 -117 137 -51 28 -59 29 -210 32 l-158 4 0 71 c0 120 -65 210 -174 242 -73 22 -3706 21 -3776 0z m3761 -174 l24 -19 3 -861 2 -862 -24 -24 -25 -25 -1851 0 -1851 0 -25 25 -24 24 2 862 3 861 24 19 c23 19 67 19 1871 19 1804 0 1848 0 1871 -19z m-3931 -886 l0 -575 -143 0 c-130 0 -145 2 -165 20 l-22 21 0 534 0 534 26 20 c24 19 40 21 165 21 l139 0 0 -575z m4424 554 l26 -20 0 -533 c0 -522 0 -533 -20 -554 -20 -21 -30 -22 -165 -22 l-145 0 0 575 0 575 139 0 c125 0 141 -2 165 -21z"
       id="path8" />
    <path
       d="M937 1806 c-21 -8 -47 -22 -59 -33 -49 -44 -48 -30 -48 -701 l0 -629 23 -33 c12 -18 35 -43 50 -54 l28 -21 1629 0 1629 0 28 21 c15 11 38 36 50 54 l23 33 0 632 0 632 -23 33 c-12 19 -38 43 -57 54 -35 21 -41 21 -1635 23 -1332 2 -1606 0 -1638 -11z m888 -319 l0 -164 30 -49 c19 -30 49 -60 79 -79 l49 -30 577 0 577 0 49 30 c30 19 60 49 79 79 l30 49 0 164 0 163 418 0 417 0 0 -575 0 -575 -85 0 -85 0 0 101 c0 120 -14 158 -73 197 -34 23 -53 27 -135 30 -153 7 -216 -15 -261 -89 -18 -29 -21 -50 -21 -136 l0 -103 -85 0 -85 0 0 101 c0 120 -14 158 -73 197 -39 26 -46 27 -171 27 -118 0 -135 -2 -166 -22 -62 -38 -80 -85 -80 -202 l0 -101 -85 0 -85 0 0 100 c0 119 -17 164 -77 201 -35 22 -49 24 -169 24 -125 0 -132 -1 -171 -27 -59 -39 -73 -77 -73 -197 l0 -101 -580 0 -580 0 0 575 0 575 418 0 417 0 0 -163z m1276 150 c31 -24 39 -56 39 -157 0 -99 -1 -102 -29 -131 l-29 -29 -522 0 -522 0 -29 29 c-28 29 -29 32 -29 131 0 101 8 133 39 157 23 18 1059 18 1082 0z m-621 -1057 l0 -80 -85 0 -85 0 0 80 0 80 85 0 85 0 0 -80z m660 0 l0 -80 -85 0 -85 0 0 80 0 80 85 0 85 0 0 -80z m660 0 l0 -80 -85 0 -85 0 0 80 0 80 85 0 85 0 0 -80z"
       id="path10" />
  </g>
  <path
     style="fill:#ffffff;fill-rule:evenodd;stroke-width:1.43502"
     d="m 53.155358,285.13467 c -11.513303,-0.60399 -14.680906,-1.36346 -22.401187,-5.37094 -14.619986,-7.589 -25.9880769,-22.04354 -28.5253419,-36.27 -1.32579573,-7.43374 -1.33426893,-23.897 -0.016085,-31.25198 3.1773091,-17.72821 13.4419259,-36.67555 27.3567899,-50.49759 8.552003,-8.49495 16.270413,-14.11174 26.083342,-18.98119 12.646175,-6.27539 23.598915,-8.85534 43.387295,-10.22002 11.535849,-0.79557 12.173309,-1.03845 12.194769,-4.64644 0.0245,-4.11718 2.55716,-16.61739 4.98891,-24.62324 15.30475,-50.386592 54.27851,-86.88932 106.26929,-99.5315619 21.21815,-5.1594724 53.6326,-3.47843263 74.76534,3.877391 14.37851,5.0048319 25.62251,10.4412359 37.14819,17.9609149 3.08153,2.010488 6.19854,3.655433 6.92666,3.655433 0.72813,0 3.84513,-1.644945 6.92667,-3.655433 11.81222,-7.706631 23.03437,-13.085729 38.23494,-18.3271097 15.42023,-5.3171208 18.5705,-5.7342356 43.3041,-5.7337269 l 22.0215,4.53e-4 9.75198,2.5190875 c 42.52743,10.9854941 76.70867,38.0577291 95.61807,75.7314441 5.91956,11.793716 12.76608,34.129518 13.92302,45.421928 0.27514,2.68552 0.73841,5.2681 1.0295,5.73908 0.31497,0.50964 4.96402,1.16217 11.48339,1.61178 19.78838,1.36468 30.74111,3.94463 43.38729,10.22002 19.14296,9.49927 35.41673,25.89108 45.2308,45.55887 6.70548,13.43808 9.30341,24.8022 9.25654,40.49099 -0.0364,12.20061 -1.40576,19.16146 -5.20335,26.45101 -5.70791,10.95649 -13.68392,18.94402 -24.57904,24.61455 -10.41827,5.42235 -9.7975,5.37046 -69.47773,5.80722 l -53.3452,0.39039 v -10.59519 -10.5952 l 43.09381,-0.51917 c 23.70159,-0.28555 48.71312,-0.84287 55.58116,-1.2385 l 12.48736,-0.71932 4.05122,-2.79018 c 4.78604,-3.29627 11.10642,-10.01074 13.06085,-13.8752 5.52102,-10.91669 3.33761,-33.13478 -4.85935,-49.4481 -5.0404,-10.03125 -16.02479,-21.97966 -26.74003,-29.08685 -6.6477,-4.40927 -16.49584,-9.08453 -22.6372,-10.74668 -10.34551,-2.8 -29.00029,-2.28342 -43.94568,1.21691 -5.59987,1.31154 -6.8475,1.40329 -7.39214,0.54366 -0.36038,-0.56881 -0.66047,-4.6714 -0.66687,-9.11688 -0.0489,-33.99406 -9.99495,-62.166341 -30.12131,-85.318871 -17.33025,-19.936011 -43.64622,-35.075041 -68.88964,-39.630781 -9.25783,-1.670782 -34.93675,-1.668389 -45.65918,0.0043 -17.70688,2.762183 -39.03487,13.493384 -58.61282,29.491104 -6.60887,5.400298 -5.17216,5.622075 -15.27527,-2.35796 C 323.62471,44.384979 313.95939,38.349098 303.7449,33.41661 285.51025,24.611249 277.27847,22.940971 252.10827,22.939226 c -12.80889,-9.11e-4 -18.12309,0.298993 -22.78087,1.285528 -42.63234,9.029684 -78.42585,41.093181 -91.41582,81.889456 -3.25548,10.22418 -4.51887,18.17327 -5.74873,36.17047 -0.58148,8.50913 -1.36456,15.77847 -1.74018,16.15409 -0.40435,0.40435 -3.29328,0.0694 -7.08191,-0.82107 -12.79669,-3.00775 -27.81535,-3.91339 -37.862867,-2.28318 -13.762057,2.23289 -27.510128,9.42355 -39.019597,20.40844 -14.869894,14.19216 -22.707214,30.33654 -23.816335,49.06015 -0.506646,8.55293 0.555193,16.45695 2.802688,20.8624 2.014273,3.94831 8.304044,10.64115 13.112655,13.95297 l 4.051224,2.79018 12.487357,0.71932 c 6.868045,0.39563 31.879569,0.95295 55.581165,1.2385 l 43.09381,0.51917 v 10.50714 10.50714 l -45.3719,-0.12367 c -24.95454,-0.068 -49.814162,-0.35671 -55.243602,-0.64155 z"
     id="path909"
     transform="scale(0.75)" />
  <path
     style="fill:#ffffff;fill-rule:evenodd;stroke-width:1.43502"
     d="m 286.65925,352.34409 v -21.64183 l -10.82091,-0.0326 c -5.9515,-0.0179 -17.34792,-0.3245 -25.32538,-0.6813 -16.11308,-0.72067 -17.03612,-0.97674 -22.85513,-6.34051 -6.10711,-5.62934 -6.60597,-7.29511 -6.92699,-23.13028 l -0.28095,-13.85835 h -21.94908 -21.94909 v -10.9991 -10.99911 l 21.83167,-0.20149 21.83166,-0.20149 0.21069,-10.82091 0.21069,-10.82091 h -22.04235 -22.04236 v -10.9991 -10.99912 l 21.83167,-0.20148 21.83166,-0.20149 0.21069,-10.82091 0.21069,-10.82091 h -22.04235 -22.04236 v -10.9991 -10.99912 l 21.83167,-0.20148 21.83166,-0.20149 0.37968,-13.72329 c 0.37142,-13.42453 0.42967,-13.8213 2.67538,-18.2247 2.69665,-5.28758 8.37132,-9.63352 14.25781,-10.9193 2.08901,-0.4563 13.35087,-0.79604 26.38784,-0.79604 h 22.74349 v -22.0215 -22.021507 h 10.63107 10.63107 v 22.021507 22.0215 h 11.39044 11.39043 v -22.0215 -22.021507 h 10.63107 10.63107 v 22.021507 22.0215 h 11.39044 11.39043 v -22.0215 -22.021507 h 10.63107 10.63108 v 22.021507 22.0215 h 22.74349 c 13.03696,0 24.29883,0.33974 26.38784,0.79604 5.88648,1.28578 11.56116,5.63172 14.2578,10.9193 2.24572,4.4034 2.30397,4.80017 2.67538,18.2247 l 0.37968,13.72329 21.83167,0.20149 21.83166,0.20148 v 10.99912 10.9991 h -22.04235 -22.04235 l 0.21068,10.82091 0.21069,10.82091 21.83167,0.20149 21.83166,0.20148 v 10.99912 10.9991 h -22.04235 -22.04235 l 0.21068,10.82091 0.21069,10.82091 21.83167,0.20149 21.83166,0.20149 v 10.99911 10.9991 h -21.94775 -21.94774 l -0.2636,13.47868 c -0.24171,12.35962 -0.41095,13.76239 -2.03844,16.89581 -2.24055,4.31376 -5.66839,7.94498 -9.80746,10.38937 -3.01094,1.77815 -4.2177,1.95131 -17.84501,2.56057 -8.03864,0.3594 -19.48511,0.6681 -25.43661,0.68601 l -10.82091,0.0326 v 21.64183 21.64182 H 385.37634 374.74527 V 352.34409 330.70226 H 363.35484 351.9644 v 21.64183 21.64182 h -10.63107 -10.63107 v -21.64182 -21.64183 h -11.39043 -11.39044 v 21.64183 21.64182 h -10.63107 -10.63107 z m 153.39118,-120.7386 v -77.07527 h -98.7171 -98.71709 v 77.07527 77.07527 h 98.71709 98.7171 z"
     id="path948"
     transform="scale(0.75)" />
  <path
     style="fill:#ffffff;fill-rule:evenodd;stroke-width:1.43502"
     d="m 264.63775,231.60549 v -55.05377 h 76.69558 76.69559 v 55.05377 55.05376 h -76.69559 -76.69558 z m 131.36967,0 v -33.03226 h -54.67409 -54.67408 v 33.03226 33.03226 h 54.67408 54.67409 z"
     id="path987"
     transform="scale(0.75)" />
  <path
     style="fill:#ffffff;fill-rule:evenodd;stroke-width:1.43502"
     d="m 86.398028,679.33538 c -7.206401,-3.82558 -10.379632,-6.31248 -13.526685,-10.60102 -3.94106,-5.37056 -5.166212,-9.85381 -5.634525,-20.61868 l -0.41294,-9.49202 -20.123099,-0.48493 C 35.633074,637.87202 25.181279,637.2759 23.474569,636.81401 16.337447,634.88251 8.1483458,627.87983 3.9011685,620.07636 2.0019905,616.58694 1.800565,615.3284 1.1344007,602.78903 0.2137626,585.45966 0.2119601,496.52462 1.1318651,477.68223 c 0.6754282,-13.83478 0.7912553,-14.56527 3.0308008,-19.11444 2.8634192,-5.81643 8.8013901,-11.43974 15.6293311,-14.80113 4.914594,-2.41944 5.041077,-2.43797 20.672829,-3.02885 8.65039,-0.32697 18.171874,-0.6154 21.158853,-0.64094 l 5.430872,-0.0464 0.27381,-10.06155 c 0.245965,-9.03836 0.484133,-10.51257 2.342029,-14.49658 2.588974,-5.55172 9.530964,-12.48087 15.362251,-15.33386 l 4.311477,-2.10941 25.948632,-0.7377 c 34.07037,-0.96859 420.85352,-0.96735 453.14212,10e-4 l 24.7315,0.74206 5.0616,2.49182 c 6.29744,3.10022 11.22879,8.24477 14.41154,15.03459 2.21077,4.71629 2.41643,5.84341 2.69818,14.78731 l 0.305,9.68187 5.41558,0.0464 c 2.97858,0.0255 12.49318,0.31397 21.14357,0.64095 15.63175,0.59087 15.75824,0.6094 20.67283,3.02885 6.80752,3.35133 12.76735,8.98698 15.60664,14.75776 2.22711,4.52651 2.33099,5.20518 3.04212,19.87379 0.93639,19.31502 0.94564,105.68185 0.0133,123.99657 -0.66026,12.96978 -0.84315,14.13909 -2.76328,17.66701 -4.25517,7.81815 -12.43853,14.81917 -19.58133,16.75221 -1.70671,0.46189 -12.1585,1.05801 -23.22621,1.32472 l -20.1231,0.48493 -0.41238,10.30219 c -0.36731,9.17602 -0.63646,10.76018 -2.4622,14.49185 -2.3494,4.80201 -9.64552,12.174 -15.33233,15.49179 l -3.77904,2.20476 -27.35482,0.52352 c -15.04516,0.28793 -127.98931,0.54281 -250.98701,0.56638 l -223.632187,0.0429 -5.484805,-2.91165 z m 505.491232,-22.45278 3.32005,-3.38288 -0.52879,-114.83964 c -0.40739,-88.47624 -0.74103,-115.0956 -1.45337,-115.95462 -2.82783,-3.41014 -2.9849,-3.41972 -65.47038,-3.99152 -75.61724,-0.69198 -296.61957,-0.69227 -373.22655,-5e-4 -62.127277,0.56101 -62.251904,0.56866 -65.092974,3.99476 -0.715365,0.86267 -1.04707,27.32226 -1.453624,115.95437 l -0.526762,114.83664 3.320296,3.38314 3.320296,3.38313 H 341.33333 588.56921 Z M 67.017334,539.33704 66.823878,462.45161 54.446738,462.24278 c -17.602664,-0.297 -24.991037,0.55435 -28.915315,3.33183 l -3.097809,2.19254 -0.01621,71.42782 -0.01621,71.42783 2.167464,2.07656 c 1.192106,1.14211 3.156956,2.37266 4.366333,2.73456 1.209378,0.36191 10.316179,0.68738 20.237337,0.72328 l 18.038468,0.0653 z m 588.951386,75.13715 c 1.14756,-0.75273 2.49716,-2.29043 2.99912,-3.41713 0.68452,-1.53646 0.96343,-19.70178 1.11574,-72.66922 l 0.20308,-70.62069 -3.12461,-2.19254 c -3.95795,-2.77728 -11.35295,-3.6286 -28.94212,-3.33183 l -12.37714,0.20883 -0.19346,76.93285 -0.19347,76.93284 19.2132,-0.23726 c 16.98234,-0.2097 19.45547,-0.39616 21.29966,-1.60585 z"
     id="path1026"
     transform="scale(0.75)" />
  <path
     style="fill:#ffffff;fill-rule:evenodd;stroke-width:1.43502"
     d="m 119.65039,633.96898 c -2.15063,-1.9336 -4.93663,-5.00745 -6.19111,-6.83078 l -2.28088,-3.31514 0.25793,-83.72317 c 0.20313,-65.93854 0.46702,-84.3684 1.2423,-86.76062 1.29963,-4.01026 4.80671,-7.56847 9.94889,-10.09394 l 4.18598,-2.05586 188.8399,-0.21681 c 185.22952,-0.21266 239.33997,0.24729 243.99658,2.07405 2.67339,1.04875 6.51843,4.53746 9.5863,8.69792 l 2.18382,2.96155 v 84.60797 84.60799 l -2.2468,3.2656 c -1.23574,1.79609 -4.0064,4.84764 -6.15703,6.78124 l -3.91023,3.51563 H 341.33333 123.56062 Z m 167.23147,-30.46583 c 0.5507,-15.42468 1.64151,-19.79653 5.9687,-23.92181 6.34255,-6.04659 7.2562,-6.26284 26.46127,-6.26284 h 17.08565 l 4.17649,2.35576 c 5.2287,2.94925 8.70351,7.38752 9.87182,12.609 0.49463,2.21061 1.08714,9.40128 1.31668,15.97925 l 0.41735,11.95996 h 11.1715 11.17149 l 0.43634,-12.71932 c 0.52952,-15.43541 1.55346,-19.46428 6.10115,-24.00598 5.94916,-5.94131 6.9609,-6.17867 26.33755,-6.17867 16.35579,0 17.22486,0.0743 20.34445,1.74007 5.08198,2.71358 9.02363,7.11821 10.34161,11.55628 0.69933,2.35494 1.36045,8.95872 1.67664,16.74781 l 0.52203,12.85981 h 11.18968 11.18968 l 0.32358,-13.47868 c 0.36533,-15.21765 0.82558,-16.97554 5.88019,-22.45916 3.97599,-4.31343 9.01943,-6.4637 17.5173,-7.46848 8.82302,-1.04322 25.11309,0.0974 28.87178,2.02167 4.68949,2.40074 8.16789,5.65029 9.97429,9.31806 1.62442,3.29831 1.78956,4.74919 2.02929,17.82855 l 0.26097,14.23804 h 11.69899 11.69899 V 539.1472 462.07193 h -55.81313 -55.81313 v 21.73923 21.73923 l -2.42837,4.26893 c -3.10504,5.45848 -9.67092,12.02435 -15.12939,15.12939 l -4.26893,2.42838 h -76.13104 -76.13104 l -4.26892,-2.42838 c -5.45848,-3.10504 -12.02436,-9.67091 -15.1294,-15.12939 l -2.42837,-4.26893 v -21.73923 -21.73923 h -55.81312 -55.81313 v 77.07527 77.07527 h 77.3392 77.33919 z m 43.8204,1.70857 v -11.01076 h -11.39043 -11.39044 v 11.01076 11.01075 h 11.39044 11.39043 z m 88.08602,0 v -11.01076 h -11.39043 -11.39043 v 11.01076 11.01075 h 11.39043 11.39043 z m 88.08602,-0.0198 V 594.1614 l -11.58027,0.20961 -11.58027,0.20962 -0.21365,9.83155 c -0.1175,5.40736 -0.0428,10.27677 0.16601,10.82091 0.28864,0.7522 3.11591,0.98937 11.79392,0.98937 l 11.41426,-4e-5 v -11.03048 z m -92.88898,-101.5449 c 1.70877,-1.77501 3.48848,-3.97368 3.95492,-4.88594 1.42457,-2.78622 1.0409,-24.17144 -0.51408,-28.65406 -2.42415,-6.9882 -0.44504,-6.62371 -40.72749,-7.50083 -23.90428,-0.5205 -46.82639,-0.5205 -70.73067,0 -40.28246,0.87712 -38.30335,0.51263 -40.7275,7.50083 -1.55497,4.48262 -1.93864,25.86784 -0.51407,28.65406 0.46643,0.91226 2.24614,3.11093 3.95492,4.88594 l 3.10687,3.22728 h 69.54511 69.54512 z"
     id="path1065"
     transform="scale(0.75)" />
</svg>
