<?xml version="1.0" encoding="UTF-8"?>
<!DOCTYPE svg PUBLIC "-//W3C//DTD SVG 1.1//EN" "http://www.w3.org/Graphics/SVG/1.1/DTD/svg11.dtd">
<svg xmlns="http://www.w3.org/2000/svg" version="1.1" width="512px" height="512px" style="shape-rendering:geometricPrecision; text-rendering:geometricPrecision; image-rendering:optimizeQuality; fill-rule:evenodd; clip-rule:evenodd" xmlns:xlink="http://www.w3.org/1999/xlink">
<g><path style="opacity:1" fill="#fefffe" d="M 12.5,6.5 C 54.8346,6.33334 97.168,6.50001 139.5,7C 147.5,12.3333 147.5,17.6667 139.5,23C 100.835,23.5 62.1681,23.6667 23.5,23.5C 23.6666,54.1685 23.5,84.8351 23,115.5C 22.2155,117.286 21.0488,118.786 19.5,120C 15.0906,121.262 11.2572,120.428 8,117.5C 6.34712,82.585 6.01378,47.585 7,12.5C 8.02088,9.64986 9.85422,7.64986 12.5,6.5 Z"/></g>
<g><path style="opacity:1" fill="#fefffe" d="M 371.5,6.5 C 413.835,6.33334 456.168,6.50001 498.5,7C 501.333,7.83333 503.167,9.66667 504,12.5C 504.667,46.8333 504.667,81.1667 504,115.5C 503.215,117.286 502.049,118.786 500.5,120C 497.5,120.667 494.5,120.667 491.5,120C 489.951,118.786 488.785,117.286 488,115.5C 487.5,84.8351 487.333,54.1685 487.5,23.5C 448.832,23.6667 410.165,23.5 371.5,23C 363.605,17.5115 363.605,12.0115 371.5,6.5 Z"/></g>
<g><path style="opacity:1" fill="#fefffe" d="M 221.5,17.5 C 234.309,16.8942 246.975,17.8942 259.5,20.5C 299.956,12.2607 332.123,24.9273 356,58.5C 372.086,87.0993 373.253,116.266 359.5,146C 363,157.833 366.5,169.667 370,181.5C 371.379,188.961 368.212,192.627 360.5,192.5C 347.471,189.628 334.471,186.628 321.5,183.5C 308.212,188.947 294.378,191.947 280,192.5C 271.191,192.099 262.524,190.765 254,188.5C 231.529,193.249 210.029,190.582 189.5,180.5C 176.875,183.092 164.209,185.425 151.5,187.5C 143.556,187.308 140.723,183.308 143,175.5C 147.265,164.205 151.432,152.872 155.5,141.5C 139.007,100.975 147.007,66.1414 179.5,37C 191.929,26.9499 205.929,20.4499 221.5,17.5 Z M 230.5,33.5 C 270.189,36.0224 294.355,56.6891 303,95.5C 305.512,132.963 289.345,158.463 254.5,172C 232.554,178.194 212.054,175.028 193,162.5C 183.197,165.299 173.363,166.965 163.5,167.5C 167.072,159.025 170.072,150.359 172.5,141.5C 170.346,135.854 168.179,130.187 166,124.5C 157.462,85.0781 171.295,56.5781 207.5,39C 215.077,36.1899 222.743,34.3565 230.5,33.5 Z M 348.5,172.5 C 338.999,170.566 329.499,168.566 320,166.5C 313.702,168.229 307.536,170.396 301.5,173C 295.267,174.937 288.934,175.937 282.5,176C 318.859,147.745 329.026,111.912 313,68.5C 307.109,55.6099 298.609,44.7765 287.5,36C 315.501,38.0868 335.335,51.9201 347,77.5C 353.385,93.6083 354.052,109.942 349,126.5C 346.354,132.957 343.854,139.457 341.5,146C 344.073,154.791 346.406,163.625 348.5,172.5 Z"/></g>
<g><path style="opacity:1" fill="#fefffe" d="M 205.5,77.5 C 221.17,77.3334 236.837,77.5001 252.5,78C 256.277,80.9109 257.444,84.7442 256,89.5C 255.5,91.3333 254.333,92.5 252.5,93C 236.833,93.6667 221.167,93.6667 205.5,93C 200.291,87.9101 200.291,82.7434 205.5,77.5 Z"/></g>
<g><path style="opacity:1" fill="#fefffe" d="M 189.5,115.5 C 215.835,115.333 242.169,115.5 268.5,116C 274.63,120.601 274.964,125.601 269.5,131C 242.833,131.667 216.167,131.667 189.5,131C 186.484,129.471 185.151,126.971 185.5,123.5C 185.282,119.934 186.616,117.268 189.5,115.5 Z"/></g>
<g><path style="opacity:1" fill="#fefffe" d="M 93.5,182.5 C 121.517,179.239 139.684,190.905 148,217.5C 150.772,241.78 142.272,260.946 122.5,275C 101.95,284.272 84.4497,280.105 70,262.5C 55.8466,242.508 54.5133,221.841 66,200.5C 73.1334,191.353 82.3,185.353 93.5,182.5 Z M 98.5,198.5 C 118.689,198.192 130.022,208.025 132.5,228C 131.413,241.514 125.413,252.181 114.5,260C 106.323,264.814 98.3231,264.48 90.5,259C 74.3783,245.367 70.8783,229.201 80,210.5C 85.0328,204.578 91.1995,200.578 98.5,198.5 Z"/></g>
<g><path style="opacity:1" fill="#fefffe" d="M 397.5,182.5 C 430.427,179.944 449.094,194.944 453.5,227.5C 452.274,247.861 443.274,263.694 426.5,275C 403.243,284.694 384.743,278.86 371,257.5C 360.515,239.472 359.848,221.139 369,202.5C 376.19,192.466 385.69,185.799 397.5,182.5 Z M 403.5,198.5 C 422.967,198.638 433.967,208.305 436.5,227.5C 435.561,241.218 429.561,252.052 418.5,260C 406.439,265.766 396.273,263.266 388,252.5C 377.275,239.315 375.941,225.315 384,210.5C 389.269,204.292 395.769,200.292 403.5,198.5 Z"/></g>
<g><path style="opacity:1" fill="#fefffe" d="M 73.5,281.5 C 76.6492,281.211 79.6492,281.711 82.5,283C 86.1667,290.667 91.8333,296.333 99.5,300C 103.782,300.965 107.782,300.298 111.5,298C 116.867,292.968 121.867,287.635 126.5,282C 162.564,283.29 183.397,301.79 189,337.5C 189.667,345.5 189.667,353.5 189,361.5C 188.333,362.833 187.667,364.167 187,365.5C 181.817,368.174 176.317,370.007 170.5,371C 121.158,382.311 71.825,382.311 22.5,371C 20.9512,369.786 19.7845,368.286 19,366.5C 18.3333,355.5 18.3333,344.5 19,333.5C 25.3916,303.604 43.5582,286.271 73.5,281.5 Z M 70.5,298.5 C 75.9017,302.72 81.235,307.22 86.5,312C 97.8513,319.329 109.185,319.329 120.5,312C 125.655,307.845 130.489,303.345 135,298.5C 162.677,305.863 175.01,323.863 172,352.5C 139.798,361.549 106.965,364.716 73.5,362C 60.6776,361.14 48.011,359.307 35.5,356.5C 31.6028,327.465 43.2694,308.131 70.5,298.5 Z"/></g>
<g><path style="opacity:1" fill="#fefffe" d="M 376.5,281.5 C 379.649,281.211 382.649,281.711 385.5,283C 389.378,289.454 394.378,294.788 400.5,299C 406.781,301.531 412.447,300.531 417.5,296C 421.522,290.98 425.856,286.314 430.5,282C 458.308,282.157 477.808,294.99 489,320.5C 493.601,334.929 494.601,349.596 492,364.5C 490.681,366.487 488.848,367.654 486.5,368C 432.608,382.378 378.608,383.045 324.5,370C 323.107,368.829 322.273,367.329 322,365.5C 318.981,345.786 321.981,327.119 331,309.5C 342.08,293.383 357.247,284.05 376.5,281.5 Z M 373.5,298.5 C 374.552,298.351 375.552,298.517 376.5,299C 383.832,309.499 393.832,315.666 406.5,317.5C 412.18,317.198 417.513,315.698 422.5,313C 428.656,308.84 434.156,304.007 439,298.5C 465.873,306.396 478.206,324.396 476,352.5C 443.783,361.505 410.95,364.671 377.5,362C 364.676,361.144 352.009,359.311 339.5,356.5C 334.963,327.542 346.297,308.208 373.5,298.5 Z"/></g>
<g><path style="opacity:1" fill="#fefffe" d="M 246.5,296.5 C 273.759,294.031 291.592,305.698 300,331.5C 302.889,355.87 294.389,375.037 274.5,389C 250.617,398.706 231.783,392.54 218,370.5C 208.88,353.449 208.214,336.116 216,318.5C 223.276,307.043 233.443,299.709 246.5,296.5 Z M 251.5,312.5 C 270.94,312.608 281.94,322.275 284.5,341.5C 283.561,355.218 277.561,366.052 266.5,374C 258.323,378.814 250.323,378.48 242.5,373C 226.448,359.4 222.948,343.233 232,324.5C 237.269,318.292 243.769,314.292 251.5,312.5 Z"/></g>
<g><path style="opacity:1" fill="#fefffe" d="M 10.5,390.5 C 13.5184,390.335 16.5184,390.502 19.5,391C 21.0488,392.214 22.2155,393.714 23,395.5C 23.5,426.165 23.6666,456.832 23.5,487.5C 62.1681,487.333 100.835,487.5 139.5,488C 147.5,493.333 147.5,498.667 139.5,504C 97.1667,504.667 54.8333,504.667 12.5,504C 9.66667,503.167 7.83333,501.333 7,498.5C 6.33333,464.167 6.33333,429.833 7,395.5C 7.99728,393.677 9.16394,392.01 10.5,390.5 Z"/></g>
<g><path style="opacity:1" fill="#fefffe" d="M 491.5,390.5 C 494.518,390.335 497.518,390.502 500.5,391C 502.049,392.214 503.215,393.714 504,395.5C 504.667,429.833 504.667,464.167 504,498.5C 503.167,501.333 501.333,503.167 498.5,504C 456.167,504.667 413.833,504.667 371.5,504C 363.5,498.667 363.5,493.333 371.5,488C 410.165,487.5 448.832,487.333 487.5,487.5C 487.333,456.832 487.5,426.165 488,395.5C 488.997,393.677 490.164,392.01 491.5,390.5 Z"/></g>
<g><path style="opacity:1" fill="#fefffe" d="M 224.5,395.5 C 227.649,395.211 230.649,395.711 233.5,397C 247.641,420.285 261.975,420.285 276.5,397C 298.888,394.94 316.722,403.107 330,421.5C 340.776,439.156 344.11,458.156 340,478.5C 338.681,480.487 336.848,481.654 334.5,482C 280.603,496.398 226.603,497.065 172.5,484C 171.299,483.097 170.465,481.931 170,480.5C 169.333,470.167 169.333,459.833 170,449.5C 175.515,418.483 193.682,400.483 224.5,395.5 Z M 221.5,412.5 C 225.488,414.966 229.155,418.132 232.5,422C 244.043,432.356 256.71,434.023 270.5,427C 276.632,423.034 281.966,418.2 286.5,412.5C 313.639,420.165 326.139,438.165 324,466.5C 291.452,475.571 258.286,478.738 224.5,476C 212.091,474.894 199.758,473.227 187.5,471C 182.767,441.947 194.1,422.447 221.5,412.5 Z"/></g>
</svg>
