<?xml version="1.0" encoding="UTF-8" standalone="no"?>
<svg
   version="1.0"
   width="512.000000pt"
   height="512.000000pt"
   viewBox="0 0 512.000000 512.000000"
   preserveAspectRatio="xMidYMid meet"
   id="svg22"
   sodipodi:docname="outsourcing.svg"
   inkscape:version="1.1 (c68e22c387, 2021-05-23)"
   xmlns:inkscape="http://www.inkscape.org/namespaces/inkscape"
   xmlns:sodipodi="http://sodipodi.sourceforge.net/DTD/sodipodi-0.dtd"
   xmlns="http://www.w3.org/2000/svg"
   xmlns:svg="http://www.w3.org/2000/svg">
  <defs
     id="defs26" />
  <sodipodi:namedview
     id="namedview24"
     pagecolor="#505050"
     bordercolor="#eeeeee"
     borderopacity="1"
     inkscape:pageshadow="0"
     inkscape:pageopacity="0"
     inkscape:pagecheckerboard="0"
     inkscape:document-units="pt"
     showgrid="false"
     inkscape:zoom="1.3168945"
     inkscape:cx="340.95365"
     inkscape:cy="341.33333"
     inkscape:window-width="1858"
     inkscape:window-height="1177"
     inkscape:window-x="1974"
     inkscape:window-y="-8"
     inkscape:window-maximized="1"
     inkscape:current-layer="svg22" />
  <g
     transform="translate(0.000000,512.000000) scale(0.100000,-0.100000)"
     fill="#000000"
     stroke="none"
     id="g20">
    <path
       d="M2430 5074 c-75 -20 -129 -54 -183 -114 -61 -68 -88 -141 -94 -255 -9 -160 28 -275 118 -365 39 -39 49 -56 49 -83 l0 -34 -82 -22 c-110 -30 -162 -56 -199 -99 -59 -66 -69 -103 -69 -249 0 -127 1 -133 26 -162 14 -17 42 -35 62 -41 50 -13 954 -13 1004 0 20 6 48 24 62 41 25 29 26 35 26 162 0 146 -10 183 -69 249 -37 43 -89 69 -199 99 -81 22 -82 22 -82 55 0 25 10 43 48 81 56 58 99 141 113 221 16 82 6 225 -20 294 -26 67 -95 148 -158 185 -88 51 -240 67 -353 37z m265 -161 c82 -43 117 -105 123 -219 6 -112 -15 -181 -75 -245 -59 -63 -110 -83 -202 -77 -59 3 -77 9 -119 38 -91 62 -128 151 -120 288 7 121 60 198 155 229 58 19 189 11 238 -14z m-45 -732 c0 -24 -8 -48 -21 -65 -17 -22 -28 -26 -69 -26 -41 0 -52 4 -69 26 -13 17 -21 41 -21 65 l0 39 90 0 90 0 0 -39z m-286 -150 c42 -60 108 -91 196 -91 88 0 154 31 196 91 15 22 30 39 35 39 4 0 44 -11 88 -25 108 -34 121 -53 121 -169 l0 -86 -440 0 -440 0 0 88 c0 113 14 133 120 167 41 13 80 24 86 24 6 1 23 -16 38 -38z"
       id="path2" />
    <path
       d="M470 4167 c-114 -33 -202 -105 -248 -205 -24 -50 -27 -72 -30 -184 -5 -177 19 -249 120 -354 40 -41 49 -57 46 -79 -3 -27 -10 -31 -113 -64 -120 -39 -155 -61 -197 -123 -39 -58 -48 -98 -48 -223 0 -91 3 -115 20 -142 36 -60 19 -58 575 -58 478 0 513 1 539 18 42 28 56 73 56 185 0 133 -18 191 -80 255 -43 46 -57 54 -161 87 -107 35 -114 39 -117 65 -3 22 6 38 41 74 62 64 82 97 107 171 19 56 21 82 18 190 -3 114 -6 130 -32 184 -39 79 -102 140 -182 178 -56 26 -79 31 -167 34 -66 3 -118 -1 -147 -9z m226 -152 c58 -17 109 -63 135 -120 21 -46 26 -194 9 -257 -28 -101 -134 -178 -244 -178 -106 0 -192 55 -235 150 -16 36 -21 66 -21 150 0 98 2 108 30 156 29 51 74 88 128 104 44 13 145 11 198 -5z m-16 -750 c0 -62 -24 -85 -89 -85 -60 0 -81 22 -81 87 l0 43 85 0 85 0 0 -45z m-300 -115 c0 -20 66 -84 105 -101 54 -25 166 -25 220 0 37 17 81 58 103 98 8 13 17 13 81 -6 129 -36 154 -67 149 -184 l-3 -72 -443 -3 -444 -2 4 90 c3 81 6 92 29 116 15 14 57 37 95 49 76 26 104 30 104 15z"
       id="path4" />
    <path
       d="M4414 4170 c-108 -23 -209 -103 -260 -206 -26 -54 -29 -70 -32 -184 -5 -177 21 -252 125 -361 35 -36 44 -52 41 -74 -3 -27 -10 -31 -117 -65 -104 -34 -118 -41 -162 -87 -62 -65 -79 -122 -79 -262 0 -115 14 -155 62 -183 34 -19 1032 -19 1066 0 49 28 62 67 62 192 -1 121 -11 167 -50 223 -39 56 -81 81 -194 118 -104 34 -111 38 -114 64 -3 22 7 38 46 79 101 105 125 177 120 354 -3 112 -6 134 -29 182 -40 84 -90 135 -175 176 -68 34 -82 37 -172 40 -53 2 -116 -1 -138 -6z m262 -176 c35 -21 56 -44 76 -83 25 -48 28 -63 28 -155 -1 -149 -39 -222 -145 -272 -107 -51 -241 -19 -312 74 -42 56 -53 98 -53 207 0 103 17 150 71 203 47 45 106 62 206 59 70 -3 89 -8 129 -33z m-66 -727 c0 -65 -21 -87 -81 -87 -65 0 -89 23 -89 85 l0 45 85 0 85 0 0 -43z m-275 -150 c43 -60 102 -87 190 -87 46 0 84 7 110 19 38 17 98 74 107 102 3 10 20 8 79 -9 126 -38 149 -65 149 -185 l0 -77 -442 2 -443 3 -3 72 c-3 80 11 122 52 148 22 15 138 53 161 54 6 0 24 -19 40 -42z"
       id="path6" />
    <path
       d="M2514 3419 c-17 -19 -19 -38 -19 -211 0 -187 0 -190 24 -209 30 -25 76 -24 101 1 19 19 20 33 20 208 0 217 -5 232 -69 232 -26 0 -44 -7 -57 -21z"
       id="path8" />
    <path
       d="M1462 3027 c-28 -30 -28 -72 1 -100 17 -17 66 -31 231 -66 l208 -43 27 19 c39 30 42 101 3 122 -21 11 -394 91 -426 91 -12 0 -32 -10 -44 -23z"
       id="path10" />
    <path
       d="M3381 3006 c-212 -47 -224 -53 -219 -115 2 -23 12 -40 30 -54 l27 -20 208 44 c226 48 253 60 253 117 0 37 -37 72 -76 71 -16 0 -116 -20 -223 -43z"
       id="path12" />
    <path
       d="M2029 2653 c-49 -30 -59 -61 -59 -182 l0 -111 -75 0 c-82 0 -129 -15 -160 -50 -19 -21 -20 -40 -25 -324 l-5 -301 -245 -5 c-264 -5 -272 -7 -304 -61 -14 -24 -16 -104 -16 -767 l0 -739 22 -28 c45 -58 -26 -55 1398 -55 1406 0 1349 -2 1395 50 20 22 20 38 23 764 3 662 1 744 -13 771 -30 58 -38 60 -305 65 l-245 5 -5 301 c-5 284 -6 303 -25 324 -31 35 -78 50 -160 50 l-75 0 0 111 c0 122 -10 153 -60 183 -24 13 -62 16 -249 16 -208 0 -222 -1 -241 -20 -30 -30 -27 -83 6 -109 25 -20 40 -21 210 -21 l184 0 0 -80 0 -80 -440 0 -440 0 0 80 0 80 95 0 c52 0 105 5 119 11 51 23 55 103 7 128 -11 6 -78 11 -153 11 -105 0 -138 -4 -159 -17z m1233 -1157 c3 -686 4 -715 22 -735 23 -26 81 -28 108 -4 17 15 18 41 18 395 l0 378 210 0 210 0 0 -675 0 -675 -207 2 -208 3 -3 156 c-2 141 -4 158 -22 174 -28 25 -76 23 -103 -4 -20 -20 -22 -33 -25 -176 l-4 -155 -224 0 -224 0 0 143 c0 251 -6 257 -248 257 -246 0 -252 -6 -252 -250 l0 -150 -225 0 -225 0 0 1015 0 1015 700 0 699 0 3 -714z m-1554 -638 l-3 -673 -207 -3 -208 -2 0 675 0 675 210 0 210 0 -2 -672z m950 -550 l-3 -123 -95 0 -95 0 -3 123 -3 122 101 0 101 0 -3 -122z"
       id="path14" />
    <path
       d="M2083 1980 c-43 -26 -53 -67 -53 -215 0 -148 10 -189 53 -215 30 -19 54 -20 477 -20 423 0 447 1 477 20 43 26 53 67 53 215 0 148 -10 189 -53 215 -30 19 -54 20 -477 20 -423 0 -447 -1 -477 -20z m397 -215 l0 -86 -147 3 -148 3 -3 83 -3 82 151 0 150 0 0 -85z m458 3 l-3 -83 -147 -3 -148 -3 0 86 0 85 150 0 151 0 -3 -82z"
       id="path16" />
    <path
       d="M2077 1269 c-40 -31 -49 -79 -46 -237 l4 -142 33 -32 32 -33 460 0 460 0 32 33 33 32 4 126 c4 163 -3 210 -39 246 l-28 28 -460 0 c-448 0 -460 0 -485 -21z m403 -214 l0 -86 -147 3 -148 3 -3 83 -3 82 151 0 150 0 0 -85z m458 3 l-3 -83 -147 -3 -148 -3 0 86 0 85 150 0 151 0 -3 -82z"
       id="path18" />
  </g>
  <path
     style="fill:#ffffff;fill-rule:evenodd;stroke-width:1.43502"
     d="M 18.981087,317.07432 C 8.4010972,316.37624 5.8772288,315.25802 2.9468268,309.9702 0.82913337,306.14889 0.75124186,305.6305 0.50477125,293.71779 0.36474622,286.94993 0.60316273,279.14532 1.0345857,276.3742 c 1.5991895,-10.27192 8.464074,-20.40935 16.9476003,-25.02666 2.17273,-1.18255 9.077336,-3.92858 15.343567,-6.10229 6.266232,-2.1737 12.223514,-4.69182 13.238405,-5.59581 2.630735,-2.34326 1.879844,-6.082 -2.13364,-10.62357 C 32.769495,215.83053 29.210301,210.00355 27.296756,200.97515 25.99115,194.8151 25.811305,169.82516 27.024992,163.21251 29.178026,151.48191 39.669339,138.1956 51.715648,131.944 c 9.150003,-4.74853 13.139826,-5.57064 26.958375,-5.55482 14.021692,0.0161 18.016302,0.72372 26.117967,4.62696 10.42403,5.02211 18.57597,13.02235 23.57305,23.1344 3.54331,7.1702 4.1266,11.02536 4.23761,28.00769 0.0947,14.49311 0.0909,14.52867 -2.39437,21.9833 -2.91096,8.73161 -6.04164,13.83225 -13.5308,22.04501 -5.62365,6.16701 -6.69204,8.25223 -5.88191,11.48003 0.60844,2.42424 2.76491,3.49639 16.29326,8.10071 12.68992,4.31897 16.58036,6.53378 21.42154,12.19516 8.13172,9.50941 9.39373,13.81246 9.41849,32.11394 0.0206,15.21647 -0.88765,19.68689 -4.74782,23.3693 -4.1768,3.98446 -2.42317,3.87765 -66.234062,4.03396 -32.785465,0.0803 -63.370116,-0.10208 -67.965891,-0.40532 z m 104.741443,-18.76758 14.99826,-0.50231 -0.25843,-10.69829 c -0.23396,-9.68518 -0.42893,-10.97253 -2.05889,-13.59437 -0.99026,-1.59286 -3.14496,-3.74484 -4.78823,-4.78219 -3.36609,-2.12492 -15.33898,-6.22892 -20.06292,-6.87705 -2.92736,-0.40164 -3.20965,-0.26791 -4.77262,2.26104 -2.716,4.39457 -10.233882,10.84437 -14.273833,12.24591 -8.032192,2.78653 -21.776665,2.27027 -28.6927,-1.07772 -3.8,-1.83955 -11.524168,-9.06857 -12.53748,-11.73378 -0.588552,-1.54801 -1.255116,-1.94768 -3.248296,-1.94768 -3.338777,0 -13.540682,3.364 -19.030182,6.27505 -7.567979,4.01327 -8.457424,6.07006 -9.190212,21.25183 l -0.467321,9.68187 h 44.692292 c 24.580762,0 51.441512,-0.22604 59.690562,-0.50231 z m -36.275519,-41.3625 c 2.26334,-1.8784 3.296778,-5.1678 3.296778,-10.49348 v -5.35324 H 79.353356 67.962922 v 5.39061 c 0,8.52099 2.193101,11.59425 8.732666,12.23737 3.285426,0.32309 9.445578,-0.6975 10.751423,-1.78126 z m 0.752771,-36.6494 c 12.374728,-3.2949 22.328298,-13.6041 24.554888,-25.43223 1.01722,-5.40365 0.97975,-17.80234 -0.0744,-24.62001 -1.03964,-6.72404 -2.79719,-10.28009 -7.58055,-15.33779 -6.842955,-7.23542 -15.625671,-9.94257 -30.29538,-9.33816 -7.046611,0.29034 -8.773599,0.63466 -12.618665,2.51587 -5.631081,2.75503 -10.570828,7.72005 -13.969851,14.04132 l -2.654069,4.93586 -0.253845,12.26118 c -0.34943,16.87818 1.448728,23.37899 8.68108,31.38434 8.046807,8.90685 22.041728,12.82977 34.210812,9.58962 z"
     id="path880"
     transform="scale(0.75)" />
  <path
     style="fill:#ffffff;fill-rule:evenodd;stroke-width:1.43502"
     d="m 285.89989,196.38035 c -8.73443,-0.37182 -12.35767,-0.82242 -14.0482,-1.74706 -3.04214,-1.66392 -6.93165,-5.80977 -7.92673,-8.44913 -0.46529,-1.23413 -0.80037,-8.13487 -0.79275,-16.32629 0.0197,-21.18517 1.64482,-26.69025 10.39099,-35.19907 5.80224,-5.64478 9.39979,-7.16795 33.63883,-14.24244 1.4579,-0.42551 1.95602,-1.14538 2.14671,-3.10236 0.49498,-5.07974 -0.49998,-7.15367 -6.76219,-14.09529 -6.66745,-7.3908 -11.09276,-15.263185 -13.41549,-23.865354 -1.92387,-7.124989 -1.8755,-30.909597 0.0772,-37.968113 2.82586,-10.214753 8.07711,-18.263701 16.69717,-25.59293 9.18063,-7.8058552 19.26428,-11.0240991 34.66853,-11.0646225 17.54155,-0.046146 28.50054,3.6860008 38.25664,13.0285085 7.19986,6.89463 11.99178,14.395783 14.21324,22.249021 1.59515,5.639107 1.78838,7.902566 1.80334,21.123441 0.0162,14.295302 -0.057,15.017723 -2.11315,20.882462 -2.73342,7.796289 -7.12598,15.197489 -13.05301,21.993517 -5.78034,6.62783 -6.45448,7.85209 -6.45448,11.72146 0,3.78256 0.17357,3.88513 13.23088,7.81897 13.56983,4.08826 18.49842,6.64407 23.8554,12.3707 7.89249,8.4371 9.23482,13.42935 9.23482,34.34523 0,9.96678 -0.29121,14.62873 -1.02296,16.37666 -1.37204,3.27739 -6.54848,7.83444 -10.12389,8.91253 -3.3235,1.00213 -102.64939,1.67524 -122.50091,0.83016 z M 400.54832,169.9073 c -0.0199,-9.65216 -1.0784,-16.71968 -2.86564,-19.13372 -0.78938,-1.06622 -2.57601,-2.71492 -3.97032,-3.66378 -2.6428,-1.7985 -18.28327,-7.00746 -21.04069,-7.00746 -1.04132,0 -2.87588,1.64315 -5.35105,4.79274 -6.52488,8.30275 -14.4007,11.91323 -25.98729,11.91323 -11.58658,0 -19.46241,-3.61048 -25.98728,-11.91323 -2.6254,-3.34075 -4.28262,-4.79274 -5.47016,-4.79274 -2.81076,0 -18.19788,5.15389 -20.92216,7.00785 -1.39398,0.94864 -3.18037,2.59717 -3.96974,3.66339 -1.78724,2.41404 -2.84574,9.48156 -2.86564,19.13372 l -0.0153,7.40379 h 59.23025 59.23026 l -0.0153,-7.40379 z m -53.14009,-33.41311 c 3.68412,-1.84042 6.0749,-6.75956 6.0749,-12.49936 v -4.39527 h -12.1498 -12.14979 l 0.0167,4.36633 c 0.0252,6.5982 3.11783,12.31837 7.19727,13.3122 3.41231,0.8313 8.50297,0.46887 11.01075,-0.7839 z m 8.40891,-39.096314 c 5.77312,-2.835231 13.72249,-11.170591 16.67933,-17.489214 3.25923,-6.964823 4.32588,-15.775913 3.16614,-26.154129 -1.35082,-12.088195 -5.03209,-19.163908 -12.56392,-24.14887 -5.75374,-3.808129 -12.00591,-5.209611 -23.28408,-5.219341 -10.75396,-0.0093 -15.28045,1.249057 -21.45637,5.964727 -14.26561,10.892602 -16.08682,41.486932 -3.42651,57.56161 2.8924,3.672466 11.11305,9.544523 15.23318,10.881168 2.13268,0.691877 6.22515,0.977701 12.30747,0.85959 8.19388,-0.159124 9.53894,-0.38647 13.34476,-2.255541 z"
     id="path919"
     transform="scale(0.75)" />
  <path
     style="fill:#ffffff;fill-rule:evenodd;stroke-width:1.43502"
     d="m 545.55237,317.08578 c -11.50005,-0.51041 -12.78384,-0.70981 -14.96851,-2.32501 -4.58098,-3.38686 -6.25268,-9.6825 -6.22918,-23.45915 0.028,-16.40762 2.00713,-23.94852 8.33575,-31.76078 5.55779,-6.86073 9.3339,-9.10349 23.48316,-13.94744 20.06843,-6.87034 20.28001,-7.63668 6.48266,-23.47994 -10.51575,-12.07505 -12.76587,-20.04962 -12.32012,-43.66333 0.2689,-14.24459 0.48074,-16.40419 1.98479,-20.23383 5.05602,-12.87371 15.92646,-23.55235 29.89823,-29.37071 4.42672,-1.84345 5.75654,-2.0059 18.58518,-2.27038 16.3688,-0.33746 19.23163,0.15611 29.05396,5.0091 13.37258,6.60707 23.63672,19.40248 25.8751,32.25622 0.56492,3.24403 0.77824,10.85041 0.58521,20.86791 -0.28041,14.55291 -0.45237,16.17727 -2.23975,21.15622 -2.37779,6.62362 -5.68765,11.67033 -13.10413,19.98055 -5.64474,6.32497 -7.10039,9.21375 -6.15065,12.20612 0.64449,2.03061 2.96037,3.16131 15.0023,7.3247 16.19699,5.59996 22.60393,9.79441 27.36173,17.91297 3.94492,6.73152 4.71644,11.11207 4.71788,26.78738 7.5e-4,9.6109 -0.32584,15.50717 -0.9786,17.66059 -1.39029,4.58642 -5.29222,8.25085 -9.40112,8.82889 -5.05365,0.71095 -111.74807,1.1513 -125.97389,0.51992 z m 117.70278,-23.02275 c -0.0854,-8.48002 -1.1847,-16.83084 -2.6107,-19.83167 -2.00268,-4.21436 -6.2815,-6.93825 -15.66312,-9.97112 -9.46546,-3.05998 -12.49413,-3.33981 -13.168,-1.21662 -0.5928,1.86775 -7.38517,8.76364 -10.93504,11.10169 -7.68048,5.05861 -23.71779,5.53652 -33.13191,0.98732 -1.67059,-0.80728 -5.77115,-4.3361 -9.11234,-7.84182 l -6.0749,-6.37403 -6.0749,1.80011 c -10.74138,3.18288 -14.88406,5.0348 -17.8117,7.96244 -3.65025,3.65025 -4.58948,7.45104 -4.58948,18.57222 v 8.75405 l 10.06155,0.2359 c 5.53385,0.12974 32.35832,0.31052 59.60993,0.40173 l 49.54839,0.16582 -0.0478,-4.74602 z m -52.21703,-36.59599 c 2.22987,-0.94864 3.66562,-5.24889 3.66562,-10.97891 v -5.39061 h -11.39043 -11.39043 v 5.35324 c 0,5.34543 1.0333,8.61497 3.32334,10.51553 2.38727,1.98125 11.62344,2.27413 15.7919,0.50075 z m 2.19892,-37.32296 c 8.91125,-2.61432 16.95545,-8.9861 20.20724,-16.00605 3.11161,-6.71735 4.19921,-13.87219 3.90917,-25.71659 -0.24954,-10.19005 -0.3675,-10.87599 -2.67699,-15.56693 -3.59079,-7.29344 -7.04614,-10.89488 -13.52527,-14.09703 -5.23486,-2.58721 -6.20853,-2.80206 -14.19703,-3.13277 -14.29466,-0.59178 -22.32226,1.88103 -29.38216,9.05081 -6.36116,6.46017 -8.42999,13.02394 -8.42999,26.74579 0,10.6114 0.85944,15.40816 3.85948,21.54075 4.01955,8.21666 13.06576,15.51645 21.77214,17.56892 4.70014,1.10802 14.03451,0.91243 18.46341,-0.3869 z"
     id="path958"
     transform="scale(0.75)" />
  <path
     style="fill:#ffffff;fill-rule:evenodd;stroke-width:1.43502"
     d="m 425.76053,304.03412 c -2.94928,-2.76405 -3.9348,-5.00291 -3.9348,-8.93895 0,-3.46088 1.98273,-5.57807 6.85588,-7.32079 7.87799,-2.8173 46.21685,-10.98684 51.56019,-10.98684 6.15692,0 9.92654,3.68421 9.92654,9.70163 0,4.8991 -3.73908,7.37328 -15.71209,10.39681 -10.10576,2.552 -42.77131,9.50729 -44.65721,9.5086 -0.8353,5.9e-4 -2.65263,-1.06162 -4.03851,-2.36046 z"
     id="path997"
     transform="scale(0.75)" />
  <path
     style="fill:#ffffff;fill-rule:evenodd;stroke-width:1.43502"
     d="m 338.67557,284.07551 c -1.25295,-0.55306 -2.96152,-1.77191 -3.79682,-2.70854 -1.45293,-1.62919 -1.51872,-2.77686 -1.51872,-26.49159 0,-18.74489 0.23691,-25.20327 0.97171,-26.48932 1.52004,-2.66038 5.05443,-4.1009 9.42921,-3.84309 5.83616,0.34394 6.66514,1.87046 7.60083,13.99657 0.41473,5.37455 0.5835,16.6991 0.37507,25.16567 -0.42141,17.11729 -0.76246,18.37925 -5.50234,20.3597 -3.14084,1.31233 -4.60527,1.31438 -7.55894,0.0106 z"
     id="path1036"
     transform="scale(0.75)" />
  <path
     style="fill:#ffffff;fill-rule:evenodd;stroke-width:1.43502"
     d="m 244.51465,304.82816 c -47.4535,-9.87774 -50.6785,-10.97848 -51.76403,-17.6678 -0.93596,-5.76767 3.45824,-10.80602 9.2063,-10.55585 3.69724,0.16091 29.04642,5.28072 44.63959,9.01592 12.58607,3.01487 14.24442,4.11444 14.24442,9.44478 0,3.97872 -1.08533,6.47106 -3.96218,9.09865 -2.80857,2.56523 -3.14502,2.58331 -12.3641,0.6643 z"
     id="path1075"
     transform="scale(0.75)" />
  <path
     style="fill:#ffffff;fill-rule:evenodd;stroke-width:1.43502"
     d="m 186.80311,677.75278 c -25.41091,-0.72981 -27.76587,-1.23366 -31.86491,-6.81768 l -2.68607,-3.65915 0.0453,-88.36397 c 0.0498,-96.98014 0.35622,-109.16938 2.84511,-113.16522 3.42324,-5.4959 5.22618,-5.78955 41.52149,-6.76263 16.70005,-0.44774 30.48121,-0.93154 30.6248,-1.07513 0.14359,-0.14359 0.58123,-16.77846 0.97254,-36.96638 0.39131,-20.18793 1.04767,-38.56288 1.45858,-40.83322 0.86321,-4.76932 2.59449,-6.92036 7.51693,-9.33943 2.9708,-1.45996 5.09451,-1.76697 14.49167,-2.09496 l 11.01075,-0.38432 0.37968,-14.80756 c 0.35589,-13.87963 0.49864,-15.04448 2.27809,-18.58825 1.50496,-2.99712 2.68143,-4.17747 5.67652,-5.69521 3.70599,-1.87799 4.10465,-1.91454 20.88246,-1.91454 12.47641,0 17.74773,0.27166 19.48222,1.00403 5.32685,2.2492 6.41092,10.30107 1.98305,14.72895 -1.98131,1.9813 -2.9356,2.27681 -9.3585,2.89794 -3.93372,0.38042 -10.49331,0.70093 -14.57685,0.71224 l -7.42463,0.0206 0.21069,10.82091 0.21069,10.82091 h 58.85057 58.85058 l 0.21007,-10.71932 0.21007,-10.71932 -24.12998,-0.35401 c -26.22687,-0.38476 -27.09691,-0.52367 -30.51751,-4.87226 -3.23391,-4.11124 -1.09853,-12.46165 3.51636,-13.75075 1.16149,-0.32444 14.76484,-0.5899 30.22965,-0.5899 h 28.11786 l 3.77536,1.91454 c 2.99141,1.51698 4.16956,2.69959 5.67377,5.69521 1.77944,3.54377 1.9222,4.70862 2.27809,18.58825 l 0.37968,14.80756 11.01075,0.38432 c 9.39716,0.32799 11.52087,0.635 14.49167,2.09496 4.92607,2.42086 6.65436,4.56954 7.51215,9.33943 0.40828,2.27034 1.06534,20.64599 1.46013,40.83477 0.39479,20.18878 0.83459,36.82365 0.97732,36.96638 0.14273,0.14274 13.92319,0.62209 30.62325,1.06524 16.70005,0.44315 31.21802,1.01187 32.26214,1.26381 5.74204,1.38555 6.97971,2.09291 8.85239,5.05944 1.71187,2.71177 2.02614,4.29267 2.58997,13.02857 0.76039,11.78155 0.78417,75.45343 0.0529,141.69716 -0.50451,45.703 -0.58141,47.57822 -2.07084,50.49759 -2.05061,4.01934 -5.30528,5.53208 -14.07273,6.5409 -8.32628,0.95805 -296.30778,1.56564 -326.81333,0.68952 z m 40.2784,-19.9232 c 0.29511,-0.29563 0.57945,-40.78862 0.63187,-89.98443 l 0.0953,-89.44693 -27.90657,-0.1992 -27.90656,-0.19919 v 90.42496 90.42496 l 27.2747,-0.24133 c 15.00109,-0.13274 27.51616,-0.48322 27.81126,-0.77884 z m 81.17034,-18.25672 c 0.61857,-21.70146 1.17365,-25.45348 4.29089,-29.00382 3.59612,-4.09576 6.78221,-4.59796 29.17027,-4.59796 21.93243,0 25.03852,0.53779 28.77876,4.98282 2.71907,3.23143 3.37458,8.04468 3.94929,28.99864 l 0.51548,18.79422 h 29.88918 29.88917 l 0.052,-6.26474 c 0.11993,-14.4413 1.30273,-33.70992 2.18311,-35.56453 2.72806,-5.74691 14.09931,-6.32887 16.39983,-0.83931 0.2958,0.70584 0.82466,10.29785 1.17525,21.3156 0.3506,11.01774 0.84876,20.244 1.10702,20.50278 0.25827,0.25878 12.7432,0.57912 27.74428,0.71186 l 27.27472,0.24133 v -90.42496 -90.42496 l -27.90657,0.19919 -27.90656,0.1992 -0.45034,49.73823 c -0.24768,27.35602 -0.71826,50.52076 -1.04572,51.4772 -0.78607,2.29593 -4.14172,3.95624 -7.99597,3.95624 -4.5176,0 -7.35565,-1.73358 -8.39331,-5.12691 -0.81759,-2.67367 -2.0052,-93.12256 -2.17854,-165.91944 l -0.0592,-24.86911 h -93.40156 -93.40155 v 135.54616 135.54617 h 29.88678 29.88678 z m 46.2526,8.04308 c 0.27357,-5.7043 0.4974,-13.05113 0.4974,-16.32629 v -5.95483 h -13.66852 -13.66852 v 5.95483 c 0,3.27516 0.22383,10.62199 0.49741,16.32629 l 0.4974,10.37145 h 12.67371 12.67371 z"
     id="path1114"
     transform="scale(0.75)" />
  <path
     style="fill:#ffffff;fill-rule:evenodd;stroke-width:1.43502"
     d="m 281.90063,477.20355 c -7.55773,-1.81066 -9.53101,-5.47211 -10.64487,-19.75178 -0.58265,-7.46965 -0.57953,-13.34356 0.011,-20.6483 0.98219,-12.14995 2.18349,-15.17732 7.15099,-18.02115 l 3.30567,-1.89244 h 59.60993 59.60994 l 3.30566,1.89244 c 5.02906,2.87906 6.18146,5.84878 7.14412,18.41048 0.57859,7.54994 0.57529,13.50105 -0.0115,20.7601 -0.96735,11.96643 -2.41437,15.50608 -7.40081,18.10366 -2.99439,1.55987 -3.86084,1.58407 -61.12866,1.70726 -32.41576,0.0697 -59.35538,-0.17789 -60.95142,-0.56027 z m 48.80163,-29.93918 v -11.77012 h -20.1231 -20.1231 v 6.72287 c 0,3.69758 0.21845,8.81284 0.48544,11.36725 l 0.48543,4.64438 8.81675,0.23958 c 4.84922,0.13177 13.68617,0.31306 19.63767,0.40286 l 10.82091,0.16329 z m 60.63635,10.61668 c 0.14689,-0.14663 0.45336,-5.24364 0.68106,-11.3267 l 0.414,-11.0601 H 372.19904 351.9644 v 11.88028 11.88027 l 19.55358,-0.55358 c 10.75447,-0.30447 19.67376,-0.67355 19.82063,-0.82017 z"
     id="path1153"
     transform="scale(0.75)" />
  <path
     style="fill:#ffffff;fill-rule:evenodd;stroke-width:1.43502"
     d="m 275.79495,567.77128 -4.36219,-4.40818 -0.14204,-18.18285 c -0.16231,-20.77701 0.49042,-25.48502 4.10389,-29.60053 1.25248,-1.4265 3.53055,-2.97901 5.06237,-3.45003 1.91713,-0.5895 21.37407,-0.9793 62.43071,-1.25074 l 59.64557,-0.39433 3.49491,3.88718 c 5.13964,5.71651 5.57668,8.18128 5.3926,30.41195 l -0.15357,18.5457 -4.37884,4.42501 -4.37882,4.425 h -61.17621 -61.1762 z m 54.90731,-25.58663 v -11.77012 h -20.1231 -20.1231 v 6.72287 c 0,3.69758 0.21881,8.81635 0.48625,11.37505 l 0.48625,4.65219 15.27052,0.22185 c 8.39878,0.12202 17.23537,0.2998 19.63685,0.39506 l 4.36633,0.17321 z m 60.63635,10.58155 c 0.14689,-0.12731 0.45336,-5.20851 0.68106,-11.29156 l 0.414,-11.06011 H 372.19904 351.9644 v 11.6853 11.6853 l 19.55358,-0.39373 c 10.75447,-0.21656 19.67376,-0.4979 19.82063,-0.6252 z"
     id="path1192"
     transform="scale(0.75)" />
</svg>
