<?xml version="1.0" encoding="UTF-8" standalone="no"?>
<svg
   version="1.0"
   width="512.000000pt"
   height="512.000000pt"
   viewBox="0 0 512.000000 512.000000"
   preserveAspectRatio="xMidYMid meet"
   id="svg26"
   sodipodi:docname="product-design.svg"
   inkscape:version="1.1 (c68e22c387, 2021-05-23)"
   xmlns:inkscape="http://www.inkscape.org/namespaces/inkscape"
   xmlns:sodipodi="http://sodipodi.sourceforge.net/DTD/sodipodi-0.dtd"
   xmlns="http://www.w3.org/2000/svg"
   xmlns:svg="http://www.w3.org/2000/svg">
  <defs
     id="defs30" />
  <sodipodi:namedview
     id="namedview28"
     pagecolor="#505050"
     bordercolor="#eeeeee"
     borderopacity="1"
     inkscape:pageshadow="0"
     inkscape:pageopacity="0"
     inkscape:pagecheckerboard="0"
     inkscape:document-units="pt"
     showgrid="false"
     inkscape:zoom="1.3168945"
     inkscape:cx="340.95365"
     inkscape:cy="341.33333"
     inkscape:window-width="1858"
     inkscape:window-height="1177"
     inkscape:window-x="1974"
     inkscape:window-y="-8"
     inkscape:window-maximized="1"
     inkscape:current-layer="svg26" />
  <g
     transform="translate(0.000000,512.000000) scale(0.100000,-0.100000)"
     fill="#000000"
     stroke="none"
     id="g24">
    <path
       d="M745 4935 c-24 -23 -25 -28 -25 -175 0 -147 1 -152 25 -175 15 -16 36 -25 55 -25 19 0 40 9 55 25 23 22 25 32 25 120 l0 95 95 0 c88 0 98 2 120 25 16 15 25 36 25 55 0 19 -9 40 -25 55 -23 24 -28 25 -175 25 -147 0 -152 -1 -175 -25z"
       id="path2" />
    <path
       d="M2265 4935 c-16 -15 -25 -36 -25 -55 0 -19 9 -40 25 -55 22 -23 32 -25 120 -25 l95 0 0 -95 c0 -88 2 -98 25 -120 15 -16 36 -25 55 -25 19 0 40 9 55 25 24 23 25 28 25 175 0 147 -1 152 -25 175 -23 24 -28 25 -175 25 -147 0 -152 -1 -175 -25z"
       id="path4" />
    <path
       d="M1398 4750 c-148 -75 -262 -138 -268 -149 -14 -27 -14 -695 0 -722 12 -22 518 -279 550 -279 32 0 538 257 550 279 14 27 14 695 0 722 -13 23 -520 279 -552 278 -13 0 -139 -58 -280 -129z m427 -112 c80 -40 145 -75 145 -78 0 -3 -65 -38 -145 -78 l-145 -72 -145 72 c-80 40 -145 75 -145 78 0 4 273 146 287 149 2 1 68 -32 148 -71z m-225 -598 l0 -230 -160 80 -160 80 0 230 0 230 160 -80 160 -80 0 -230z m480 160 l0 -230 -160 -80 -160 -80 0 230 0 230 158 79 c86 44 158 80 160 80 1 1 2 -102 2 -229z"
       id="path6" />
    <path
       d="M4640 4467 c-68 -22 -119 -89 -273 -358 -90 -157 -147 -266 -147 -283 0 -32 40 -76 69 -76 47 0 69 24 144 154 108 186 90 172 166 128 35 -20 64 -41 63 -45 0 -4 -251 -442 -557 -971 l-556 -964 -69 40 -69 40 24 42 c358 613 785 1366 785 1384 0 35 -43 72 -83 72 -43 0 -57 -16 -138 -157 l-64 -113 -1736 -2 -1735 -3 -76 -37 c-91 -45 -147 -103 -191 -196 l-32 -67 -3 -863 -3 -862 25 -25 c33 -33 79 -33 111 0 l25 24 0 832 c0 624 3 842 12 873 17 58 100 138 158 154 35 10 417 12 1697 10 l1652 -3 -301 -520 c-165 -286 -309 -542 -319 -570 l-18 -50 0 68 c-1 58 -4 71 -26 92 l-24 25 -536 0 -535 0 0 135 c0 131 -1 137 -25 160 l-24 25 -431 0 -431 0 -24 -25 c-33 -32 -33 -78 0 -110 l24 -25 376 0 375 0 0 -80 0 -80 -535 0 -536 0 -24 -25 -25 -24 0 -511 0 -511 25 -24 c23 -24 29 -25 160 -25 l135 0 0 -135 c0 -131 1 -137 25 -160 l24 -25 431 0 431 0 24 25 c24 23 25 29 25 160 l0 135 95 0 c88 0 98 2 120 25 33 32 33 78 0 110 -22 23 -32 25 -120 25 l-95 0 0 400 0 400 320 0 320 0 0 -400 0 -400 -95 0 c-88 0 -98 -2 -120 -25 -33 -32 -33 -78 0 -110 l24 -25 311 0 311 0 24 25 25 24 0 266 0 267 33 -20 c45 -28 96 -36 148 -22 37 9 62 30 154 124 l110 113 248 429 c136 236 252 436 257 444 6 10 10 -355 10 -1057 l0 -1073 -1760 0 -1760 0 0 1120 0 1120 1389 0 1390 0 27 23 c37 33 37 81 0 114 l-27 23 -1445 0 -1445 0 -24 -25 -25 -24 0 -1231 0 -1231 25 -24 24 -25 1871 0 1871 0 24 25 25 24 0 1225 c0 877 -3 1232 -11 1249 -10 21 -6 34 26 92 l37 66 31 -28 c16 -15 40 -50 53 -78 l24 -50 0 -518 0 -518 25 -24 c32 -33 78 -33 111 0 l25 25 -3 542 -3 543 -32 68 c-21 44 -52 88 -88 122 -30 30 -55 57 -55 60 0 3 107 191 238 418 131 227 244 427 250 446 29 84 7 167 -63 236 -70 71 -152 91 -245 62z m135 -172 c32 -31 32 -65 -1 -121 -25 -42 -28 -44 -48 -31 -11 8 -42 26 -69 41 l-47 28 21 37 c45 75 98 93 144 46z m-3655 -2615 l0 -400 -80 0 -80 0 0 400 0 400 80 0 80 0 0 -400z m800 0 l0 -400 -320 0 -320 0 0 400 0 400 320 0 320 0 0 -400z m1120 0 l0 -400 -80 0 -80 0 0 400 0 400 80 0 80 0 0 -400z m353 188 c-32 -32 -61 -58 -66 -58 -18 0 -17 32 3 99 l21 72 49 -28 50 -28 -57 -57z m-1473 -828 l0 -80 -320 0 -320 0 0 80 0 80 320 0 320 0 0 -80z"
       id="path8" />
    <path
       d="M745 3895 c-24 -23 -25 -28 -25 -175 0 -147 1 -152 25 -175 23 -24 28 -25 175 -25 147 0 152 1 175 25 33 32 33 78 0 110 -22 23 -32 25 -120 25 l-95 0 0 95 c0 88 -2 98 -25 120 -15 16 -36 25 -55 25 -19 0 -40 -9 -55 -25z"
       id="path10" />
    <path
       d="M2505 3895 c-23 -22 -25 -32 -25 -120 l0 -95 -95 0 c-88 0 -98 -2 -120 -25 -33 -32 -33 -78 0 -110 23 -24 28 -25 175 -25 147 0 152 1 175 25 24 23 25 28 25 175 0 147 -1 152 -25 175 -15 16 -36 25 -55 25 -19 0 -40 -9 -55 -25z"
       id="path12" />
    <path
       d="M2345 2535 c-16 -15 -25 -36 -25 -55 0 -19 9 -40 25 -55 l24 -25 351 0 351 0 24 25 c16 15 25 36 25 55 0 19 -9 40 -25 55 l-24 25 -351 0 -351 0 -24 -25z"
       id="path14" />
    <path
       d="M4505 1735 l-25 -24 0 -592 c0 -435 -3 -603 -12 -633 -16 -55 -99 -138 -154 -154 -60 -18 -3768 -18 -3828 0 -55 16 -138 99 -154 154 -8 28 -12 129 -12 313 l0 272 -25 24 c-32 33 -78 33 -111 0 l-25 -25 3 -303 3 -302 32 -67 c44 -93 100 -151 191 -196 l76 -37 1936 0 1936 0 76 37 c91 45 147 103 191 196 l32 67 3 623 3 622 -25 25 c-33 33 -79 33 -111 0z"
       id="path16" />
    <path
       d="M3705 1495 c-16 -15 -25 -36 -25 -55 0 -19 9 -40 25 -55 23 -24 31 -25 135 -25 104 0 112 1 135 25 16 15 25 36 25 55 0 19 -9 40 -25 55 -23 24 -31 25 -135 25 -104 0 -112 -1 -135 -25z"
       id="path18" />
    <path
       d="M3545 1175 c-25 -24 -25 -26 -25 -215 0 -257 -17 -240 240 -240 189 0 191 0 215 25 25 24 25 26 25 215 0 257 17 240 -240 240 -189 0 -191 0 -215 -25z m295 -215 l0 -80 -80 0 -80 0 0 80 0 80 80 0 80 0 0 -80z"
       id="path20" />
    <path
       d="M2265 935 c-16 -15 -25 -36 -25 -55 0 -19 9 -40 25 -55 l24 -25 391 0 391 0 24 25 c16 15 25 36 25 55 0 19 -9 40 -25 55 l-24 25 -391 0 -391 0 -24 -25z"
       id="path22" />
  </g>
  <path
     style="fill:#ffffff;fill-rule:evenodd;stroke-width:1.43502"
     d="m 102.91988,212.03388 c -6.021863,-2.13089 -7.366797,-8.51522 -6.695124,-31.7814 0.404604,-14.01513 0.8069,-15.37292 5.381204,-18.16205 4.57517,-2.78966 10.82578,-1.22137 13.91336,3.49088 1.07255,1.63691 1.38101,4.31995 1.65727,14.41534 l 0.33944,12.40408 12.87204,0.23864 12.87203,0.23864 2.55172,2.78638 c 3.34111,3.64838 4.03664,7.29003 2.10371,11.01469 -3.0261,5.83117 -3.37946,5.92117 -24.00336,6.11416 -12.96019,0.12127 -19.13484,-0.10209 -20.99229,-0.75936 z"
     id="path884"
     transform="scale(0.75)" />
  <path
     style="fill:#ffffff;fill-rule:evenodd;stroke-width:1.43502"
     d="m 99.969498,71.190211 c -2.91567,-2.778643 -3.001651,-3.011808 -3.550203,-9.627482 -0.922454,-11.125028 -0.07206,-31.491009 1.436753,-34.408737 2.590132,-5.008754 3.189972,-5.132487 24.881712,-5.132487 18.52644,0 19.63891,0.08035 21.62312,1.561772 1.1505,0.858974 2.75009,2.830234 3.55465,4.380576 1.93293,3.724665 1.2374,7.366318 -2.10371,11.014695 l -2.55172,2.786376 -12.87203,0.238642 -12.87204,0.238643 -0.33944,12.404081 c -0.27626,10.095382 -0.58472,12.778422 -1.65727,14.415333 -1.94643,2.97064 -5.7121,4.970112 -9.36647,4.973358 -2.65692,0.0024 -3.69879,-0.476973 -6.183352,-2.84477 z"
     id="path923"
     transform="scale(0.75)" />
  <path
     style="fill:#ffffff;fill-rule:evenodd;stroke-width:1.43502"
     d="m 336.2489,72.55251 c -4.59529,-2.801925 -5.02765,-4.235136 -5.40176,-17.90622 l -0.33944,-12.404081 -12.87204,-0.238643 -12.87203,-0.238642 -2.55172,-2.786376 c -3.34111,-3.648377 -4.03664,-7.29003 -2.10371,-11.014695 0.80456,-1.550342 2.40415,-3.521602 3.55465,-4.380576 1.98421,-1.481421 3.09668,-1.561772 21.62312,-1.561772 27.61707,0 26.29875,-1.314937 26.29875,26.231394 0,16.685201 -0.14354,18.856844 -1.37014,20.728874 -1.88685,2.879705 -5.70404,5.05037 -8.88125,5.05037 -1.46177,0 -3.74977,-0.665836 -5.08443,-1.479633 z"
     id="path962"
     transform="scale(0.75)" />
  <path
     style="fill:#ffffff;fill-rule:evenodd;stroke-width:1.43502"
     d="m 305.86067,212.18311 c -2.68164,-0.80203 -5.88711,-4.48675 -6.68502,-7.6845 -0.70873,-2.84032 0.7548,-6.77893 3.49553,-9.4071 l 2.30831,-2.2135 12.7641,-0.23864 12.76411,-0.23864 0.33944,-12.40408 c 0.37411,-13.67109 0.80647,-15.1043 5.40176,-17.90622 4.60843,-2.80995 10.82662,-1.22008 13.96568,3.57073 1.2266,1.87203 1.37014,4.04368 1.37014,20.72888 0,27.35313 1.12389,26.16843 -25.02319,26.37717 -10.04325,0.0802 -19.35864,-0.18267 -20.70086,-0.5841 z"
     id="path1001"
     transform="scale(0.75)" />
  <path
     style="fill:#ffffff;fill-rule:evenodd;stroke-width:1.43502"
     d="m 217.55729,199.94779 c -14.62954,-6.18697 -62.44005,-31.01685 -65.6487,-34.09397 -1.3837,-1.32697 -1.51829,-2.99302 -2.01784,-24.97708 -0.29438,-12.9554 -0.29438,-34.15514 0,-47.110544 0.49933,-21.974606 0.63474,-23.651959 2.01784,-24.996118 3.36972,-3.274847 43.05315,-23.911444 62.76486,-32.639652 l 8.88629,-3.934783 5.16192,2.025178 c 12.75805,5.005372 64.1707,31.362272 67.42962,34.568064 1.43636,1.412943 1.53932,2.769511 1.8984,25.013275 0.20883,12.93562 0.20883,34.103 0,47.03862 -0.35908,22.24376 -0.46204,23.60033 -1.8984,25.01327 -4.07414,4.00772 -64.19939,34.52289 -71.1281,36.0994 -1.06653,0.24267 -4.03551,-0.55492 -7.46589,-2.00566 z m -3.79682,-55.86523 v -30.95042 l -20.88606,-10.43482 c -11.48733,-5.739142 -21.22615,-10.434806 -21.64182,-10.434806 -0.48893,0 -0.75576,10.793466 -0.75576,30.570566 v 30.57057 l 21.45198,10.77171 c 11.79859,5.92443 21.53741,10.79104 21.64182,10.81467 0.10442,0.0236 0.18984,-13.88472 0.18984,-30.90747 z m 63.78643,-21.24952 c 0,-19.77708 -0.26683,-30.570526 -0.75576,-30.570526 -0.41567,0 -10.15449,4.695664 -21.64182,10.434806 l -20.88606,10.43482 v 30.94869 30.9487 l 21.64182,-10.81299 21.64182,-10.81297 z M 243.30548,85.379228 c 9.85332,-5.038754 18.37431,-9.61069 18.93553,-10.159857 0.84733,-0.829138 -2.34671,-2.696084 -18.83216,-11.007583 l -19.85256,-10.009097 -15.71882,8.108843 c -19.31426,9.963616 -22.31046,11.694777 -21.97621,12.697524 0.36309,1.089277 36.2875,19.502884 38.08048,19.518736 0.79673,0.0071 9.51041,-4.10981 19.36374,-9.148566 z"
     id="path1040"
     transform="scale(0.75)" />
  <path
     style="fill:#ffffff;fill-rule:evenodd;stroke-width:1.43502"
     d="M 67.361665,615.24452 64.16611,611.98849 V 447.96325 283.93802 l 3.256033,-3.19556 3.256033,-3.19556 H 263.30563 455.93309 l 3.01165,2.86492 c 5.06101,4.81442 5.14646,10.04234 0.2424,14.83103 l -2.87132,2.80377 -185.63362,0.19137 -185.633628,0.19138 v 149.59436 149.59436 l 234.832778,0.19106 234.83278,0.19105 -0.002,-128.14359 c -0.002,-133.30006 -0.29917,-157.4623 -1.91359,-155.7117 -0.50236,0.54473 -13.04876,22.00578 -27.8809,47.6912 -14.83214,25.68543 -29.73031,51.48477 -33.10706,57.33185 -6.0183,10.42115 -6.42126,10.91052 -20.40695,24.78283 -8.5817,8.51215 -15.62916,14.85336 -17.68453,15.91229 -2.72418,1.40353 -4.64905,1.76378 -9.49203,1.77652 -5.53736,0.0146 -6.56212,-0.23438 -11.58119,-2.8133 -3.02833,-1.5561 -5.67661,-2.82927 -5.88492,-2.82927 -0.20833,0 -0.37877,15.88966 -0.37877,35.31035 v 35.31034 l -3.03745,3.03745 -3.03745,3.03745 h -41.61596 -41.61597 l -2.43973,-2.51716 c -4.69076,-4.83964 -4.59022,-10.26291 0.27774,-14.98186 l 2.70695,-2.62408 12.48772,-0.26788 12.48772,-0.26788 v -53.457 -53.457 h -42.90397 -42.90397 v 53.53504 53.53504 l 10.82091,0.005 c 12.77141,0.005 15.59075,0.63972 18.73175,4.21712 3.65604,4.164 3.03338,10.31633 -1.45585,14.38481 -1.49633,1.35608 -3.05456,1.55719 -14.69547,1.89661 l -13.02166,0.37968 -0.37968,18.37965 -0.37968,18.37965 -3.00172,3.07233 -3.00172,3.07202 h -57.02363 -57.02362 l -3.00172,-3.07233 -3.00172,-3.07234 -0.37968,-18.37965 -0.37969,-18.37965 -18.37965,-0.37968 -18.37965,-0.37968 -3.07233,-3.00172 -3.07233,-3.00172 v -67.59023 -67.59023 l 3.19555,-3.25603 3.19556,-3.25603 h 71.60162 71.60163 v -11.01075 -11.01075 h -50.05337 -50.05338 l -3.10198,-3.52404 c -2.69355,-3.06004 -3.10198,-3.99582 -3.10198,-7.10704 0,-3.11121 0.40843,-4.04699 3.10198,-7.10703 l 3.10198,-3.52404 h 57.17895 57.17896 l 2.74613,3.03964 c 1.51037,1.6718 2.81595,3.12408 2.9013,3.22729 0.0853,0.10321 0.34162,8.38876 0.56952,18.41235 l 0.41435,18.22469 71.80619,0.37968 71.80619,0.37968 2.61131,2.97235 c 2.58395,2.9412 2.61555,3.06451 3.0158,11.77012 0.27167,5.90924 0.61965,8.29913 1.05985,7.27904 5.60402,-12.98625 19.59523,-37.95883 70.17649,-125.2563 7.97345,-13.76126 14.40158,-25.11608 14.28473,-25.23293 -0.59027,-0.59027 -436.116454,-0.22027 -441.878826,0.37539 -5.718091,0.59109 -7.203264,1.05911 -10.631071,3.35011 -5.011623,3.34957 -10.738114,9.11027 -13.22453,13.30352 -1.191507,2.00943 -2.194164,5.30093 -2.660142,8.73266 -0.440436,3.24362 -0.957596,50.44204 -1.258074,114.81763 l -0.510213,109.30996 -3.286322,2.50613 c -4.67471,3.56492 -8.502697,3.48458 -13.4356,-0.28197 l -3.651478,-2.78812 0.50588,-115.28121 0.505879,-115.28121 2.943141,-6.37042 c 6.978295,-15.10449 15.390425,-23.41297 31.013326,-30.6312 l 5.568615,-2.57286 231.504905,-0.47159 231.50491,-0.47158 3.23958,-5.76084 c 8.58478,-15.26599 13.93489,-23.86535 16.57376,-26.63937 2.61147,-2.74523 3.25719,-3.04138 6.63131,-3.04138 4.51319,0 8.68374,2.49747 10.17249,6.09164 0.88252,2.1306 0.80356,2.78101 -0.72044,5.93408 -4.95079,10.24296 -53.60913,96.10643 -89.95377,158.73421 -9.05817,15.60872 -16.36899,28.45121 -16.24627,28.53886 0.12273,0.0877 4.26306,2.48613 9.20072,5.32994 7.59253,4.37286 9.13077,5.00751 9.97057,4.11371 0.87416,-0.93038 28.956,-49.52121 117.12658,-202.66754 13.3451,-23.17953 25.77608,-44.97132 27.6244,-48.4262 l 3.36058,-6.28159 -1.89841,-1.50294 c -1.04412,-0.82661 -4.56816,-3.08523 -7.83118,-5.01914 -8.61431,-5.10549 -7.07071,-6.43089 -22.16569,19.03244 -9.98588,16.84492 -14.49602,20.98716 -20.25424,18.60202 -2.83662,-1.17496 -6.70106,-6.31427 -6.70106,-8.91173 0,-5.76182 35.74185,-67.48299 45.39185,-78.385341 5.64219,-6.374433 15.20154,-9.784734 24.25623,-8.653425 9.62252,1.202255 20.86938,9.855288 25.75674,19.816556 1.93822,3.9504 2.17001,5.20949 2.14344,11.64333 -0.0386,9.36819 2.48956,4.40704 -39.85857,78.21431 -11.14293,19.42069 -21.67262,37.89532 -23.3993,41.05474 l -3.13941,5.7444 2.74438,2.60858 c 6.67066,6.3406 12.57882,14.17424 16.50328,21.88173 l 4.10595,8.06391 0.55142,72.54198 0.55141,72.54199 -3.07913,2.78181 c -5.08949,4.59805 -9.08328,4.6254 -15.01268,0.10282 l -2.58494,-1.97163 v -69.02846 -69.02846 l -3.22729,-6.5822 c -1.93834,-3.95333 -4.87525,-8.36918 -7.35348,-11.05649 l -4.12618,-4.4743 -1.26225,1.6734 c -0.69423,0.92037 -2.87363,4.79278 -4.84311,8.60535 l -3.58087,6.93195 0.83567,7.59347 c 0.56516,5.13537 0.9862,59.15571 1.30068,166.87811 l 0.465,159.28465 -3.34213,3.403 -3.34213,3.40301 -249.48223,0.006 -249.482241,0.005 z M 256.11577,543.89321 255.90508,533.0723 h -42.52429 -42.52428 l -0.2107,10.82091 -0.21068,10.82092 h 42.94566 42.94567 z M 149.59436,458.6548 v -53.15536 l -10.82091,-0.21069 -10.82091,-0.21068 v 53.57673 53.57674 l 10.82091,-0.21069 10.82091,-0.21069 z m 106.6904,0 v -53.53504 h -42.90397 -42.90396 v 53.53504 53.53504 h 42.90396 42.90397 z m 149.59436,0 v -53.53504 h -11.01075 -11.01075 v 53.53504 53.53504 h 11.01075 11.01075 z m 46.24653,-24.37683 c 4.21751,-4.01015 7.6682,-7.58649 7.6682,-7.94744 0,-0.73469 -11.31451,-7.50707 -12.57777,-7.52853 -0.77999,-0.0132 -4.28945,11.12568 -5.29812,16.81607 -0.58148,3.28041 0.10344,5.95108 1.5262,5.95108 0.55732,0 4.46399,-3.28103 8.68149,-7.29118 z M 634.70147,129.28142 c 7.09126,-9.45823 6.60196,-17.9612 -1.25236,-21.76341 -4.33622,-2.09913 -7.91248,-1.12672 -12.18707,3.31374 -3.5258,3.6626 -7.34619,10.33954 -6.17861,10.79842 0.41765,0.16414 4.34734,2.49049 8.73266,5.16965 4.38532,2.67917 8.2122,4.88884 8.50418,4.91037 0.29199,0.0215 1.36352,-1.07141 2.3812,-2.42877 z"
     id="path1079"
     transform="scale(0.75)" />
  <path
     style="fill:#ffffff;fill-rule:evenodd;stroke-width:1.43502"
     d="M 53.778465,656.36407 C 40.089595,649.54421 32.78792,642.20469 26.161514,628.60398 l -3.77178,-7.74158 -0.495902,-40.48203 -0.495901,-40.48202 2.864072,-2.51468 c 5.519929,-4.84657 9.827415,-4.95744 14.89046,-0.38329 l 2.992142,2.70322 0.04312,25.16044 c 0.05627,32.83443 0.88636,50.79551 2.528147,54.70257 2.614049,6.22079 12.180962,15.78524 18.380172,18.37544 2.607433,1.08946 10.295354,1.31256 64.472796,1.87103 79.3379,0.81784 305.74576,0.817 385.15196,-0.002 l 61.65963,-0.63551 3.54819,-1.71764 c 4.48027,-2.16886 12.37389,-9.50993 15.55323,-14.46449 1.94969,-3.03833 2.55117,-4.96106 3.01858,-9.6493 0.32103,-3.2202 0.81266,-40.36792 1.09249,-82.5505 l 0.50879,-76.69558 2.71655,-2.4543 c 4.83548,-4.36867 9.64535,-4.2502 14.75201,0.36336 l 3.10631,2.80637 -0.56174,83.17214 -0.56175,83.17212 -3.42496,6.83426 c -7.44907,14.86406 -12.88306,20.48107 -26.74524,27.6461 L 578.4314,660.265 319.96988,660.2398 61.508346,660.2146 Z"
     id="path1118"
     transform="scale(0.75)" />
  <path
     style="fill:#ffffff;fill-rule:evenodd;stroke-width:1.43502"
     d="m 302.43522,572.47517 c -4.67301,-5.77475 -4.59161,-8.65822 0.42098,-14.91343 l 2.28193,-2.84761 h 52.21806 52.21807 l 2.89845,3.53717 c 2.44235,2.98057 2.89844,4.09686 2.89844,7.0939 0,2.99704 -0.45609,4.11333 -2.89844,7.0939 l -2.89845,3.53717 -52.15532,-0.003 -52.15531,-0.003 z"
     id="path1157"
     transform="scale(0.75)" />
  <path
     style="fill:#ffffff;fill-rule:evenodd;stroke-width:1.43502"
     d="m 313.42791,359.59677 c -4.94305,-5.95408 -4.94553,-9.60028 -0.0102,-14.95451 l 3.05006,-3.30893 h 46.55323 46.55323 l 2.61598,3.22729 c 4.58666,5.6585 4.60592,9.57822 0.073,14.87384 l -2.7057,3.16102 -46.83144,-0.0137 -46.83145,-0.0137 z"
     id="path1196"
     transform="scale(0.75)" />
  <path
     style="fill:#ffffff;fill-rule:evenodd;stroke-width:1.43502"
     d="m 479.20607,585.80139 c -2.06158,-0.34502 -4.61888,-1.27727 -5.68289,-2.07167 -3.51576,-2.6249 -3.92518,-6.05708 -3.69183,-30.9493 0.30015,-32.01844 -2.2188,-29.57983 30.55427,-29.57983 25.61854,0 28.01957,0.31649 30.53624,4.02502 1.28052,1.88697 1.39108,4.08553 1.39108,27.6634 v 25.61352 l -2.44025,2.44061 c -2.08158,2.08188 -3.19771,2.5248 -7.59363,3.01341 -6.80824,0.75674 -38.30208,0.6433 -43.07299,-0.15516 z m 32.81478,-31.2771 -0.21069,-10.82092 h -10.63107 -10.63107 l -0.21069,10.82092 -0.21069,10.82091 h 11.05245 11.05245 z"
     id="path1235"
     transform="scale(0.75)" />
  <path
     style="fill:#ffffff;fill-rule:evenodd;stroke-width:1.43502"
     d="m 497.32034,500.0637 c -2.08822,-0.84478 -5.51151,-4.96929 -6.11277,-7.36492 -1.21361,-4.8354 3.12493,-11.07306 8.38856,-12.06052 1.40185,-0.26299 8.08029,-0.36202 14.84098,-0.22006 l 12.29214,0.25811 2.98169,3.19788 c 2.51055,2.6926 2.98123,3.71247 2.97884,6.45458 -0.002,1.88904 -0.62533,4.27762 -1.48514,5.68776 -2.63485,4.32129 -4.52572,4.78839 -19.16693,4.73474 -7.22519,-0.0265 -13.84801,-0.33588 -14.71737,-0.68757 z"
     id="path1274"
     transform="scale(0.75)" />
</svg>
