<?xml version="1.0" encoding="UTF-8" standalone="no"?>
<svg
   version="1.0"
   width="512.000000pt"
   height="512.000000pt"
   viewBox="0 0 512.000000 512.000000"
   preserveAspectRatio="xMidYMid meet"
   id="svg30"
   sodipodi:docname="web-development.svg"
   inkscape:version="1.1 (c68e22c387, 2021-05-23)"
   xmlns:inkscape="http://www.inkscape.org/namespaces/inkscape"
   xmlns:sodipodi="http://sodipodi.sourceforge.net/DTD/sodipodi-0.dtd"
   xmlns="http://www.w3.org/2000/svg"
   xmlns:svg="http://www.w3.org/2000/svg">
  <defs
     id="defs34" />
  <sodipodi:namedview
     id="namedview32"
     pagecolor="#505050"
     bordercolor="#eeeeee"
     borderopacity="1"
     inkscape:pageshadow="0"
     inkscape:pageopacity="0"
     inkscape:pagecheckerboard="0"
     inkscape:document-units="pt"
     showgrid="false"
     inkscape:zoom="1.3168945"
     inkscape:cx="340.95365"
     inkscape:cy="402.08231"
     inkscape:window-width="1858"
     inkscape:window-height="1177"
     inkscape:window-x="1974"
     inkscape:window-y="-8"
     inkscape:window-maximized="1"
     inkscape:current-layer="svg30" />
  <g
     transform="translate(0.000000,512.000000) scale(0.100000,-0.100000)"
     fill="#000000"
     stroke="none"
     id="g28">
    <path
       d="M3670 4993 c-26 -23 -36 -46 -58 -137 l-28 -109 -49 -17 c-28 -10 -70 -27 -94 -39 -25 -11 -49 -21 -54 -21 -5 0 -50 25 -101 55 -99 59 -142 68 -186 39 -39 -26 -109 -95 -141 -138 -44 -59 -39 -93 26 -202 30 -51 55 -96 55 -101 0 -5 -10 -29 -21 -54 -12 -24 -29 -66 -39 -94 l-17 -49 -109 -28 c-91 -22 -114 -32 -136 -58 -27 -29 -28 -35 -28 -135 l0 -105 -1218 -2 -1219 -3 -49 -30 c-37 -23 -56 -44 -76 -84 l-28 -55 0 -1361 0 -1361 28 -55 c20 -40 39 -61 76 -84 l49 -30 594 -3 593 -3 0 -99 0 -100 -119 0 c-207 0 -278 -27 -326 -123 -22 -45 -25 -63 -25 -162 0 -96 3 -114 18 -128 17 -16 166 -17 1943 -17 1851 0 1926 1 1964 19 49 23 89 64 109 113 14 33 16 177 16 1265 0 1174 -1 1230 -19 1268 -10 22 -31 52 -47 67 -61 57 -68 58 -504 58 l-400 0 0 64 c0 58 2 65 23 71 12 4 61 23 109 42 l87 35 93 -56 c101 -60 144 -69 188 -40 39 26 109 95 141 138 44 59 39 93 -26 202 -30 51 -55 96 -55 101 0 5 10 29 21 54 12 24 29 66 39 94 l17 49 109 28 c91 22 114 32 137 58 26 30 27 33 27 155 0 122 -1 125 -27 155 -23 26 -46 36 -137 58 l-109 28 -17 49 c-10 28 -27 70 -39 94 -11 25 -21 49 -21 54 0 5 25 50 55 101 69 115 71 144 16 213 -21 26 -54 62 -72 79 -91 83 -119 84 -246 9 l-93 -56 -88 34 c-48 19 -94 37 -102 40 -11 3 -24 40 -40 108 -20 86 -30 110 -56 137 l-32 32 -126 0 c-123 0 -126 -1 -156 -27z m190 -93 l48 0 27 -112 c15 -62 32 -118 37 -125 5 -7 40 -22 76 -34 37 -12 97 -37 134 -55 37 -19 75 -34 85 -34 9 0 63 28 120 61 l104 62 25 -24 c14 -13 39 -41 55 -61 l29 -36 -60 -100 c-33 -55 -60 -107 -60 -116 0 -9 15 -47 34 -84 18 -37 43 -97 55 -134 12 -36 27 -71 34 -76 7 -5 62 -22 122 -37 61 -16 113 -31 118 -35 4 -3 4 -40 1 -82 l-7 -76 -91 -23 c-148 -36 -150 -37 -175 -114 -12 -38 -38 -99 -57 -136 -19 -38 -34 -76 -34 -86 0 -9 28 -63 61 -120 l62 -104 -44 -45 c-69 -72 -65 -72 -177 -4 -55 33 -107 60 -116 60 -9 0 -44 -14 -78 -31 -34 -17 -79 -37 -100 -45 l-38 -13 0 143 0 143 48 31 c76 49 149 133 190 219 37 78 37 79 37 208 0 116 -3 136 -24 185 -92 206 -263 323 -476 323 -286 0 -506 -219 -507 -505 l0 -88 -254 0 c-170 0 -255 4 -260 11 -3 6 -3 44 1 84 l7 73 111 27 c62 16 117 32 124 37 6 5 21 39 33 75 12 36 37 97 56 134 19 38 34 76 34 85 0 8 -28 63 -61 120 l-62 105 34 36 c19 19 46 43 61 54 l27 19 97 -60 c54 -33 106 -60 116 -60 10 0 49 15 86 34 37 18 97 43 135 55 37 13 71 30 76 39 5 10 21 62 36 117 14 55 28 106 31 114 3 9 14 12 35 7 18 -3 53 -6 79 -6z m48 -630 c109 -26 224 -116 270 -212 71 -146 46 -315 -65 -438 -25 -28 -48 -50 -52 -50 -4 0 -14 25 -20 57 -11 45 -22 65 -60 103 -63 63 -96 70 -340 70 l-199 0 -7 41 c-11 65 4 144 41 219 81 162 261 249 432 210z m-33 -602 c53 -24 55 -37 55 -423 l0 -355 -719 0 c-516 0 -728 -3 -752 -12 -53 -18 -87 -45 -116 -96 l-28 -47 -3 -607 -3 -608 -1044 0 -1045 0 0 1051 0 1051 29 29 29 29 1786 0 c1363 0 1791 -3 1811 -12z m999 -924 l26 -27 0 -168 0 -169 -1235 0 -1235 0 0 166 0 166 29 29 29 29 1180 0 1179 0 27 -26z m26 -1479 l0 -996 -24 -24 c-13 -13 -39 -26 -57 -30 -19 -3 -551 -4 -1182 -3 l-1149 3 -29 33 -29 32 0 990 0 990 1235 0 1235 0 0 -995z m-2590 -140 l0 -275 -1016 0 -1016 0 -29 29 -29 29 0 246 0 246 1045 0 1045 0 0 -275z m0 -495 l0 -100 -375 0 -375 0 0 100 0 100 375 0 375 0 0 -100z m4 -292 c3 -40 9 -85 12 -100 l6 -28 -621 0 -621 0 0 68 c0 73 15 106 54 122 11 5 278 9 592 9 l571 1 7 -72z"
       id="path2" />
    <path
       d="M1412 3313 c-25 -21 -492 -1019 -492 -1051 0 -43 56 -68 92 -39 21 17 488 1022 488 1052 0 23 -32 55 -56 55 -7 0 -21 -8 -32 -17z"
       id="path4" />
    <path
       d="M638 2942 c-111 -111 -148 -154 -148 -172 0 -37 285 -320 321 -320 30 0 59 28 59 56 0 11 -49 68 -120 139 l-120 119 120 122 c126 127 137 147 100 184 -38 38 -57 27 -212 -128z"
       id="path6" />
    <path
       d="M1570 3070 c-37 -37 -26 -57 100 -184 l120 -122 -115 -114 c-63 -63 -118 -123 -121 -133 -9 -28 22 -67 54 -67 22 0 56 29 175 148 109 109 147 154 147 172 0 18 -38 62 -148 172 -155 155 -174 166 -212 128z"
       id="path8" />
    <path
       d="M2650 2630 c-28 -28 -26 -81 3 -108 49 -46 127 -12 127 54 0 63 -86 98 -130 54z"
       id="path10" />
    <path
       d="M2930 2630 c-28 -28 -26 -81 3 -108 49 -46 127 -12 127 56 0 43 -30 72 -75 72 -22 0 -43 -8 -55 -20z"
       id="path12" />
    <path
       d="M3212 2627 c-46 -49 -12 -127 54 -127 63 0 98 86 54 130 -28 28 -81 26 -108 -3z"
       id="path14" />
    <path
       d="M2642 2048 c-9 -9 -12 -129 -12 -479 l0 -468 22 -15 c20 -14 133 -16 1016 -16 l993 0 24 25 25 24 0 448 c0 390 -2 451 -16 471 l-15 22 -1013 0 c-774 0 -1015 -3 -1024 -12z m1718 -107 c-39 -22 -684 -304 -694 -304 -11 0 -629 273 -676 299 -21 11 80 13 680 13 388 0 698 -3 690 -8z m-1263 -182 c186 -83 358 -160 383 -171 l45 -19 -360 -160 c-198 -88 -375 -167 -392 -174 l-33 -14 0 345 c0 201 4 344 9 344 5 0 162 -68 348 -151z m1493 -193 l0 -343 -385 171 c-212 94 -385 173 -385 176 1 5 750 339 763 340 4 0 7 -155 7 -344z m-570 -218 l344 -153 -353 -3 c-194 -1 -507 -1 -696 0 l-344 3 342 152 c188 84 347 153 352 153 6 0 165 -68 355 -152z"
       id="path16" />
    <path
       d="M2652 844 c-27 -19 -29 -64 -4 -87 17 -15 60 -17 410 -17 379 0 393 1 412 20 11 11 20 29 20 40 0 11 -9 29 -20 40 -19 19 -33 20 -408 20 -335 0 -391 -2 -410 -16z"
       id="path18" />
    <path
       d="M3872 844 c-27 -19 -29 -64 -4 -87 17 -15 60 -17 410 -17 379 0 393 1 412 20 11 11 20 29 20 40 0 11 -9 29 -20 40 -19 19 -33 20 -408 20 -335 0 -391 -2 -410 -16z"
       id="path20" />
    <path
       d="M2660 517 c-31 -15 -39 -66 -15 -91 14 -14 45 -16 220 -16 199 0 204 0 219 22 22 30 20 51 -5 74 -19 17 -40 19 -208 22 -137 2 -193 -1 -211 -11z"
       id="path22" />
    <path
       d="M3882 520 c-25 -10 -42 -46 -34 -70 12 -37 32 -40 238 -40 198 0 203 1 218 22 22 30 20 51 -5 74 -19 17 -40 19 -208 21 -102 1 -196 -2 -209 -7z"
       id="path24" />
    <path
       d="M2027 1188 c-27 -21 -36 -60 -22 -94 14 -34 32 -44 75 -44 33 0 70 40 70 75 0 37 -37 75 -74 75 -18 0 -40 -6 -49 -12z"
       id="path26" />
  </g>
  <path
     style="fill:#ffffff;fill-rule:evenodd;stroke-width:1.43502"
     d="m 224.01187,668.66872 c -66.16799,-0.34718 -89.37299,-0.69697 -90.91243,-1.37039 -1.20813,-0.52851 -2.3125,-1.78311 -2.65776,-3.01934 -0.3249,-1.1633 -0.56943,-8.09508 -0.54338,-15.40394 0.0421,-11.80476 0.23227,-13.75527 1.70316,-17.46534 2.3215,-5.85562 6.70009,-11.24954 11.15864,-13.74616 7.02449,-3.93345 11.27328,-4.61679 31.3237,-5.03784 l 18.41453,-0.3867 v -13.46078 -13.46078 l -79.53098,-0.55721 -79.530991,-0.55721 -4.384985,-2.70656 c -5.784937,-3.57067 -9.769038,-8.00868 -13.06489,-14.55336 L 13.288839,561.5863 V 380.82017 200.05404 l 2.740599,-5.48642 c 3.870252,-7.74788 5.574779,-9.75346 11.849595,-13.94249 l 5.532906,-3.69372 162.693361,-0.22679 162.69337,-0.22679 0.0181,-11.923 c 0.0214,-14.08498 0.5641,-16.95938 3.84019,-20.33945 3.40818,-3.51634 5.79533,-4.49741 19.8094,-8.14123 7.47241,-1.94291 12.48895,-3.63013 12.85877,-4.3248 0.33351,-0.62647 2.17116,-5.06874 4.08367,-9.87171 1.91251,-4.80296 4.12581,-10.30526 4.91845,-12.22731 l 1.44116,-3.49465 -4.9127,-8.655146 C 387.66573,74.26248 387.80104,72.193098 403.5333,56.550657 417.39178,42.771301 419.81233,42.632432 440.65025,54.421225 l 10.85121,6.138939 8.4252,-3.596975 c 4.63385,-1.978336 10.40738,-4.26637 12.83005,-5.084519 2.42268,-0.81815 4.71295,-1.890731 5.08951,-2.383515 0.37656,-0.492784 1.9694,-6.021666 3.53967,-12.286405 3.39645,-13.550541 4.66497,-16.62085 8.29048,-20.066136 2.63188,-2.501041 3.03606,-2.623198 10.53692,-3.184613 4.29004,-0.321095 11.91346,-0.603014 16.94095,-0.626486 l 9.14089,-0.04268 3.49677,3.606971 c 4.5701,4.714139 5.40321,6.508844 8.22985,17.728961 4.03173,16.003625 2.89278,14.708462 18.19772,20.693409 l 13.11792,5.129717 9.01056,-5.387871 c 16.16999,-9.668856 20.69639,-10.907687 27.46354,-7.516487 4.81408,2.412469 18.82821,16.948833 21.39215,22.189336 3.27166,6.687048 2.679,8.740963 -7.793,27.007112 -5.79022,10.099837 -5.89256,7.876667 1.1549,25.090537 l 4.48857,10.96365 12.47999,3.30193 c 15.01299,3.97212 18.08954,5.36373 20.93805,9.47097 2.1592,3.11333 2.17463,3.21781 2.42775,16.44177 0.3152,16.46722 -0.0493,19.13911 -3.08178,22.59297 -3.33815,3.80194 -6.18496,5.01032 -20.51064,8.70616 l -12.70662,3.27814 -1.26253,3.84117 c -0.6944,2.11264 -2.92124,7.77018 -4.94856,12.57231 -2.02731,4.80213 -3.68171,9.2444 -3.67645,9.87171 0.005,0.62731 1.54263,3.87427 3.41636,7.21546 11.41447,20.35399 12.2812,23.18822 9.08741,29.7161 -2.46461,5.03747 -14.63917,17.81711 -20.44548,21.46161 -6.62766,4.16004 -11.62303,2.95506 -27.76612,-6.69771 -4.94199,-2.95506 -9.31058,-5.37284 -9.70799,-5.37284 -0.39741,0 -6.83123,2.36228 -14.29739,5.24952 -10.37735,4.01301 -13.79577,5.6675 -14.51283,7.0241 -0.54601,1.03296 -0.94269,4.71004 -0.94921,8.79868 l -0.0112,7.0241 34.36114,0.0431 c 46.81071,0.0588 73.50942,0.95223 78.20991,2.61731 5.20773,1.84474 10.68427,7.10619 13.63452,13.09901 l 2.47595,5.02938 0.64122,77.38973 c 0.35267,42.56435 0.35138,116.9317 -0.003,165.26077 l -0.64409,87.87103 -2.48175,5.04116 c -2.61774,5.31739 -6.62617,9.39584 -11.90943,12.11747 -2.32505,1.19773 -5.26184,1.70061 -12.52948,2.1455 -13.00961,0.79637 -308.11545,1.33664 -417.27013,0.76392 z m 86.65918,-16.1867 c -0.47232,-2.55169 -2.7294,-22.23894 -2.74234,-23.91991 -0.006,-0.75101 -11.1457,-0.93336 -53.35251,-0.87331 -29.33986,0.0418 -64.29539,0.29803 -77.67895,0.56952 -27.44703,0.55678 -27.32556,0.53072 -30.00761,6.43788 -1.13431,2.49831 -1.44194,4.97418 -1.45509,11.71092 l -0.0167,8.54282 h 82.855 82.85499 z m 335.16655,0.67314 c 1.46177,-0.77698 3.76833,-2.4666 5.12569,-3.75473 l 2.46793,-2.34203 V 513.93928 380.82017 H 488.64961 323.868 V 513.1773 645.53444 l 3.85284,4.32278 3.85284,4.32278 51.39076,0.23147 c 28.26492,0.1273 98.37631,0.21457 155.80308,0.19392 100.30157,-0.0361 104.51695,-0.0932 107.07008,-1.45023 z M 307.92139,598.75714 v -13.66852 h -50.1179 -50.11791 v 13.66852 13.66852 h 50.11791 50.1179 z m 0,-66.06452 V 495.48387 H 168.57842 29.235447 v 33.19822 33.19822 l 3.960712,4.01053 3.960712,4.01053 H 172.53913 307.92139 Z m 0.25723,-75.30055 c 0.27618,-12.59752 0.50214,-49.0467 0.50214,-80.99819 v -58.09362 l 3.36168,-5.37928 c 4.13167,-6.6114 7.1676,-9.58319 12.58492,-12.31904 l 4.1765,-2.10921 46.32109,-0.53633 c 25.47661,-0.29498 69.47216,-0.56553 97.76789,-0.60121 l 51.4468,-0.0649 -0.018,-39.67668 c -0.0191,-42.19158 -0.61524,-55.88471 -2.59993,-59.7227 -2.56274,-4.95579 -2.59066,-4.96068 -31.51931,-5.51158 -14.42764,-0.27475 -122.24269,-0.53124 -239.58899,-0.56997 l -213.356902,-0.0704 -4.010531,3.96071 -4.01053,3.96071 V 339.97851 480.29663 H 168.45597 307.67649 Z m 345.2526,-114.82298 v -23.06384 l -3.40017,-3.13416 -3.40015,-3.13416 H 488.8825 331.13411 l -3.63305,3.57843 -3.63306,3.57842 v 22.61957 22.61958 h 164.78161 164.78161 z m -46.16137,-82.31895 6.77431,-6.66569 -6.16777,-10.53001 c -8.00869,-13.67299 -9.87861,-17.42491 -9.87861,-19.82104 0,-1.0824 2.02111,-6.33504 4.49136,-11.67252 2.47025,-5.33749 5.54073,-12.6776 6.82329,-16.31136 1.28256,-3.63376 2.70575,-7.30534 3.16265,-8.15906 1.29146,-2.41312 7.48162,-4.86032 20.27581,-8.01578 9.56157,-2.35818 11.85653,-3.183 12.33138,-4.43197 0.32089,-0.84401 0.82943,-5.47163 1.1301,-10.28361 0.44,-7.04207 0.34087,-8.91985 -0.50813,-9.62445 -0.58013,-0.48147 -6.682,-2.44352 -13.55971,-4.36012 -6.87771,-1.91659 -13.90639,-3.99561 -15.6193,-4.62005 -3.45168,-1.2583 -3.69908,-1.65797 -7.49419,-12.10672 -1.36525,-3.75885 -4.26633,-10.7368 -6.44684,-15.50658 -2.18051,-4.76976 -4.14009,-9.75387 -4.3546,-11.07578 -0.46405,-2.85959 0.61363,-5.148 9.06078,-19.240279 5.19475,-8.666334 5.96178,-10.378166 5.30051,-11.829509 -0.96578,-2.119653 -12.96702,-14.866951 -13.99685,-14.866951 -0.41642,0 -4.39434,2.187063 -8.83984,4.860141 -4.44549,2.673076 -10.89079,6.291211 -14.32289,8.0403 -7.02849,3.581909 -7.47769,3.560812 -16.16101,-0.759001 -2.29707,-1.142756 -8.27705,-3.677893 -13.28884,-5.633637 -16.82418,-6.565274 -16.14965,-6.133012 -17.77182,-11.388866 -0.78272,-2.536031 -2.33564,-8.369808 -3.45093,-12.96395 -1.11529,-4.594141 -2.36243,-9.634408 -2.77143,-11.200593 l -0.74363,-2.847608 -4.71674,-0.02485 c -2.59421,-0.01366 -7.06743,-0.327722 -9.94049,-0.697905 -2.87306,-0.370183 -5.65998,-0.505661 -6.19316,-0.301061 -0.53318,0.204599 -2.05844,4.362928 -3.38947,9.240731 -6.67521,24.462449 -6.23538,23.683609 -15.3127,27.115713 -3.06403,1.158499 -9.15894,3.639054 -13.54426,5.512345 -17.97432,7.67815 -16.61751,7.259968 -19.66772,6.061812 -1.51161,-0.593775 -7.97856,-4.227387 -14.371,-8.074694 l -11.62263,-6.995104 -3.55716,2.633933 c -1.95645,1.448663 -5.66704,4.793015 -8.24578,7.431894 l -4.68861,4.797961 4.92536,8.352985 c 2.70895,4.594142 6.43447,11.321233 8.27894,14.949094 3.8668,7.605569 3.97986,6.568329 -2.13642,19.601889 -1.86191,3.96767 -4.50195,10.28936 -5.86675,14.0482 -4.57934,12.61209 -3.99821,11.99447 -13.82536,14.69338 -4.71692,1.29544 -11.70332,3.10912 -15.52532,4.03039 l -6.9491,1.67506 -0.44199,2.76411 c -0.2431,1.52026 -0.66923,6.2314 -0.94695,10.4692 l -0.50494,7.70509 2.20082,0.85048 c 1.43225,0.55346 13.49607,0.99947 34.5448,1.27714 l 32.34398,0.42667 0.53892,-10.88797 c 0.29641,-5.98838 1.0189,-13.16972 1.60554,-15.95851 2.58744,-12.30024 8.14209,-22.80069 16.92362,-31.99222 13.16022,-13.77464 28.82678,-20.363163 48.42072,-20.363163 5.35097,0 11.63565,0.481853 14.70451,1.127402 19.91212,4.188651 35.81556,16.595971 46.24827,36.081351 5.02614,9.38741 5.56205,12.29846 5.5601,30.20246 -0.002,17.66771 -0.26629,19.03074 -5.67626,29.26479 -6.05234,11.44928 -16.35746,22.5006 -26.90289,28.85095 l -3.98665,2.40073 v 19.26865 19.26865 l 2.08825,-0.50328 c 1.14853,-0.27679 5.50537,-2.05649 9.68187,-3.95487 13.07221,-5.94185 16.8452,-7.32198 18.72423,-6.8492 0.9782,0.24614 6.04996,2.91532 11.27058,5.93153 18.38576,10.62237 16.88429,10.53089 25.97804,1.58293 z m -58.02309,-60.99072 c 9.47464,-11.13432 13.42961,-22.53651 12.88085,-37.13558 -0.36829,-9.79804 -2.27644,-16.56032 -6.79021,-24.06387 -5.03797,-8.37497 -16.14763,-17.83863 -26.06191,-22.20059 -19.87881,-8.74604 -44.89724,-2.32001 -59.32332,15.23733 -9.58327,11.66335 -14.2488,28.26882 -11.81114,42.03788 l 0.53774,3.03745 28.46411,0.44052 c 32.26992,0.49944 33.59373,0.70491 40.42614,6.27453 5.73584,4.67573 8.68429,8.94085 10.48492,15.16709 2.59809,8.98373 2.73953,9.22133 4.72013,7.92907 0.92876,-0.60598 3.84147,-3.63171 6.47269,-6.72383 z"
     id="path888"
     transform="scale(0.75)" />
  <path
     style="fill:#ffffff;fill-rule:evenodd;stroke-width:1.43502"
     d=""
     id="path927"
     transform="scale(0.75)" />
  <path
     style="fill:#ffffff;fill-rule:evenodd;stroke-width:1.43502"
     d="m 126.25362,386.46579 c -2.0073,-1.08916 -3.40909,-4.10788 -2.94988,-6.35252 0.97616,-4.77148 34.77546,-78.15188 54.83607,-119.05256 8.1456,-16.60771 10.13631,-20.09689 12.02255,-21.07231 3.06027,-1.58252 3.40214,-1.51992 6.48604,1.18778 1.84706,1.62174 2.68419,3.00612 2.68419,4.43891 0,5.79111 -61.52902,138.09399 -65.52337,140.89174 -2.05118,1.43671 -4.86024,1.42144 -7.5556,-0.0411 z"
     id="path966"
     transform="scale(0.75)" />
  <path
     style="fill:#ffffff;fill-rule:evenodd;stroke-width:1.43502"
     d="M 104.02733,353.35214 C 101.942,351.98754 93.546706,344.19737 85.371125,336.04065 71.362461,322.06429 65.657295,315.40889 65.70596,313.10011 c 0.04038,-1.9156 4.64005,-7.15926 18.784842,-21.41486 21.294418,-21.46123 24.045148,-23.12128 28.986618,-17.49326 3.99716,4.55251 2.3767,7.15458 -16.158037,25.94594 l -13.669103,13.85836 13.666036,13.85836 c 13.378804,13.56709 18.486424,19.52223 18.486424,21.55394 0,1.58446 -3.97104,5.49127 -6.08019,5.98184 -1.37411,0.31961 -2.95847,-0.24742 -5.69522,-2.03829 z"
     id="path1044"
     transform="scale(0.75)" />
  <path
     style="fill:#ffffff;fill-rule:evenodd;stroke-width:1.43502"
     d="m 210.52163,354.24706 c -2.37616,-1.86908 -3.59643,-5.14096 -2.76033,-7.40115 0.34455,-0.93143 7.5249,-8.7057 15.95633,-17.27618 l 15.32986,-15.58267 -14.46557,-14.68356 c -12.68126,-12.87235 -17.65571,-18.98625 -17.65571,-21.69992 0,-0.41976 1.06054,-1.97108 2.35676,-3.44738 4.74377,-5.40287 6.92354,-4.143 26.75484,15.4638 17.4778,17.27994 21.40193,21.93727 20.73216,24.60585 -0.59847,2.38451 -11.94282,14.94979 -24.32449,26.9424 -15.40172,14.91777 -17.78132,16.33733 -21.92385,13.07881 z"
     id="path1083"
     transform="scale(0.75)" />
  <path
     style="fill:#ffffff;fill-rule:evenodd;stroke-width:1.43502"
     d="m 355.69474,347.1956 c -3.23677,-2.18126 -4.46428,-4.58936 -4.4785,-8.78581 -0.009,-2.77421 0.41713,-3.73155 2.66328,-5.97771 2.5537,-2.5537 2.86798,-2.65843 6.95937,-2.31914 3.74331,0.31043 4.60501,0.70465 6.81755,3.11895 2.06448,2.25273 2.53266,3.37842 2.53266,6.08948 0,7.56526 -8.27887,12.06285 -14.49436,7.87423 z"
     id="path1122"
     transform="scale(0.75)" />
  <path
     style="fill:#ffffff;fill-rule:evenodd;stroke-width:1.43502"
     d="m 393.19667,347.48343 c -5.45791,-3.42769 -6.38501,-11.33818 -1.8081,-15.42765 1.98811,-1.77638 3.04006,-2.11288 6.60517,-2.11288 3.80999,0 4.50254,0.26209 6.82228,2.58183 2.26315,2.26315 2.58183,3.06123 2.58183,6.46573 0,3.33152 -0.35471,4.27095 -2.49401,6.60534 -3.19708,3.48861 -7.94018,4.25338 -11.70717,1.88763 z"
     id="path1161"
     transform="scale(0.75)" />
  <path
     style="fill:#ffffff;fill-rule:evenodd;stroke-width:1.43502"
     d="m 430.10117,347.19364 c -3.0355,-2.03917 -4.99396,-6.74114 -4.17195,-10.01626 0.29821,-1.18819 1.68389,-3.30202 3.07928,-4.69741 2.1515,-2.1515 3.07552,-2.53707 6.08006,-2.53707 6.55372,0 9.4753,2.77112 9.50115,9.01184 0.0155,3.73221 -0.23177,4.32465 -2.93122,7.0241 -2.43439,2.43439 -3.47341,2.94812 -5.9626,2.94812 -1.87906,0 -3.98635,-0.65287 -5.59472,-1.73332 z"
     id="path1200"
     transform="scale(0.75)" />
  <path
     style="fill:#ffffff;fill-rule:evenodd;stroke-width:1.43502"
     d="m 272.31147,541.57227 c -4.91259,-1.72733 -7.01194,-9.63666 -3.90871,-14.72611 3.00839,-4.93391 11.45129,-5.0189 15.54276,-0.15646 3.91738,4.65554 2.27324,11.82192 -3.38332,14.74705 -2.58,1.33416 -4.7408,1.36965 -8.25073,0.13552 z"
     id="path1239"
     transform="scale(0.75)" />
  <path
     style="fill:#ffffff;fill-rule:evenodd;stroke-width:1.43502"
     d="m 358.13803,582.88176 c -4.89088,-0.61199 -6.93299,-2.6286 -6.93299,-6.84643 0,-3.22448 1.98777,-5.80995 5.14671,-6.69429 1.13698,-0.31829 24.80618,-0.57871 52.59822,-0.57871 55.93373,0 53.25793,-0.23566 55.37568,4.87703 0.7844,1.8937 0.7844,2.78012 0,4.67382 -2.1096,5.09303 0.32599,4.86631 -53.4764,4.97793 -26.7484,0.0555 -50.46845,-0.12871 -52.71122,-0.40935 z"
     id="path1278"
     transform="scale(0.75)" />
  <path
     style="fill:#ffffff;fill-rule:evenodd;stroke-width:1.43502"
     d="m 355.79832,626.84048 c -3.28923,-0.77436 -4.59328,-2.52452 -4.59328,-6.16463 0,-4.13243 2.5372,-6.76909 7.25945,-7.54404 4.85061,-0.79602 30.13701,-0.79626 41.1965,-3.8e-4 7.97654,0.57401 8.74866,0.77066 10.82092,2.75601 2.60994,2.50048 2.84609,5.01302 0.78834,8.38757 -0.95049,1.55872 -2.26794,2.52342 -3.8889,2.84761 -3.50835,0.70167 -48.44822,0.45587 -51.58303,-0.28214 z"
     id="path1317"
     transform="scale(0.75)" />
  <path
     style="fill:#ffffff;fill-rule:evenodd;stroke-width:1.43502"
     d="m 519.13296,626.8154 c -4.05153,-0.82013 -5.18653,-1.70637 -5.80778,-4.53491 -0.62212,-2.8325 1.34418,-7.0216 3.95034,-8.41602 2.58348,-1.38228 47.41388,-1.38438 52.40821,-0.002 5.55679,1.53755 7.35323,6.99302 3.70144,11.24061 l -1.83174,2.13059 -24.5561,0.12593 c -13.50585,0.0693 -26.04482,-0.17543 -27.86437,-0.54375 z"
     id="path1356"
     transform="scale(0.75)" />
  <path
     style="fill:#ffffff;fill-rule:evenodd;stroke-width:1.43502"
     d="m 520.64182,582.8057 c -4.90558,-0.73482 -6.1588,-1.84268 -6.70689,-5.92894 -0.36347,-2.70991 -0.13232,-3.38945 1.81555,-5.33732 2.09278,-2.09278 2.72651,-2.26474 10.15662,-2.75597 4.35851,-0.28816 27.7594,-0.4108 52.00198,-0.27253 48.78518,0.27824 46.82483,0.07 48.94955,5.19953 1.25437,3.02832 0.39579,5.70578 -2.52797,7.88345 -2.12189,1.58042 -2.62778,1.59742 -50.87727,1.70943 -26.80374,0.0622 -50.56894,-0.16172 -52.81157,-0.49765 z"
     id="path1395"
     transform="scale(0.75)" />
  <path
     style="fill:#ffffff;fill-rule:evenodd;stroke-width:1.43502"
     d="m 362.59548,538.79192 c -4.83725,-0.29883 -8.65743,-0.92317 -9.71267,-1.58737 l -1.73936,-1.0948 0.22063,-62.77435 c 0.12136,-34.5259 0.48892,-63.04244 0.8168,-63.37011 1.17428,-1.17347 67.94848,-1.81462 169.04688,-1.62314 l 102.81916,0.19474 1.59315,3.03745 c 1.5721,2.99732 1.59627,3.81898 1.82952,62.19156 l 0.23637,59.1541 -3.24209,3.30344 -3.24208,3.30344 -125.3265,-0.1212 c -68.92958,-0.0667 -128.9145,-0.34286 -133.29981,-0.61376 z m 198.19252,-15.1261 21.6408,-0.46523 -31.13283,-13.77316 c -17.12306,-7.57524 -38.10005,-16.76751 -46.61555,-20.42728 -14.99965,-6.44653 -15.56826,-6.62399 -18.22469,-5.68773 -2.26481,0.79823 -29.11318,12.58117 -82.85182,36.36116 l -7.97043,3.52701 18.98118,0.39972 c 27.17478,0.57225 120.6531,0.61415 146.17334,0.0655 z M 418.61311,496.57637 c 28.07884,-12.47485 51.05019,-22.86427 51.04742,-23.08761 -0.005,-0.39601 -68.28671,-30.93284 -91.18898,-40.78132 -7.90155,-3.39784 -11.73452,-4.69594 -12.27376,-4.15669 -0.51304,0.51304 -0.91527,16.45882 -1.1635,46.12557 -0.37133,44.37965 -0.34856,45.3334 1.0735,44.96151 0.79908,-0.20896 24.42648,-10.58662 52.50532,-23.06146 z M 612.29689,474.2513 c -0.17508,-25.04269 -0.54527,-45.75911 -0.82264,-46.03648 -0.64709,-0.64708 -1.80413,-0.17355 -29.84583,12.21475 -58.85621,26.00156 -72.71573,32.49822 -71.39292,33.46548 2.28229,1.66884 100.1289,45.78152 101.71543,45.85686 0.37584,0.0179 0.52607,-19.74032 0.34596,-45.50061 z m -99.56243,-19.67538 c 30.06071,-12.99156 62.13499,-27.21775 65.89958,-29.229 l 3.03745,-1.62278 -8.73267,-0.46962 c -11.87662,-0.6387 -159.00862,-0.79314 -167.7024,-0.17604 -3.823,0.27137 -6.95092,0.73385 -6.95092,1.02773 0,1.30085 87.57305,40.22503 90.52905,40.23806 0.7172,0.003 11.48116,-4.3926 23.91991,-9.76835 z"
     id="path1434"
     transform="scale(0.75)" />
</svg>
