{
  "accessors": [
    {
      "bufferView": 2,
      "componentType": 5126,
      "count": 3576,
      "max": [
        4.576961517333984,
        8.071503639221191,
        0.05313372611999512
      ],
      "min": [
        -5.143038749694824,
        -0.005901932716369629,
        -6.8422322273254395
      ],
      "type": "VEC3"
    },
    {
      "bufferView": 2,
      "byteOffset": 42912,
      "componentType": 5126,
      "count": 3576,
      "max": [
        1.0,
        0.9999822378158569,
        0.9965047240257263
      ],
      "min": [
        -1.0,
        -0.9998687505722046,
        -0.999982476234436
      ],
      "type": "VEC3"
    },
    {
      "bufferView": 1,
      "componentType": 5126,
      "count": 3576,
      "max": [
        0.9711170196533203,
        0.9715478420257568
      ],
      "min": [
        0.0,
        0.0
      ],
      "type": "VEC2"
    },
    {
      "bufferView": 0,
      "componentType": 5125,
      "count": 8136,
      "type": "SCALAR"
    },
    {
      "bufferView": 2,
      "byteOffset": 85824,
      "componentType": 5126,
      "count": 1511,
      "max": [
        5.039718151092529,
        8.071503639221191,
        5.381898880004883
      ],
      "min": [
        -5.61151647567749,
        0.0027632713317871094,
        -6.315579414367676
      ],
      "type": "VEC3"
    },
    {
      "bufferView": 2,
      "byteOffset": 103956,
      "componentType": 5126,
      "count": 1511,
      "max": [
        1.0,
        1.0,
        1.0
      ],
      "min": [
        -1.0,
        -1.0,
        -1.0
      ],
      "type": "VEC3"
    },
    {
      "bufferView": 1,
      "byteOffset": 28608,
      "componentType": 5126,
      "count": 1511,
      "max": [
        0.9715132713317871,
        0.9714617729187012
      ],
      "min": [
        0.0,
        0.0
      ],
      "type": "VEC2"
    },
    {
      "bufferView": 0,
      "byteOffset": 32544,
      "componentType": 5125,
      "count": 3261,
      "type": "SCALAR"
    },
    {
      "bufferView": 2,
      "byteOffset": 122088,
      "componentType": 5126,
      "count": 12,
      "max": [
        4.152076244354248,
        6.756618976593018,
        -0.8774957656860352
      ],
      "min": [
        -3.0851597785949707,
        0.870607852935791,
        -3.774898052215576
      ],
      "type": "VEC3"
    },
    {
      "bufferView": 2,
      "byteOffset": 122232,
      "componentType": 5126,
      "count": 12,
      "max": [
        0.0009057606221176684,
        0.991447925567627,
        -0.13050320744514465
      ],
      "min": [
        -3.92067086067982e-05,
        0.17277325689792633,
        -0.984961211681366
      ],
      "type": "VEC3"
    },
    {
      "bufferView": 1,
      "byteOffset": 40696,
      "componentType": 5126,
      "count": 12,
      "max": [
        0.8991494178771973,
        0.3251209259033203
      ],
      "min": [
        0.7027792930603027,
        0.2611020803451538
      ],
      "type": "VEC2"
    },
    {
      "bufferView": 0,
      "byteOffset": 45588,
      "componentType": 5125,
      "count": 18,
      "type": "SCALAR"
    },
    {
      "bufferView": 2,
      "byteOffset": 122376,
      "componentType": 5126,
      "count": 272,
      "max": [
        4.258552551269531,
        1.2127560377120972,
        -2.3869903087615967
      ],
      "min": [
        1.8445727825164795,
        0.5411293506622314,
        -2.5054163932800293
      ],
      "type": "VEC3"
    },
    {
      "bufferView": 2,
      "byteOffset": 125640,
      "componentType": 5126,
      "count": 272,
      "max": [
        -9.542928580685839e-08,
        0.17364946007728577,
        -0.984807550907135
      ],
      "min": [
        -9.543084900087706e-08,
        0.1736464649438858,
        -0.9848081469535828
      ],
      "type": "VEC3"
    },
    {
      "bufferView": 1,
      "byteOffset": 40792,
      "componentType": 5126,
      "count": 272,
      "max": [
        0.9047138690948486,
        0.9314205646514893
      ],
      "min": [
        0.02242457866668701,
        0.28105854988098145
      ],
      "type": "VEC2"
    },
    {
      "bufferView": 0,
      "byteOffset": 45660,
      "componentType": 5125,
      "count": 714,
      "type": "SCALAR"
    },
    {
      "bufferView": 2,
      "byteOffset": 128904,
      "componentType": 5126,
      "count": 945,
      "max": [
        1.539461612701416,
        5.414677143096924,
        -1.1645495891571045
      ],
      "min": [
        -4.658812046051025,
        0.3136322498321533,
        -2.077730655670166
      ],
      "type": "VEC3"
    },
    {
      "bufferView": 2,
      "byteOffset": 140244,
      "componentType": 5126,
      "count": 945,
      "max": [
        1.0,
        0.9997943043708801,
        0.17742326855659485
      ],
      "min": [
        -1.0,
        -0.9855523705482483,
        -0.9994463324546814
      ],
      "type": "VEC3"
    },
    {
      "bufferView": 1,
      "byteOffset": 42968,
      "componentType": 5126,
      "count": 945,
      "max": [
        0.955196738243103,
        0.9442191123962402
      ],
      "min": [
        0.0026940107345581055,
        0.13217854499816895
      ],
      "type": "VEC2"
    },
    {
      "bufferView": 0,
      "byteOffset": 48516,
      "componentType": 5125,
      "count": 2958,
      "type": "SCALAR"
    },
    {
      "bufferView": 2,
      "byteOffset": 151584,
      "componentType": 5126,
      "count": 437,
      "max": [
        0.8130307793617249,
        0.8535405397415161,
        -1.9877357482910156
      ],
      "min": [
        -2.381366491317749,
        0.7660727500915527,
        -2.0722837448120117
      ],
      "type": "VEC3"
    },
    {
      "bufferView": 2,
      "byteOffset": 156828,
      "componentType": 5126,
      "count": 437,
      "max": [
        1.0,
        0.9986482262611389,
        0.18145258724689484
      ],
      "min": [
        -1.0,
        -0.9833996891975403,
        -0.9990497827529907
      ],
      "type": "VEC3"
    },
    {
      "bufferView": 1,
      "byteOffset": 50528,
      "componentType": 5126,
      "count": 437,
      "max": [
        0.597034215927124,
        0.5977277755737305
      ],
      "min": [
        0.22685109078884125,
        0.3323962688446045
      ],
      "type": "VEC2"
    },
    {
      "bufferView": 0,
      "byteOffset": 60348,
      "componentType": 5125,
      "count": 1716,
      "type": "SCALAR"
    },
    {
      "bufferView": 2,
      "byteOffset": 162072,
      "componentType": 5126,
      "count": 116,
      "max": [
        2.5114619731903076,
        6.976497650146484,
        -0.6428351402282715
      ],
      "min": [
        -2.227038621902466,
        3.5663552284240723,
        -1.429450511932373
      ],
      "type": "VEC3"
    },
    {
      "bufferView": 2,
      "byteOffset": 163464,
      "componentType": 5126,
      "count": 116,
      "max": [
        0.36955639719963074,
        0.5935336947441101,
        -0.8048092722892761
      ],
      "min": [
        -0.36955633759498596,
        -0.3591536283493042,
        -0.9997884631156921
      ],
      "type": "VEC3"
    },
    {
      "bufferView": 1,
      "byteOffset": 54024,
      "componentType": 5126,
      "count": 116,
      "max": [
        0.40531063079833984,
        1.0
      ],
      "min": [
        0.2828059196472168,
        0.8320229053497314
      ],
      "type": "VEC2"
    },
    {
      "bufferView": 0,
      "byteOffset": 67212,
      "componentType": 5125,
      "count": 534,
      "type": "SCALAR"
    },
    {
      "bufferView": 2,
      "byteOffset": 164856,
      "componentType": 5126,
      "count": 4,
      "max": [
        -2.7081336975097656,
        6.403166770935059,
        -0.9398849010467529
      ],
      "min": [
        -2.8309783935546875,
        6.311731815338135,
        -0.9560282230377197
      ],
      "type": "VEC3"
    },
    {
      "bufferView": 2,
      "byteOffset": 164904,
      "componentType": 5126,
      "count": 4,
      "max": [
        2.7051169126934838e-06,
        0.17386522889137268,
        -0.9847695231437683
      ],
      "min": [
        6.551485398631485e-07,
        0.17385953664779663,
        -0.9847705364227295
      ],
      "type": "VEC3"
    },
    {
      "bufferView": 1,
      "byteOffset": 54952,
      "componentType": 5126,
      "count": 4,
      "max": [
        0.8901386260986328,
        0.26228904724121094
      ],
      "min": [
        0.8857839107513428,
        0.2590041160583496
      ],
      "type": "VEC2"
    },
    {
      "bufferView": 0,
      "byteOffset": 69348,
      "componentType": 5125,
      "count": 6,
      "type": "SCALAR"
    },
    {
      "bufferView": 2,
      "byteOffset": 164952,
      "componentType": 5126,
      "count": 4,
      "max": [
        -2.8371119499206543,
        6.403166770935059,
        -0.939885139465332
      ],
      "min": [
        -2.9567832946777344,
        6.311731815338135,
        -0.9560282230377197
      ],
      "type": "VEC3"
    },
    {
      "bufferView": 2,
      "byteOffset": 165000,
      "componentType": 5126,
      "count": 4,
      "max": [
        2.3343409338849597e-06,
        0.17385920882225037,
        -0.9847705960273743
      ],
      "min": [
        2.3285394945560256e-06,
        0.17385920882225037,
        -0.9847705960273743
      ],
      "type": "VEC3"
    },
    {
      "bufferView": 1,
      "byteOffset": 54984,
      "componentType": 5126,
      "count": 4,
      "max": [
        0.8945984840393066,
        0.26228904724121094
      ],
      "min": [
        0.8903560638427734,
        0.2590041160583496
      ],
      "type": "VEC2"
    },
    {
      "bufferView": 0,
      "byteOffset": 69372,
      "componentType": 5125,
      "count": 6,
      "type": "SCALAR"
    },
    {
      "bufferView": 2,
      "byteOffset": 165048,
      "componentType": 5126,
      "count": 4,
      "max": [
        -2.9625086784362793,
        6.403166770935059,
        -0.939885139465332
      ],
      "min": [
        -3.0851597785949707,
        6.311731815338135,
        -0.9560282230377197
      ],
      "type": "VEC3"
    },
    {
      "bufferView": 2,
      "byteOffset": 165096,
      "componentType": 5126,
      "count": 4,
      "max": [
        2.3317031718761427e-06,
        0.17386369407176971,
        -0.9847697019577026
      ],
      "min": [
        0.0,
        0.1738588958978653,
        -0.984770655632019
      ],
      "type": "VEC3"
    },
    {
      "bufferView": 1,
      "byteOffset": 55016,
      "componentType": 5126,
      "count": 4,
      "max": [
        0.8991491794586182,
        0.26228904724121094
      ],
      "min": [
        0.8948013782501221,
        0.2590041160583496
      ],
      "type": "VEC2"
    },
    {
      "bufferView": 0,
      "byteOffset": 69396,
      "componentType": 5125,
      "count": 6,
      "type": "SCALAR"
    },
    {
      "bufferView": 2,
      "byteOffset": 165144,
      "componentType": 5126,
      "count": 12,
      "max": [
        -2.7077560424804688,
        6.408542633056641,
        -0.9389359951019287
      ],
      "min": [
        -3.0851597785949707,
        6.311731815338135,
        -0.9560282230377197
      ],
      "type": "VEC3"
    },
    {
      "bufferView": 2,
      "byteOffset": 165288,
      "componentType": 5126,
      "count": 12,
      "max": [
        2.7051169126934838e-06,
        0.17385967075824738,
        -0.9847704768180847
      ],
      "min": [
        2.3285394945560256e-06,
        0.17384009063243866,
        -0.9847739338874817
      ],
      "type": "VEC3"
    },
    {
      "bufferView": 1,
      "byteOffset": 55048,
      "componentType": 5126,
      "count": 12,
      "max": [
        0.8991491794586182,
        0.2624821662902832
      ],
      "min": [
        0.8857705593109131,
        0.2590041160583496
      ],
      "type": "VEC2"
    },
    {
      "bufferView": 0,
      "byteOffset": 69420,
      "componentType": 5125,
      "count": 30,
      "type": "SCALAR"
    },
    {
      "bufferView": 2,
      "byteOffset": 165432,
      "componentType": 5126,
      "count": 222,
      "max": [
        -2.866190195083618,
        5.671704292297363,
        -1.114067792892456
      ],
      "min": [
        -2.949223279953003,
        5.586635112762451,
        -1.1819653511047363
      ],
      "type": "VEC3"
    },
    {
      "bufferView": 2,
      "byteOffset": 168096,
      "componentType": 5126,
      "count": 222,
      "max": [
        1.0,
        0.9988943338394165,
        0.17653697729110718
      ],
      "min": [
        -1.0,
        -0.9842970371246338,
        -0.9992266893386841
      ],
      "type": "VEC3"
    },
    {
      "bufferView": 1,
      "byteOffset": 55144,
      "componentType": 5126,
      "count": 222,
      "max": [
        0.5871386528015137,
        0.5971335768699646
      ],
      "min": [
        0.23322296142578125,
        0.3323962688446045
      ],
      "type": "VEC2"
    },
    {
      "bufferView": 0,
      "byteOffset": 69540,
      "componentType": 5125,
      "count": 858,
      "type": "SCALAR"
    }
  ],
  "asset": {
    "extras": {
      "author": "GeniusPilot2016 (https://sketchfab.com/GeniusPilot2016)",
      "license": "CC-BY-4.0 (http://creativecommons.org/licenses/by/4.0/)",
      "source": "https://sketchfab.com/3d-models/vintage-desktop-computer-d86514578a664c8bae2ca5f7e7e0175f",
      "title": "Vintage Desktop Computer"
    },
    "generator": "Sketchfab-15.5.0",
    "version": "2.0"
  },
  "bufferViews": [
    {
      "buffer": 0,
      "byteLength": 72972,
      "name": "floatBufferViews",
      "target": 34963
    },
    {
      "buffer": 0,
      "byteLength": 56920,
      "byteOffset": 72972,
      "byteStride": 8,
      "name": "floatBufferViews",
      "target": 34962
    },
    {
      "buffer": 0,
      "byteLength": 170760,
      "byteOffset": 129892,
      "byteStride": 12,
      "name": "floatBufferViews",
      "target": 34962
    }
  ],
  "buffers": [
    {
      "byteLength": 300652,
      "uri": "scene.bin"
    }
  ],
  "materials": [
    {
      "doubleSided": true,
      "name": "body1",
      "pbrMetallicRoughness": {
        "baseColorFactor": [
          0.90466,
          0.913098,
          0.904661,
          1.0
        ],
        "metallicFactor": 0.0,
        "roughnessFactor": 0.5
      }
    },
    {
      "doubleSided": true,
      "name": "body2",
      "pbrMetallicRoughness": {
        "baseColorFactor": [
          0.514917,
          0.527115,
          0.439657,
          1.0
        ],
        "metallicFactor": 0.0,
        "roughnessFactor": 0.5
      }
    },
    {
      "doubleSided": true,
      "name": "label",
      "pbrMetallicRoughness": {
        "metallicFactor": 0.0,
        "roughnessFactor": 0.5
      }
    },
    {
      "doubleSided": true,
      "name": "hole",
      "pbrMetallicRoughness": {
        "baseColorFactor": [
          0.0,
          0.0,
          0.0,
          1.0
        ],
        "metallicFactor": 0.0,
        "roughnessFactor": 0.5
      }
    },
    {
      "doubleSided": true,
      "name": "body3",
      "pbrMetallicRoughness": {
        "baseColorFactor": [
          0.0307134,
          0.0356013,
          0.0497066,
          1.0
        ],
        "metallicFactor": 0.0,
        "roughnessFactor": 0.5
      }
    },
    {
      "doubleSided": true,
      "emissiveFactor": [
        1.0,
        0.0,
        0.0
      ],
      "name": "red_led",
      "pbrMetallicRoughness": {
        "baseColorFactor": [
          0.263274,
          0.0,
          0.0,
          1.0
        ],
        "metallicFactor": 0.0,
        "roughnessFactor": 0.25
      }
    },
    {
      "doubleSided": true,
      "name": "crt_display",
      "pbrMetallicRoughness": {
        "baseColorFactor": [
          0.0529301,
          0.0529301,
          0.0529301,
          1.0
        ],
        "metallicFactor": 0.0,
        "roughnessFactor": 0.0
      }
    },
    {
      "doubleSided": true,
      "name": "material",
      "pbrMetallicRoughness": {
        "baseColorFactor": [
          0.456762,
          0.0,
          0.0,
          1.0
        ],
        "metallicFactor": 0.0,
        "roughnessFactor": 0.5
      }
    },
    {
      "doubleSided": true,
      "name": "green",
      "pbrMetallicRoughness": {
        "baseColorFactor": [
          0.0,
          0.241573,
          0.0190555,
          1.0
        ],
        "metallicFactor": 0.0,
        "roughnessFactor": 0.5
      }
    },
    {
      "doubleSided": true,
      "name": "blue",
      "pbrMetallicRoughness": {
        "baseColorFactor": [
          0.0,
          0.0852702,
          0.674187,
          1.0
        ],
        "metallicFactor": 0.0,
        "roughnessFactor": 0.5
      }
    },
    {
      "doubleSided": true,
      "name": "black",
      "pbrMetallicRoughness": {
        "baseColorFactor": [
          0.0,
          0.0,
          0.0,
          1.0
        ],
        "metallicFactor": 0.0,
        "roughnessFactor": 0.5
      }
    },
    {
      "doubleSided": true,
      "emissiveFactor": [
        0.386429,
        0.904661,
        0.0318963
      ],
      "name": "green_led",
      "pbrMetallicRoughness": {
        "baseColorFactor": [
          0.0,
          0.21586,
          0.0,
          1.0
        ],
        "metallicFactor": 0.0,
        "roughnessFactor": 0.25
      }
    }
  ],
  "meshes": [
    {
      "name": "Object_0",
      "primitives": [
        {
          "attributes": {
            "NORMAL": 1,
            "POSITION": 0,
            "TEXCOORD_0": 2
          },
          "indices": 3,
          "material": 0,
          "mode": 4
        }
      ]
    },
    {
      "name": "Object_1",
      "primitives": [
        {
          "attributes": {
            "NORMAL": 5,
            "POSITION": 4,
            "TEXCOORD_0": 6
          },
          "indices": 7,
          "material": 1,
          "mode": 4
        }
      ]
    },
    {
      "name": "Object_2",
      "primitives": [
        {
          "attributes": {
            "NORMAL": 9,
            "POSITION": 8,
            "TEXCOORD_0": 10
          },
          "indices": 11,
          "material": 2,
          "mode": 4
        }
      ]
    },
    {
      "name": "Object_3",
      "primitives": [
        {
          "attributes": {
            "NORMAL": 13,
            "POSITION": 12,
            "TEXCOORD_0": 14
          },
          "indices": 15,
          "material": 3,
          "mode": 4
        }
      ]
    },
    {
      "name": "Object_4",
      "primitives": [
        {
          "attributes": {
            "NORMAL": 17,
            "POSITION": 16,
            "TEXCOORD_0": 18
          },
          "indices": 19,
          "material": 4,
          "mode": 4
        }
      ]
    },
    {
      "name": "Object_5",
      "primitives": [
        {
          "attributes": {
            "NORMAL": 21,
            "POSITION": 20,
            "TEXCOORD_0": 22
          },
          "indices": 23,
          "material": 5,
          "mode": 4
        }
      ]
    },
    {
      "name": "Object_6",
      "primitives": [
        {
          "attributes": {
            "NORMAL": 25,
            "POSITION": 24,
            "TEXCOORD_0": 26
          },
          "indices": 27,
          "material": 6,
          "mode": 4
        }
      ]
    },
    {
      "name": "Object_7",
      "primitives": [
        {
          "attributes": {
            "NORMAL": 29,
            "POSITION": 28,
            "TEXCOORD_0": 30
          },
          "indices": 31,
          "material": 7,
          "mode": 4
        }
      ]
    },
    {
      "name": "Object_8",
      "primitives": [
        {
          "attributes": {
            "NORMAL": 33,
            "POSITION": 32,
            "TEXCOORD_0": 34
          },
          "indices": 35,
          "material": 8,
          "mode": 4
        }
      ]
    },
    {
      "name": "Object_9",
      "primitives": [
        {
          "attributes": {
            "NORMAL": 37,
            "POSITION": 36,
            "TEXCOORD_0": 38
          },
          "indices": 39,
          "material": 9,
          "mode": 4
        }
      ]
    },
    {
      "name": "Object_10",
      "primitives": [
        {
          "attributes": {
            "NORMAL": 41,
            "POSITION": 40,
            "TEXCOORD_0": 42
          },
          "indices": 43,
          "material": 10,
          "mode": 4
        }
      ]
    },
    {
      "name": "Object_11",
      "primitives": [
        {
          "attributes": {
            "NORMAL": 45,
            "POSITION": 44,
            "TEXCOORD_0": 46
          },
          "indices": 47,
          "material": 11,
          "mode": 4
        }
      ]
    }
  ],
  "nodes": [
    {
      "children": [
        1
      ],
      "matrix": [
        1.0,
        0.0,
        0.0,
        0.0,
        0.0,
        2.220446049250313e-16,
        -1.0,
        0.0,
        0.0,
        1.0,
        2.220446049250313e-16,
        0.0,
        0.0,
        0.0,
        0.0,
        1.0
      ],
      "name": "Sketchfab_model"
    },
    {
      "children": [
        2
      ],
      "name": "root"
    },
    {
      "children": [
        3
      ],
      "matrix": [
        1.0,
        0.0,
        0.0,
        0.0,
        0.0,
        2.220446049250313e-16,
        1.0,
        0.0,
        0.0,
        -1.0,
        2.220446049250313e-16,
        0.0,
        0.0,
        0.0,
        0.0,
        1.0
      ],
      "name": "GLTF_SceneRootNode"
    },
    {
      "children": [
        4,
        5,
        6,
        7,
        8,
        9,
        10,
        11,
        12,
        13,
        14,
        15
      ],
      "matrix": [
        0.09000001847743988,
        0.0,
        0.0,
        0.0,
        0.0,
        0.09000001847743988,
        0.0,
        0.0,
        0.0,
        0.0,
        0.09000001847743988,
        0.0,
        0.5249106884002686,
        0.0,
        0.5112445950508118,
        1.0
      ],
      "name": "case_0"
    },
    {
      "mesh": 0,
      "name": "Object_4"
    },
    {
      "mesh": 1,
      "name": "Object_5"
    },
    {
      "mesh": 2,
      "name": "Object_6"
    },
    {
      "mesh": 3,
      "name": "Object_7"
    },
    {
      "mesh": 4,
      "name": "Object_8"
    },
    {
      "mesh": 5,
      "name": "Object_9"
    },
    {
      "mesh": 6,
      "name": "Object_10"
    },
    {
      "mesh": 7,
      "name": "Object_11"
    },
    {
      "mesh": 8,
      "name": "Object_12"
    },
    {
      "mesh": 9,
      "name": "Object_13"
    },
    {
      "mesh": 10,
      "name": "Object_14"
    },
    {
      "mesh": 11,
      "name": "Object_15"
    }
  ],
  "scene": 0,
  "scenes": [
    {
      "name": "Sketchfab_Scene",
      "nodes": [
        0
      ]
    }
  ]
}
